<svg width="863" height="715" viewBox="0 0 863 715" fill="none" xmlns="http://www.w3.org/2000/svg">
<path d="M431.5 715C669.811 715 863 616.023 863 493.929C863 371.835 669.811 272.858 431.5 272.858C193.189 272.858 0 371.835 0 493.929C0 616.023 193.189 715 431.5 715Z" fill="#F0F0F0"/>
<path d="M342.209 661.447C424.388 661.447 491.006 627.319 491.006 585.221C491.006 543.123 424.388 508.995 342.209 508.995C260.031 508.995 193.413 543.123 193.413 585.221C193.413 627.319 260.031 661.447 342.209 661.447Z" fill="#E0E0E0"/>
<path d="M765.36 489.849L747.905 480.91C747.905 480.91 743.637 447.754 746.476 422.075C750.469 385.994 776.734 342.566 808.054 352.773C839.374 362.98 793.694 399.711 783.529 430.315C773.364 460.919 765.36 489.849 765.36 489.849Z" fill="#BA68C8"/>
<path opacity="0.15" d="M765.36 489.849L747.905 480.91C747.905 480.91 743.637 447.754 746.476 422.075C750.469 385.994 776.734 342.566 808.054 352.773C839.374 362.98 793.694 399.711 783.529 430.315C773.364 460.919 765.36 489.849 765.36 489.849Z" fill="black"/>
<path d="M756.185 486.095C756.464 486.082 756.726 485.973 756.914 485.79C757.103 485.608 757.203 485.367 757.193 485.12C754.134 404.944 799.117 364.605 799.557 364.215C799.756 364.038 799.868 363.798 799.868 363.548C799.868 363.299 799.756 363.059 799.557 362.882C799.46 362.795 799.344 362.726 799.217 362.679C799.09 362.632 798.953 362.608 798.815 362.608C798.677 362.608 798.541 362.632 798.413 362.679C798.286 362.726 798.171 362.795 798.073 362.882C797.597 363.272 751.973 404.197 755.068 485.185C755.073 485.31 755.106 485.433 755.164 485.547C755.223 485.661 755.307 485.763 755.411 485.848C755.515 485.933 755.638 485.998 755.77 486.04C755.903 486.083 756.044 486.101 756.185 486.095Z" fill="white"/>
<path d="M776.332 495.424L763.914 489.069C763.914 489.069 761.789 466.315 774.372 438.686C785.361 414.631 812.469 394.657 826.132 398.85C839.796 403.043 839.448 411.641 832.781 420.661C826.114 429.681 785.618 451.151 776.332 495.424Z" fill="#BA68C8"/>
<path d="M769.775 493.019C770.055 493.014 770.322 492.914 770.521 492.738C770.719 492.562 770.832 492.325 770.837 492.076C770.58 441.367 824.227 407.106 824.777 406.765C824.891 406.695 824.989 406.606 825.063 406.502C825.137 406.398 825.187 406.281 825.209 406.16C825.232 406.038 825.226 405.914 825.192 405.794C825.159 405.675 825.099 405.563 825.015 405.465C824.853 405.264 824.608 405.128 824.335 405.085C824.061 405.043 823.779 405.097 823.549 405.237C823 405.578 768.474 440.424 768.712 492.076C768.712 492.326 768.824 492.566 769.023 492.742C769.223 492.919 769.493 493.019 769.775 493.019Z" fill="white"/>
<path d="M119.509 469.94L135.627 460.285C135.627 460.285 142.715 422.904 136.122 389.927C126.854 343.671 90.827 328.296 78.006 333.172C65.185 338.048 62.4377 351.814 86.3763 378.209C100.571 393.73 119.015 426.87 119.509 469.94Z" fill="#BA68C8"/>
<g opacity="0.15">
<path d="M119.509 469.94L135.627 460.285C135.627 460.285 142.715 422.904 136.122 389.927C126.854 343.671 90.827 328.296 78.006 333.172C65.185 338.048 62.4377 351.814 86.3763 378.209C100.571 393.73 119.015 426.87 119.509 469.94Z" fill="black"/>
</g>
<path d="M125.04 451.411H124.875C124.71 451.402 124.549 451.362 124.403 451.294C124.257 451.226 124.129 451.131 124.027 451.016C123.925 450.901 123.852 450.768 123.811 450.626C123.771 450.484 123.765 450.337 123.794 450.192C129.618 406.651 108.903 359.388 86.3568 340.583C86.1398 340.389 86.0181 340.126 86.0181 339.852C86.0181 339.578 86.1398 339.315 86.3568 339.121C86.4642 339.023 86.5924 338.946 86.734 338.893C86.8755 338.84 87.0274 338.813 87.181 338.813C87.3345 338.813 87.4864 338.84 87.628 338.893C87.7695 338.946 87.8977 339.023 88.0052 339.121C110.973 358.266 132.073 406.31 126.175 450.485C126.141 450.734 126.007 450.964 125.799 451.133C125.591 451.303 125.322 451.402 125.04 451.411Z" fill="white"/>
<path d="M77.3104 495.197C74.7462 496.562 67.2734 491.637 65.2037 490.451C61.6567 488.396 58.7673 485.563 56.8151 482.227C54.6251 478.443 53.8123 474.15 54.489 469.94C54.8642 467.742 55.4088 465.57 56.1191 463.438C56.7602 461.309 57.4012 459.18 57.9507 457.035C58.763 454.948 59.0749 452.734 58.8665 450.534C58.1522 446.194 53.7381 443.22 49.7086 440.668C45.2762 437.824 40.5508 434.07 40.5508 428.836C40.7767 424.724 42.5502 420.799 45.5876 417.687C48.335 414.436 51.6318 411.608 54.1044 408.211C56.0379 405.858 57.0248 402.996 56.9067 400.085C56.5883 398.291 55.8657 396.571 54.7821 395.03C52.6208 391.65 49.8185 388.529 48.2983 384.937C46.7781 381.345 46.888 376.73 50.1299 374.048C52.7124 371.854 56.6503 371.496 60.2219 371.643C63.5874 371.94 66.8384 372.889 69.746 374.422C79.2153 378.891 84.7832 388.643 94.8019 392.04C98.6666 393.34 102.879 393.568 106.89 394.445C110.901 395.323 115.041 397.062 116.964 400.296C120.755 406.716 114.143 414.81 116.854 421.62C119.272 427.666 126.012 429.876 129.822 435.289C131.368 437.692 132.009 440.471 131.653 443.22C131.438 447.861 130.265 452.428 128.192 456.694C125.807 461.117 123.115 465.405 120.133 469.533C120.133 469.533 77.6951 494.985 77.3104 495.197Z" fill="#BA68C8"/>
<path d="M102.075 481.723C101.921 481.721 101.769 481.692 101.627 481.638C101.486 481.583 101.358 481.505 101.251 481.407C101.144 481.309 101.06 481.193 101.003 481.066C100.946 480.939 100.918 480.803 100.921 480.667C101.946 439.514 79.125 394.527 62.9705 381.524C62.7409 381.341 62.6025 381.084 62.5853 380.81C62.5681 380.536 62.6737 380.267 62.8789 380.062C62.9864 379.964 63.1146 379.887 63.2561 379.834C63.3977 379.781 63.5496 379.754 63.7031 379.754C63.8567 379.754 64.0086 379.781 64.1501 379.834C64.2917 379.887 64.4199 379.964 64.5274 380.062C81.0115 393.226 104.291 438.994 103.247 480.715C103.244 480.85 103.212 480.983 103.152 481.106C103.092 481.229 103.005 481.341 102.896 481.435C102.787 481.528 102.658 481.602 102.518 481.651C102.377 481.701 102.226 481.725 102.075 481.723Z" fill="white"/>
<path d="M93.5188 431.583C93.4106 431.607 93.2974 431.607 93.1891 431.583C78.2069 427.747 59.6347 427.357 59.4516 427.341C59.2985 427.339 59.1474 427.31 59.0071 427.255C58.8667 427.201 58.74 427.122 58.6344 427.024C58.5287 426.926 58.4461 426.81 58.3914 426.683C58.3368 426.556 58.3111 426.421 58.316 426.285C58.3131 426.148 58.3424 426.011 58.402 425.885C58.4615 425.758 58.55 425.644 58.6619 425.549C58.7738 425.454 58.9067 425.381 59.0521 425.334C59.1975 425.287 59.3522 425.268 59.5065 425.277C59.6897 425.277 78.5549 425.683 93.8302 429.584C94.1254 429.663 94.3736 429.842 94.521 430.083C94.6684 430.323 94.7032 430.605 94.6178 430.868C94.5464 431.077 94.4008 431.259 94.2026 431.388C94.0045 431.517 93.7645 431.585 93.5188 431.583Z" fill="white"/>
<path d="M525.202 441.644L518.261 438.085C517.104 437.418 516.141 436.519 515.45 435.46C514.76 434.401 514.361 433.212 514.286 431.99V175.975C514.362 174.755 514.759 173.568 515.446 172.51C516.133 171.451 517.091 170.55 518.242 169.88L711.198 71.0305C712.427 70.4779 713.786 70.1899 715.164 70.1899C716.542 70.1899 717.9 70.4779 719.129 71.0305L726.071 74.5899C727.227 75.2563 728.19 76.1556 728.881 77.2148C729.572 78.2739 729.971 79.4628 730.045 80.6847V336.699C729.97 337.919 729.572 339.106 728.885 340.165C728.198 341.223 727.24 342.124 726.089 342.794L533.133 441.66C531.904 442.214 530.544 442.501 529.165 442.499C527.787 442.496 526.429 442.203 525.202 441.644Z" fill="#455A64"/>
<path d="M730.047 80.1159C729.772 78.2955 728.106 77.6292 726.109 78.6531L533.135 177.519C531.968 178.169 531.004 179.069 530.333 180.136L515.442 172.513C516.108 171.438 517.073 170.532 518.244 169.88L711.2 71.0305C712.429 70.4779 713.788 70.1899 715.166 70.1899C716.544 70.1899 717.902 70.4779 719.131 71.0305L726.073 74.5899C727.145 75.2024 728.055 76.0133 728.741 76.9671C729.427 77.9209 729.873 78.995 730.047 80.1159Z" fill="#455A64"/>
<path d="M532.457 441.936C531.285 442.358 530.024 442.551 528.76 442.504C527.497 442.456 526.259 442.168 525.131 441.66L518.171 438.084C517.02 437.414 516.062 436.514 515.375 435.455C514.688 434.397 514.29 433.21 514.215 431.99V175.975C514.262 174.753 514.659 173.561 515.369 172.513L530.259 180.136C529.536 181.185 529.132 182.384 529.087 183.614V439.629C529.16 441.644 530.589 442.57 532.457 441.936Z" fill="#263238"/>
<path d="M529.161 183.646V439.628C529.161 441.871 530.992 442.781 533.135 441.66L726.091 342.794C727.242 342.124 728.2 341.223 728.887 340.165C729.574 339.106 729.972 337.919 730.047 336.699V80.6846C730.047 78.4417 728.216 77.5315 726.091 78.653L533.135 177.519C531.974 178.189 531.008 179.093 530.317 180.158C529.626 181.223 529.23 182.419 529.161 183.646Z" fill="#37474F"/>
<path d="M484.102 281.163C481.611 279.847 470.054 274.012 469.45 273.703C468.979 273.454 468.577 273.114 468.274 272.708C467.971 272.303 467.774 271.842 467.699 271.36C467.623 270.878 467.67 270.387 467.837 269.923C468.004 269.46 468.286 269.035 468.662 268.681L514.287 225.254L529.159 232.827L483.553 276.288C483.195 276.626 482.922 277.029 482.754 277.468C482.586 277.908 482.526 278.374 482.578 278.836C482.63 279.298 482.793 279.745 483.056 280.146C483.319 280.548 483.676 280.895 484.102 281.163Z" fill="#455A64"/>
<path d="M529.159 232.876L483.553 276.288C483.046 276.767 482.716 277.372 482.604 278.022C482.493 278.672 482.607 279.337 482.93 279.929C483.254 280.52 483.772 281.011 484.416 281.336C485.06 281.661 485.8 281.805 486.538 281.749L529.159 278.628V232.876Z" fill="#37474F"/>
<path d="M629.603 154.716C652.095 143.193 670.319 152.539 670.319 175.585C670.319 198.632 652.095 226.635 629.603 238.158C607.111 249.682 588.887 240.336 588.887 217.306C588.887 194.276 607.111 166.24 629.603 154.716Z" fill="#BA68C8"/>
<path d="M629.309 172.855C636.636 169.116 642.515 172.139 642.515 179.616C642.265 183.68 640.94 187.634 638.645 191.159C636.351 194.683 633.152 197.677 629.309 199.899C621.983 203.637 616.085 200.614 616.085 193.138C616.337 189.073 617.666 185.117 619.963 181.593C622.261 178.068 625.463 175.075 629.309 172.855Z" fill="white"/>
<path d="M655.355 212.706C655.355 200.435 645.629 195.446 633.651 201.589L626.16 205.425C614.181 211.569 604.456 226.554 604.456 238.792V242.157C606.717 242.798 609.078 243.121 611.452 243.115C617.878 242.922 624.135 241.241 629.603 238.24C640.015 232.549 648.823 224.821 655.355 215.648V212.706Z" fill="white"/>
<path d="M603.815 352.237L655.392 325.81C657.59 324.689 659.367 325.599 659.367 327.842V342.583C659.292 343.805 658.893 344.994 658.202 346.053C657.512 347.112 656.549 348.011 655.392 348.678L603.815 375.105C601.617 376.226 599.841 375.316 599.841 373.073V358.332C599.916 357.11 600.315 355.921 601.005 354.862C601.696 353.803 602.659 352.903 603.815 352.237Z" fill="#BA68C8"/>
<path d="M578.557 319.309L680.594 267.007C683.213 265.658 685.356 266.747 685.356 269.445V274.922C685.267 276.388 684.789 277.814 683.962 279.085C683.134 280.356 681.98 281.435 680.594 282.236L578.503 334.538C575.883 335.887 573.759 334.798 573.759 332.1V326.671C573.842 325.194 574.321 323.756 575.156 322.476C575.99 321.195 577.156 320.11 578.557 319.309Z" fill="#FAFAFA"/>
<path d="M590.498 281.456C591.89 280.741 592.97 280.627 593.74 281.131C594.509 281.635 594.893 282.756 594.893 284.479C594.932 286.051 594.536 287.608 593.74 289.014C593.02 290.284 591.892 291.336 590.498 292.037L587.75 293.451V298.7C587.745 298.881 587.695 299.059 587.604 299.22C587.539 299.367 587.424 299.493 587.274 299.578L585.882 300.293C585.835 300.325 585.777 300.342 585.717 300.342C585.658 300.342 585.6 300.325 585.552 300.293C585.454 300.183 585.408 300.043 585.424 299.903V284.707C585.423 284.527 585.466 284.349 585.552 284.186C585.622 284.042 585.736 283.918 585.882 283.829L590.498 281.456ZM587.75 290.509L590.406 289.144C591.048 288.822 591.589 288.364 591.981 287.811C592.398 287.158 592.601 286.415 592.567 285.665C592.567 284.788 592.366 284.284 591.981 284.138C591.71 284.079 591.426 284.076 591.153 284.13C590.88 284.183 590.625 284.292 590.406 284.447L587.75 285.812V290.509Z" fill="#FAFAFA"/>
<path d="M602.57 275.264C602.753 275.166 602.9 275.166 602.991 275.264C603.109 275.409 603.19 275.576 603.229 275.751L607.46 288.461C607.46 288.461 607.46 288.558 607.46 288.607C607.457 288.788 607.407 288.966 607.314 289.127C607.249 289.274 607.134 289.399 606.984 289.485L605.739 290.119C605.519 290.232 605.354 290.249 605.262 290.119C605.174 290.037 605.11 289.936 605.079 289.826L604.328 287.599L598.834 290.395L598.101 293.385C598.049 293.547 597.982 293.705 597.9 293.857C597.809 294.055 597.639 294.217 597.423 294.312L596.178 294.946C596.132 294.98 596.073 294.999 596.013 294.999C595.953 294.999 595.894 294.98 595.848 294.946C595.752 294.841 595.706 294.707 595.72 294.572C595.71 294.513 595.71 294.452 595.72 294.393L599.933 277.36C599.983 277.11 600.063 276.865 600.171 276.629C600.26 276.458 600.407 276.316 600.592 276.223L602.57 275.264ZM603.522 285.113L601.691 279.376L599.859 287.047L603.522 285.113Z" fill="#FAFAFA"/>
<path d="M613.869 269.234C614.482 268.891 615.18 268.684 615.902 268.633C616.413 268.592 616.926 268.694 617.368 268.925C617.769 269.157 618.082 269.491 618.265 269.884C618.465 270.284 618.577 270.714 618.595 271.152C618.607 271.332 618.563 271.512 618.467 271.672C618.402 271.819 618.287 271.944 618.137 272.029L616.928 272.647C616.727 272.744 616.58 272.761 616.488 272.647C616.375 272.581 616.281 272.492 616.214 272.387C616.14 272.241 616.034 272.109 615.902 272C615.77 271.891 615.614 271.807 615.444 271.753C614.887 271.682 614.32 271.811 613.869 272.111C613.572 272.281 613.291 272.471 613.027 272.679C612.755 272.902 612.515 273.153 612.312 273.427C612.118 273.692 611.958 273.975 611.836 274.272C611.728 274.555 611.673 274.851 611.671 275.15C611.65 275.423 611.706 275.697 611.836 275.946C611.893 276.034 611.972 276.107 612.068 276.161C612.164 276.215 612.273 276.247 612.386 276.255C612.725 276.307 613.072 276.307 613.411 276.255L615.005 275.946C615.599 275.79 616.218 275.724 616.836 275.751C617.278 275.75 617.709 275.876 618.064 276.109C618.399 276.359 618.642 276.693 618.76 277.068C618.939 277.594 619.02 278.143 618.998 278.693C618.996 279.419 618.879 280.141 618.65 280.838C618.426 281.555 618.1 282.243 617.679 282.886C617.235 283.545 616.707 284.156 616.104 284.707C615.488 285.273 614.785 285.76 614.016 286.153C613.452 286.458 612.832 286.672 612.184 286.787C611.657 286.877 611.113 286.838 610.609 286.673C610.151 286.484 609.773 286.171 609.529 285.779C609.229 285.278 609.066 284.721 609.052 284.154C609.05 283.969 609.094 283.786 609.181 283.618C609.262 283.479 609.381 283.362 609.529 283.276L610.737 282.659C610.92 282.561 611.067 282.529 611.177 282.577C611.287 282.626 611.36 282.707 611.433 282.854C611.509 283.021 611.607 283.179 611.726 283.325C611.84 283.467 612 283.574 612.184 283.634C612.425 283.683 612.676 283.683 612.917 283.634C613.306 283.553 613.677 283.415 614.016 283.228C614.371 283.048 614.708 282.841 615.023 282.61C615.639 282.177 616.129 281.62 616.452 280.985C616.599 280.659 616.673 280.311 616.672 279.961C616.689 279.833 616.677 279.704 616.636 279.581C616.595 279.458 616.526 279.344 616.434 279.246C616.334 279.168 616.218 279.111 616.091 279.077C615.965 279.043 615.832 279.034 615.701 279.051C615.285 279.066 614.873 279.126 614.474 279.229C613.998 279.327 613.448 279.441 612.807 279.538C612.316 279.647 611.808 279.68 611.305 279.636C610.909 279.613 610.534 279.469 610.243 279.229C609.926 278.954 609.704 278.605 609.602 278.222C609.454 277.657 609.387 277.078 609.4 276.499C609.399 275.783 609.516 275.071 609.748 274.386C609.967 273.681 610.287 273.003 610.701 272.371C611.097 271.742 611.576 271.159 612.129 270.632C612.632 270.095 613.218 269.624 613.869 269.234Z" fill="#FAFAFA"/>
<path d="M625.901 263.09C626.51 262.736 627.209 262.524 627.934 262.473C628.445 262.434 628.957 262.536 629.399 262.765C629.791 263.003 630.096 263.336 630.279 263.724C630.479 264.124 630.591 264.554 630.608 264.992C630.63 265.173 630.585 265.355 630.48 265.512C630.416 265.659 630.3 265.784 630.15 265.869L628.942 266.487C628.758 266.585 628.612 266.617 628.502 266.487C628.385 266.422 628.295 266.325 628.246 266.211C628.078 265.926 627.798 265.705 627.458 265.593C627.185 265.558 626.906 265.571 626.639 265.632C626.371 265.694 626.121 265.802 625.901 265.951C625.595 266.116 625.307 266.307 625.04 266.52C624.774 266.742 624.54 266.993 624.344 267.267C624.142 267.528 623.982 267.812 623.868 268.112C623.754 268.394 623.692 268.691 623.685 268.99C623.663 269.263 623.72 269.537 623.85 269.786C623.906 269.874 623.986 269.947 624.081 270.001C624.177 270.055 624.286 270.087 624.399 270.095C624.739 270.148 625.086 270.148 625.425 270.095L627.018 269.786C627.614 269.639 628.232 269.573 628.85 269.591C629.292 269.588 629.723 269.713 630.077 269.949C630.412 270.203 630.66 270.535 630.791 270.908C630.953 271.437 631.027 271.985 631.011 272.533C631.01 273.259 630.893 273.981 630.663 274.678C630.44 275.395 630.113 276.083 629.692 276.726C629.251 277.392 628.722 278.008 628.117 278.563C627.499 279.116 626.803 279.597 626.048 279.993C625.483 280.297 624.863 280.511 624.216 280.627C623.695 280.716 623.157 280.676 622.659 280.513C622.192 280.33 621.806 280.016 621.56 279.619C621.259 279.119 621.102 278.561 621.102 277.994C621.081 277.813 621.126 277.631 621.231 277.474C621.295 277.327 621.411 277.202 621.56 277.116L622.769 276.499C622.952 276.401 623.117 276.369 623.209 276.418C623.272 276.443 623.329 276.481 623.373 276.529C623.418 276.577 623.449 276.633 623.465 276.694C623.548 276.858 623.646 277.015 623.758 277.165C623.879 277.308 624.045 277.415 624.234 277.474C624.475 277.523 624.726 277.523 624.967 277.474C625.356 277.393 625.727 277.255 626.066 277.068C626.412 276.884 626.743 276.677 627.055 276.45C627.377 276.227 627.66 275.964 627.898 275.67C628.135 275.389 628.331 275.083 628.484 274.76C628.63 274.434 628.705 274.086 628.703 273.736C628.721 273.608 628.708 273.479 628.667 273.356C628.627 273.233 628.558 273.119 628.465 273.021C628.366 272.943 628.25 272.886 628.123 272.852C627.997 272.818 627.863 272.809 627.733 272.826C627.324 272.848 626.919 272.908 626.524 273.004C626.048 273.102 625.48 273.216 624.857 273.313C624.36 273.422 623.846 273.455 623.337 273.411C622.94 273.392 622.563 273.248 622.275 273.004C621.964 272.728 621.748 272.378 621.652 271.997C621.489 271.44 621.415 270.865 621.432 270.29C621.439 269.57 621.556 268.853 621.78 268.161C622.007 267.458 622.326 266.782 622.733 266.146C623.129 265.513 623.615 264.929 624.18 264.407C624.673 263.891 625.254 263.447 625.901 263.09Z" fill="#FAFAFA"/>
<path d="M639.256 265.122L637.772 272.907C637.728 273.141 637.655 273.37 637.553 273.59C637.481 273.765 637.346 273.914 637.168 274.012L635.776 274.727C635.593 274.825 635.465 274.825 635.373 274.727C635.25 274.594 635.179 274.428 635.172 274.256L632.974 260.522C632.974 260.522 632.974 260.392 632.974 260.343C632.979 260.163 633.029 259.985 633.12 259.823C633.19 259.679 633.304 259.555 633.45 259.466L634.714 258.816C634.819 258.778 634.938 258.778 635.043 258.816C635.153 258.816 635.226 258.946 635.263 259.206L636.71 268.454L637.974 261.514C638.007 261.341 638.062 261.172 638.139 261.01C638.211 260.804 638.368 260.63 638.578 260.522L639.989 259.791C640.19 259.693 640.337 259.71 640.428 259.791C640.507 259.894 640.563 260.01 640.593 260.132L641.875 265.772L643.322 255.045C643.339 254.834 643.408 254.629 643.524 254.444C643.609 254.322 643.721 254.217 643.853 254.135L645.117 253.485C645.165 253.453 645.222 253.436 645.282 253.436C645.341 253.436 645.399 253.453 645.447 253.485C645.499 253.538 645.539 253.6 645.564 253.667C645.589 253.734 645.599 253.804 645.593 253.875C645.6 253.94 645.6 254.005 645.593 254.07L643.395 270.046C643.359 270.28 643.291 270.509 643.194 270.729C643.11 270.903 642.97 271.05 642.791 271.152L641.381 271.867C641.216 271.948 641.088 271.948 640.996 271.867C640.903 271.717 640.829 271.559 640.776 271.395L639.256 265.122Z" fill="#FAFAFA"/>
<path d="M647.827 258.231C647.868 257.329 647.991 256.433 648.194 255.549C648.403 254.685 648.723 253.846 649.146 253.046C649.55 252.269 650.067 251.542 650.685 250.884C651.311 250.232 652.061 249.682 652.901 249.259C653.546 248.871 654.301 248.651 655.081 248.625C655.662 248.631 656.22 248.834 656.637 249.194C657.081 249.637 657.401 250.165 657.571 250.738C657.808 251.485 657.937 252.255 657.956 253.03C657.956 253.322 657.956 253.647 657.956 254.005C657.956 254.362 657.956 254.736 657.956 255.126C657.956 255.516 657.956 255.89 657.956 256.248C657.956 256.605 657.956 256.947 657.956 257.255C657.916 258.151 657.794 259.043 657.59 259.921C657.378 260.782 657.065 261.621 656.656 262.424C656.239 263.199 655.716 263.925 655.099 264.586C654.473 265.232 653.73 265.781 652.901 266.211C652.241 266.597 651.475 266.816 650.685 266.845C650.4 266.85 650.116 266.804 649.852 266.709C649.587 266.614 649.347 266.472 649.146 266.292C648.669 265.837 648.339 265.275 648.194 264.667C647.976 263.917 647.853 263.149 647.827 262.375C647.827 262.083 647.827 261.758 647.827 261.4C647.827 261.042 647.827 260.669 647.827 260.279C647.827 259.888 647.827 259.531 647.827 259.157C647.827 258.783 647.809 258.523 647.827 258.231ZM655.63 254.346C655.671 253.949 655.62 253.548 655.482 253.168C655.343 252.788 655.12 252.437 654.824 252.136C654.348 251.762 653.689 251.778 652.901 252.136C652.046 252.582 651.368 253.252 650.96 254.054C650.44 255.001 650.165 256.039 650.154 257.093C650.154 257.694 650.154 258.361 650.154 259.092C650.154 259.823 650.154 260.474 650.154 261.059C650.113 261.456 650.163 261.857 650.302 262.237C650.44 262.617 650.664 262.968 650.96 263.269C651.436 263.627 652.095 263.594 652.901 263.188C653.742 262.739 654.412 262.076 654.824 261.286C655.344 260.345 655.619 259.312 655.63 258.263C655.63 257.646 655.63 256.979 655.63 256.248C655.63 255.516 655.648 254.931 655.63 254.346Z" fill="#FAFAFA"/>
<path d="M665.942 242.774C667.389 242.043 668.469 241.929 669.22 242.466C669.665 242.901 669.996 243.418 670.189 243.98C670.382 244.542 670.433 245.135 670.338 245.716C670.353 246.82 670.161 247.919 669.77 248.967C669.398 249.943 668.82 250.848 668.066 251.632L670.447 256.232C670.455 256.307 670.455 256.384 670.447 256.459C670.448 256.606 670.411 256.75 670.338 256.882C670.287 257 670.198 257.102 670.081 257.174L668.616 257.922C668.378 258.036 668.213 258.052 668.103 257.922C668.006 257.837 667.926 257.738 667.865 257.629L665.612 253.29L663.323 254.46V259.954C663.324 260.133 663.28 260.311 663.194 260.474C663.119 260.615 663.006 260.738 662.865 260.831L661.473 261.546C661.427 261.581 661.368 261.6 661.308 261.6C661.248 261.6 661.189 261.581 661.143 261.546C661.091 261.497 661.05 261.438 661.025 261.373C661 261.309 660.99 261.24 660.997 261.173V245.976C661.002 245.795 661.052 245.618 661.143 245.456C661.208 245.309 661.323 245.184 661.473 245.098L665.942 242.774ZM663.359 251.518L665.942 250.283C666.573 249.97 667.112 249.531 667.517 248.999C667.941 248.373 668.145 247.649 668.103 246.919C668.103 246.041 667.902 245.554 667.517 245.456C666.959 245.389 666.394 245.517 665.942 245.814L663.451 247.081L663.359 251.518Z" fill="#FAFAFA"/>
<path d="M678.211 236.517C678.876 236.132 679.637 235.898 680.427 235.834C681 235.816 681.559 235.996 681.984 236.338C682.469 236.791 682.805 237.353 682.955 237.963C683.201 238.769 683.336 239.599 683.358 240.434C683.358 241.572 683.358 242.742 683.358 243.928C683.32 244.896 683.185 245.859 682.955 246.805C682.745 247.684 682.426 248.54 682.002 249.357C681.593 250.106 681.076 250.806 680.464 251.437C679.852 252.083 679.121 252.633 678.303 253.062L673.962 255.159C673.916 255.193 673.857 255.212 673.797 255.212C673.737 255.212 673.678 255.193 673.632 255.159C673.579 255.11 673.538 255.051 673.512 254.986C673.487 254.922 673.478 254.853 673.485 254.785V239.589C673.491 239.408 673.541 239.23 673.632 239.069C673.697 238.922 673.812 238.796 673.962 238.711L678.211 236.517ZM681.032 241.572C681.023 241.131 680.95 240.694 680.812 240.271C680.727 239.951 680.543 239.659 680.281 239.426C680.166 239.324 680.028 239.244 679.877 239.191C679.726 239.138 679.564 239.113 679.401 239.117C678.943 239.145 678.5 239.279 678.119 239.507L675.812 240.678V251.275L678.211 250.056C678.675 249.816 679.09 249.508 679.438 249.145C679.779 248.789 680.068 248.396 680.299 247.975C680.527 247.527 680.699 247.059 680.812 246.577C680.939 246.076 681.013 245.564 681.032 245.05C681.087 243.863 681.087 242.709 681.032 241.572Z" fill="#FAFAFA"/>
<path d="M426.701 0.622945C429.862 1.24718 432.909 2.26493 435.749 3.64597C438.469 4.94341 440.906 6.66054 442.947 8.71686C444.9 10.6949 446.349 13.0232 447.196 15.543C448.061 18.2404 448.124 21.0903 447.379 23.8157C446.888 25.9766 445.924 28.0308 444.54 29.8618C443.278 31.4276 441.773 32.8281 440.071 34.0225C438.4 35.1741 436.616 36.1912 434.742 37.0618L429.467 39.5485C427.878 40.2839 426.369 41.149 424.961 42.1327C423.687 42.9999 422.71 44.1649 422.14 45.497C421.861 46.1056 421.399 46.6342 420.803 47.0248C420.522 47.219 420.194 47.3536 419.845 47.4184C419.496 47.4832 419.134 47.4764 418.789 47.3986L411.023 45.8708C410.649 45.8013 410.294 45.6662 409.98 45.4737C409.665 45.2811 409.397 45.0349 409.191 44.7494C408.972 44.4839 408.826 44.1764 408.766 43.8517C408.705 43.527 408.732 43.1942 408.843 42.8803C409.468 40.7461 410.571 38.7453 412.085 36.9968C413.467 35.4501 415.067 34.0681 416.847 32.8848C418.581 31.7583 420.419 30.7634 422.342 29.9106C424.173 29.0817 426.005 28.2853 427.598 27.4889C429.081 26.7819 430.474 25.9374 431.756 24.9697C432.881 24.1343 433.66 22.9908 433.972 21.7191C434.264 20.6149 434.249 19.4645 433.93 18.3663C433.611 17.268 432.997 16.2547 432.141 15.413C429.999 13.338 427.136 11.9591 424.009 11.4961C418.221 10.3584 413.337 12.0866 409.356 16.6807C408.972 17.1822 408.488 17.6173 407.927 17.9647C407.295 18.2428 406.565 18.2895 405.894 18.0947L397.634 16.4695C397.045 16.3684 396.525 16.0646 396.187 15.6243C396.007 15.3891 395.886 15.1222 395.832 14.8417C395.778 14.5613 395.793 14.2739 395.876 13.999C396.578 11.7406 397.885 9.66632 399.685 7.95298C401.716 5.96599 404.128 4.31504 406.81 3.07713C409.742 1.71578 412.903 0.782819 416.169 0.314143C419.669 -0.191012 423.246 -0.0861244 426.701 0.622945ZM417.928 52.9246C418.654 53.0759 419.285 53.4736 419.686 54.0324C420.086 54.5913 420.224 55.267 420.071 55.9151L418.093 63.879C418.026 64.2124 417.88 64.5296 417.665 64.8097C417.451 65.0897 417.172 65.3264 416.847 65.5043C416.541 65.6918 416.193 65.8205 415.827 65.8821C415.461 65.9437 415.085 65.9368 414.722 65.8618L405.858 64.0578C405.481 64.0014 405.122 63.8734 404.806 63.6827C404.49 63.4919 404.224 63.2429 404.026 62.9526C403.821 62.6781 403.681 62.3693 403.615 62.0451C403.549 61.7209 403.558 61.3882 403.641 61.0672L405.638 53.1034C405.809 52.4578 406.256 51.8965 406.885 51.5385C407.514 51.1805 408.276 51.0539 409.008 51.1855L417.928 52.9246Z" fill="#BA68C8"/>
<path d="M436.481 76.8649C438.686 76.5509 440.931 76.5126 443.148 76.7511C445.266 76.9745 447.324 77.5246 449.229 78.3764C451.043 79.2115 452.64 80.3741 453.918 81.7895C455.066 83.1747 455.875 84.7583 456.291 86.4379C456.708 88.1176 456.723 89.8561 456.335 91.5412C455.986 92.8368 455.425 94.0798 454.669 95.2306C453.94 96.3499 453.093 97.4056 452.141 98.3836C451.207 99.3588 450.309 100.285 449.485 101.179C448.678 102.012 447.961 102.91 447.342 103.861C446.762 104.694 446.469 105.661 446.5 106.64C446.484 107.098 446.339 107.545 446.078 107.94C445.946 108.123 445.771 108.278 445.566 108.395C445.361 108.513 445.13 108.591 444.888 108.623L439.393 109.403C439.136 109.444 438.873 109.44 438.618 109.39C438.363 109.339 438.123 109.244 437.91 109.111C437.693 108.99 437.512 108.825 437.382 108.63C437.251 108.435 437.175 108.215 437.159 107.989C436.928 106.477 437.053 104.938 437.525 103.471C437.956 102.172 438.571 100.926 439.357 99.7651C440.127 98.6508 441.01 97.6008 441.994 96.6283C442.965 95.6532 443.826 94.743 444.668 93.8654C445.42 93.0816 446.072 92.2257 446.61 91.3137C447.086 90.5286 447.26 89.6266 447.104 88.7457C446.966 87.9703 446.62 87.2359 446.094 86.6049C445.567 85.9739 444.877 85.465 444.082 85.1213C442.113 84.2773 439.884 84.0372 437.745 84.4387C435.808 84.6901 434.006 85.4669 432.586 86.6629C431.166 87.8588 430.198 89.4152 429.814 91.1186C429.707 91.5284 429.521 91.9187 429.265 92.2726C428.938 92.5811 428.495 92.772 428.019 92.8089L422.231 93.6378C421.825 93.7069 421.403 93.631 421.059 93.4265C420.883 93.319 420.734 93.1793 420.624 93.0167C420.513 92.8541 420.443 92.6724 420.418 92.4839C420.246 90.8711 420.529 89.2456 421.242 87.7543C421.967 86.0189 423.033 84.4119 424.393 83.0085C425.882 81.4717 427.638 80.155 429.594 79.1078C431.705 77.972 434.044 77.2103 436.481 76.8649ZM445.932 112.377C446.184 112.342 446.442 112.351 446.69 112.404C446.938 112.457 447.172 112.553 447.379 112.686C447.595 112.812 447.778 112.977 447.917 113.17C448.056 113.364 448.147 113.581 448.185 113.808L449.211 119.382C449.29 119.835 449.165 120.296 448.864 120.667C448.562 121.039 448.107 121.289 447.599 121.365L441.463 122.259C440.954 122.329 440.434 122.218 440.016 121.95C439.804 121.823 439.624 121.657 439.488 121.464C439.352 121.271 439.264 121.054 439.228 120.829L438.203 115.254C438.156 115.03 438.163 114.8 438.223 114.579C438.283 114.358 438.395 114.151 438.551 113.97C438.694 113.782 438.881 113.622 439.099 113.502C439.317 113.381 439.56 113.303 439.815 113.271L445.932 112.377Z" fill="#BA68C8"/>
<g opacity="0.2">
<path d="M436.481 76.8649C438.686 76.5509 440.93 76.5126 443.147 76.7511C445.266 76.9745 447.323 77.5246 449.228 78.3764C451.042 79.2115 452.64 80.3741 453.917 81.7895C455.066 83.1747 455.874 84.7583 456.291 86.4379C456.707 88.1176 456.722 89.8561 456.335 91.5412C455.986 92.8368 455.424 94.0798 454.668 95.2306C453.939 96.3499 453.093 97.4056 452.14 98.3836C451.206 99.3588 450.309 100.285 449.485 101.179C448.678 102.012 447.961 102.91 447.342 103.861C446.761 104.694 446.469 105.661 446.499 106.64C446.483 107.098 446.338 107.545 446.078 107.94C445.946 108.123 445.771 108.278 445.566 108.395C445.36 108.513 445.129 108.591 444.887 108.623L439.393 109.403C439.136 109.444 438.872 109.44 438.618 109.39C438.363 109.339 438.122 109.244 437.909 109.111C437.693 108.99 437.512 108.825 437.381 108.63C437.251 108.435 437.174 108.215 437.158 107.989C436.928 106.477 437.053 104.938 437.525 103.471C437.955 102.172 438.571 100.926 439.356 99.7651C440.126 98.6508 441.009 97.6008 441.994 96.6283C442.964 95.6532 443.825 94.743 444.668 93.8654C445.42 93.0816 446.071 92.2257 446.609 91.3137C447.086 90.5286 447.26 89.6266 447.104 88.7457C446.966 87.9703 446.619 87.2359 446.093 86.6049C445.567 85.9739 444.877 85.465 444.082 85.1213C442.113 84.2773 439.884 84.0372 437.744 84.4387C435.807 84.6901 434.005 85.4669 432.585 86.6629C431.166 87.8588 430.197 89.4152 429.814 91.1186C429.706 91.5284 429.52 91.9187 429.264 92.2726C428.937 92.5811 428.494 92.772 428.019 92.8089L422.231 93.6378C421.824 93.7069 421.403 93.631 421.059 93.4265C420.882 93.319 420.734 93.1793 420.623 93.0167C420.513 92.8541 420.443 92.6724 420.418 92.4839C420.245 90.8711 420.529 89.2456 421.242 87.7543C421.966 86.0189 423.033 84.4119 424.392 83.0085C425.882 81.4717 427.638 80.155 429.594 79.1078C431.704 77.972 434.043 77.2103 436.481 76.8649ZM445.931 112.377C446.184 112.342 446.441 112.351 446.69 112.404C446.938 112.457 447.172 112.553 447.378 112.686C447.594 112.812 447.778 112.977 447.917 113.17C448.055 113.364 448.147 113.581 448.184 113.808L449.21 119.382C449.289 119.835 449.165 120.296 448.863 120.667C448.561 121.039 448.107 121.289 447.598 121.365L441.462 122.259C440.953 122.329 440.433 122.218 440.015 121.95C439.803 121.823 439.623 121.657 439.487 121.464C439.352 121.271 439.263 121.054 439.228 120.829L438.202 115.254C438.156 115.03 438.163 114.8 438.223 114.579C438.283 114.358 438.394 114.151 438.55 113.97C438.694 113.782 438.881 113.622 439.098 113.502C439.316 113.381 439.56 113.303 439.814 113.271L445.931 112.377Z" fill="black"/>
</g>
<path d="M488.28 85.6253C488.529 85.7794 488.741 85.977 488.902 86.2062C489.062 86.4353 489.168 86.6912 489.214 86.958C489.272 87.2225 489.268 87.4947 489.202 87.7577C489.136 88.0206 489.009 88.2685 488.829 88.4858L484.47 93.9305C484.296 94.1521 484.074 94.3399 483.815 94.4824C483.557 94.625 483.269 94.7192 482.968 94.7594C482.67 94.8111 482.363 94.8075 482.067 94.7488C481.771 94.69 481.491 94.5774 481.246 94.4181L475.239 90.6312C474.989 90.4792 474.778 90.2818 474.62 90.052C474.462 89.8223 474.361 89.5654 474.323 89.2984C474.265 89.034 474.269 88.7618 474.335 88.4988C474.401 88.2359 474.528 87.988 474.708 87.7707L479.122 82.326C479.479 81.8847 480.017 81.586 480.621 81.4947C481.224 81.4035 481.844 81.5269 482.345 81.8384L488.28 85.6253ZM513.629 48.7476C515.819 50.1099 517.77 51.7531 519.416 53.6235C521.023 55.3633 522.263 57.3452 523.08 59.4745C523.84 61.515 524.096 63.6769 523.83 65.8131C523.52 68.0911 522.548 70.2585 521.01 72.103C519.867 73.5943 518.397 74.8657 516.687 75.8411C515.183 76.6781 513.547 77.3134 511.834 77.7264C510.164 78.1136 508.461 78.3746 506.742 78.5066L501.87 78.8966C500.409 79.0002 498.962 79.2233 497.547 79.563C496.242 79.8259 495.048 80.4121 494.104 81.2533C493.678 81.6377 493.138 81.908 492.547 82.0334C492.266 82.105 491.97 82.1158 491.683 82.0649C491.396 82.014 491.127 81.9029 490.899 81.7409L485.587 78.3928C485.08 78.0711 484.732 77.5878 484.617 77.0438C484.548 76.7802 484.551 76.506 484.624 76.2434C484.697 75.9808 484.839 75.7372 485.038 75.5323C486.279 74.1036 487.829 72.9099 489.598 72.0217C491.191 71.2498 492.891 70.6653 494.654 70.2826C496.355 69.9163 498.089 69.6825 499.837 69.5838C501.559 69.4862 503.17 69.3725 504.672 69.2425C506.047 69.1347 507.404 68.895 508.72 68.5273C509.871 68.1872 510.863 67.5185 511.541 66.6257C512.153 65.8719 512.551 64.9979 512.701 64.0783C512.851 63.1586 512.748 62.2205 512.401 61.3436C511.535 59.1774 509.878 57.3298 507.694 56.0939C503.738 53.591 499.422 53.5097 494.745 55.8501C494.274 56.116 493.753 56.3032 493.207 56.4027C492.922 56.4203 492.636 56.3877 492.366 56.3068C492.096 56.2259 491.846 56.0983 491.631 55.9314L485.99 52.372C485.786 52.2517 485.611 52.0962 485.476 51.9147C485.34 51.7332 485.248 51.5295 485.203 51.3156C485.159 51.0944 485.167 50.8676 485.227 50.6494C485.287 50.4312 485.397 50.2264 485.551 50.0479C486.882 48.5346 488.611 47.3346 490.587 46.5535C492.832 45.651 495.237 45.1011 497.694 44.9282C500.397 44.7277 503.119 44.9199 505.753 45.4971C508.596 46.1049 511.273 47.21 513.629 48.7476Z" fill="#BA68C8"/>
<g opacity="0.6">
<path d="M488.281 85.6253C488.53 85.7794 488.742 85.977 488.903 86.2062C489.063 86.4353 489.169 86.6912 489.215 86.958C489.273 87.2225 489.269 87.4947 489.203 87.7577C489.137 88.0206 489.01 88.2685 488.83 88.4858L484.471 93.9305C484.297 94.1521 484.075 94.3399 483.816 94.4824C483.558 94.625 483.27 94.7192 482.969 94.7594C482.671 94.8111 482.364 94.8075 482.068 94.7488C481.772 94.69 481.492 94.5774 481.247 94.4181L475.24 90.6312C474.99 90.4792 474.779 90.2818 474.621 90.052C474.463 89.8223 474.362 89.5654 474.324 89.2984C474.266 89.034 474.27 88.7618 474.336 88.4988C474.402 88.2359 474.529 87.988 474.709 87.7707L479.123 82.326C479.48 81.8847 480.018 81.586 480.622 81.4947C481.225 81.4035 481.845 81.5269 482.346 81.8384L488.281 85.6253ZM513.63 48.7476C515.82 50.1099 517.771 51.7531 519.417 53.6235C521.024 55.3633 522.264 57.3452 523.081 59.4745C523.841 61.515 524.097 63.6769 523.831 65.8131C523.521 68.0911 522.549 70.2585 521.011 72.103C519.868 73.5943 518.398 74.8657 516.688 75.8411C515.184 76.6781 513.548 77.3134 511.835 77.7264C510.165 78.1136 508.462 78.3746 506.743 78.5066L501.871 78.8966C500.41 79.0002 498.963 79.2233 497.548 79.563C496.243 79.8259 495.049 80.4121 494.105 81.2533C493.679 81.6377 493.139 81.908 492.548 82.0334C492.267 82.105 491.971 82.1158 491.684 82.0649C491.397 82.014 491.128 81.9029 490.9 81.7409L485.588 78.3928C485.081 78.0711 484.733 77.5878 484.617 77.0438C484.549 76.7802 484.552 76.506 484.625 76.2434C484.698 75.9808 484.84 75.7372 485.039 75.5323C486.28 74.1036 487.83 72.9099 489.599 72.0217C491.192 71.2498 492.892 70.6653 494.655 70.2826C496.356 69.9163 498.09 69.6825 499.838 69.5838C501.56 69.4862 503.171 69.3725 504.673 69.2425C506.048 69.1347 507.405 68.895 508.721 68.5273C509.872 68.1872 510.864 67.5185 511.542 66.6257C512.154 65.8719 512.552 64.9979 512.702 64.0783C512.852 63.1586 512.749 62.2205 512.402 61.3436C511.536 59.1774 509.879 57.3298 507.695 56.0939C503.739 53.591 499.423 53.5097 494.746 55.8501C494.275 56.116 493.754 56.3032 493.208 56.4027C492.923 56.4203 492.637 56.3877 492.367 56.3068C492.097 56.2259 491.847 56.0983 491.632 55.9314L485.991 52.372C485.787 52.2517 485.612 52.0962 485.477 51.9147C485.341 51.7332 485.249 51.5295 485.204 51.3156C485.16 51.0944 485.168 50.8676 485.228 50.6494C485.288 50.4312 485.398 50.2264 485.552 50.0479C486.883 48.5346 488.612 47.3346 490.588 46.5535C492.833 45.651 495.238 45.1011 497.695 44.9282C500.398 44.7277 503.12 44.9199 505.754 45.4971C508.597 46.1049 511.274 47.21 513.63 48.7476Z" fill="white"/>
</g>
<path d="M351.882 229.495H286.807V89.5909C286.807 77.4395 292.246 65.7859 301.929 57.1936C311.612 48.6013 324.745 43.7742 338.439 43.7742H344.446C358.14 43.7742 371.273 48.6013 380.956 57.1936C390.638 65.7859 396.078 77.4395 396.078 89.5909V190.358C396.054 200.746 391.387 210.7 383.101 218.037C374.816 225.375 363.588 229.495 351.882 229.495Z" fill="#263238"/>
<path d="M280.467 566.303C279.316 572.099 278.703 577.97 278.635 583.856C278.397 594.518 276.199 598.305 275.906 607.049C275.558 617.044 277.518 620.782 282.079 626.406C286.639 632.029 298.563 637.116 303.728 627.625C308.893 618.133 308.142 611.908 306.512 602.108C304.845 591.966 304.68 586.359 303.655 578.639C302.812 571.829 301.823 566.644 301.823 566.644L280.467 566.303Z" fill="#263238"/>
<path d="M314.571 495.489L275.009 494.855C275.595 518.292 279.789 544.313 280.504 566.368C280.65 570.512 280.394 598.532 282.152 607C284.808 619.807 301.915 618.068 302.83 610.413C303.746 602.758 301.731 570.041 301.786 566.66C301.622 552.553 309.113 528.742 312.977 503.421C313.142 502.202 314.388 496.708 314.571 495.489Z" fill="#FFA8A7"/>
<path d="M365.398 548.067C365.398 548.067 363.841 547.32 363.567 548.799C363.182 550.554 362.596 554.178 361.735 557.071C360.599 561.086 359.647 567.701 360.325 570.984C361.002 574.267 369.611 578.46 375.197 579.988C382.082 581.873 388.361 585.188 393.513 589.658C399.007 594.274 410.968 598.63 419.155 598.581C428.771 598.581 435.474 595.737 438.643 591.17C441.811 586.603 435.749 586.05 424.759 579.793L416.243 574.917C398.824 564.824 392.432 559.428 387.542 549.335L365.398 548.067Z" fill="#263238"/>
<path d="M387.69 541.81C387.397 534.561 393.038 472.947 393.038 472.947L355.473 488.143C363.513 530.758 365.235 540.818 365.363 547.791C365.198 548.375 365.131 548.977 365.162 549.579C365.162 557.851 375.73 562.321 383.935 567.847C390.911 572.696 398.344 577.002 406.152 580.719C412.123 583.368 424.248 583.612 425.75 580.215C415.75 573.438 401.207 563.296 393.258 555.56C389.375 551.919 387.983 549.075 387.69 541.81Z" fill="#FFA8A7"/>
<path d="M291.221 266.796C276.788 294.897 276.788 316.643 279.187 352.513C281.312 385.425 284.847 414.436 284.847 414.436C284.297 420.271 275.158 431.664 273.967 457.474C272.868 481.593 275.799 512.262 275.799 512.262C275.799 512.262 296.331 522.355 311.515 512.165C311.515 512.165 326.167 450.095 330.453 419.897C334.116 393.551 340.71 359.892 340.71 359.892L354.575 419.719C351.582 428.207 349.413 436.907 348.091 445.723C346.15 463.487 357.359 498.366 357.359 498.366C357.359 498.366 378.568 503.973 391.518 493.783C391.518 493.783 396.353 437.077 398.166 415.688C400.584 387.034 395.492 309.476 391.518 268.405L291.221 266.796Z" fill="#455A64"/>
<path d="M340.745 359.843L346.441 314.758C346.441 314.758 371.973 311.735 383.549 302.081C380.236 306.68 375.822 310.576 370.621 313.492C365.421 316.408 359.56 318.271 353.456 318.951L345.214 360.9L354.573 419.719L340.745 359.843Z" fill="#263238"/>
<path d="M444.137 255.711C445.192 247.484 445.657 239.205 445.529 230.925C444.961 223.774 443.514 222.604 432.25 209.943C417.048 192.829 404.062 177.437 390.326 162.143C380.508 151.222 370.178 149.548 360.141 150.035C353.108 150.376 366.845 180.395 373.75 198.16L413.184 235.834C414.405 237.321 414.966 239.155 414.759 240.986L412.378 273.037L424.191 287.079C424.191 287.079 442.086 273.394 444.137 255.711Z" fill="#FFA8A7"/>
<path d="M322.118 151.01C314.48 151.482 300.597 152.636 300.597 152.636C292.593 156.601 290.56 159.868 289.076 169.295C288.435 173.326 292.135 184.036 295.304 199.265L301.311 227.496L300.652 241.506C297.538 250.055 290.487 260.668 284.259 276.32C314.847 291.467 340.489 292.036 363.749 289.322C381.479 287.29 390.875 283.487 394.007 279.717C393.348 264.26 392.175 254.703 391.809 238.548C391.681 231.771 392.139 224.912 392.45 217.111C404.337 208.432 404.484 193.999 397.945 184.605C382.871 162.94 368.2 149.304 358.493 150.003L322.118 151.01Z" fill="#BA68C8"/>
<path opacity="0.6" d="M322.118 151.01C314.48 151.482 300.597 152.636 300.597 152.636C292.593 156.601 290.56 159.868 289.076 169.295C288.435 173.326 292.135 184.036 295.304 199.265L301.311 227.496L300.652 241.506C297.538 250.055 290.487 260.668 284.259 276.32C314.847 291.467 340.489 292.036 363.749 289.322C381.479 287.29 390.875 283.487 394.007 279.717C393.348 264.26 392.175 254.703 391.809 238.548C391.681 231.771 392.139 224.912 392.45 217.111C404.337 208.432 404.484 193.999 397.945 184.605C382.871 162.94 368.2 149.304 358.493 150.003L322.118 151.01Z" fill="white"/>
<path opacity="0.1" d="M368.768 217.322C368.768 217.322 354.812 226.944 338.859 221.922C334.379 220.669 330.339 218.412 327.131 215.368C323.922 212.324 321.653 208.597 320.543 204.547C320.543 204.547 318.858 220.719 338.95 226.229C358.42 231.543 368.768 217.322 368.768 217.322Z" fill="black"/>
<path d="M387.706 106.624C387.102 130.093 378.548 135.879 374.226 137.504C369.903 139.13 361.625 138.154 353.566 136.968V151.14C353.566 151.14 362.87 159.787 362.174 166.239C361.478 172.692 347.522 173.423 337.118 167.101C331.378 163.602 326.186 159.443 321.678 154.732C320.813 153.824 320.339 152.672 320.341 151.482V118.326C320.341 118.326 315.927 122.47 308.125 117.725C306.441 116.771 304.999 115.517 303.892 114.043C302.784 112.568 302.033 110.905 301.689 109.16C301.344 107.414 301.413 105.624 301.89 103.903C302.368 102.182 303.243 100.568 304.461 99.1639C307.868 95.6045 316.513 95.3607 320.652 100.789C322.997 104.836 323.308 108.916 325.927 107.29C332.887 102.837 329.151 92.6628 337.558 87.7869C340.317 86.5092 343.182 85.4225 346.13 84.5364C361.13 79.9368 374.134 76.0686 377.266 66.967C383.164 69.9576 388.439 78.9454 387.706 106.624Z" fill="#FFA8A7"/>
<path d="M358.126 127.59C360.048 127.59 361.606 126.208 361.606 124.502C361.606 122.797 360.048 121.414 358.126 121.414C356.204 121.414 354.646 122.797 354.646 124.502C354.646 126.208 356.204 127.59 358.126 127.59Z" fill="#B16668"/>
<path d="M355.819 103.064C355.819 103.7 355.608 104.322 355.213 104.852C354.818 105.383 354.256 105.799 353.597 106.049C352.938 106.299 352.212 106.372 351.506 106.259C350.801 106.147 350.149 105.853 349.63 105.414C349.111 104.976 348.749 104.412 348.587 103.792C348.426 103.173 348.473 102.525 348.722 101.929C348.972 101.333 349.413 100.815 349.99 100.439C350.568 100.063 351.258 99.8457 351.973 99.8139C352.469 99.7918 352.966 99.8596 353.431 100.013C353.897 100.167 354.323 100.402 354.683 100.707C355.042 101.011 355.329 101.376 355.524 101.782C355.72 102.187 355.82 102.624 355.819 103.064Z" fill="#263238"/>
<path d="M383.567 103.389C383.605 103.787 383.552 104.187 383.414 104.567C383.275 104.947 383.053 105.298 382.76 105.601C382.466 105.903 382.108 106.151 381.706 106.329C381.304 106.508 380.866 106.613 380.417 106.64C379.964 106.677 379.508 106.628 379.078 106.497C378.648 106.366 378.255 106.154 377.924 105.878C377.593 105.601 377.332 105.265 377.159 104.892C376.986 104.519 376.904 104.118 376.919 103.715C376.871 103.314 376.917 102.909 377.052 102.525C377.187 102.14 377.41 101.784 377.706 101.479C378.001 101.173 378.364 100.925 378.772 100.748C379.18 100.571 379.624 100.471 380.078 100.452C380.531 100.433 380.984 100.496 381.409 100.638C381.834 100.78 382.221 100.998 382.548 101.277C382.875 101.557 383.134 101.893 383.309 102.265C383.484 102.636 383.572 103.035 383.567 103.438V103.389Z" fill="#263238"/>
<path d="M351.112 111.419C347.953 111.419 344.923 110.306 342.688 108.325C340.452 106.345 339.194 103.657 339.189 100.854C339.189 93.6704 347.541 93.6704 351.112 93.6704C354.684 93.6704 363.018 93.6704 363.018 100.854C363.013 103.655 361.757 106.339 359.525 108.32C357.294 110.3 354.268 111.414 351.112 111.419ZM351.112 95.3282C343.786 95.3282 341.075 96.9535 341.075 100.854C341.075 103.225 342.137 105.499 344.026 107.175C345.915 108.851 348.477 109.793 351.149 109.793C353.821 109.793 356.383 108.851 358.272 107.175C360.161 105.499 361.223 103.225 361.223 100.854C361.15 96.8722 358.329 95.3282 351.112 95.3282Z" fill="#455A64"/>
<path d="M381.351 111.419C378.192 111.419 375.162 110.306 372.927 108.325C370.691 106.345 369.433 103.657 369.428 100.854C369.428 93.6704 377.78 93.6704 381.351 93.6704C384.923 93.6704 393.256 93.6704 393.256 100.854C393.252 103.655 391.996 106.339 389.764 108.32C387.533 110.3 384.507 111.414 381.351 111.419ZM381.351 95.3282C374.135 95.3282 371.314 96.9535 371.314 100.854C371.314 103.225 372.376 105.499 374.265 107.175C376.154 108.851 378.716 109.793 381.388 109.793C384.06 109.793 386.622 108.851 388.511 107.175C390.4 105.499 391.462 103.225 391.462 100.854C391.388 96.8722 388.568 95.3282 381.351 95.3282Z" fill="#455A64"/>
<path d="M364.867 97.4409L365.453 117.188L377.157 113.97L364.867 97.4409Z" fill="#F28F8F"/>
<path d="M353.549 137.017C345.05 136.025 327.559 131.572 324.83 125.428C325.928 128.533 328.069 131.267 330.965 133.262C336.185 137.244 353.549 141.714 353.549 141.714V137.017Z" fill="#F28F8F"/>
<path d="M353.967 87.852L346.202 92.0615C345.589 91.1154 345.412 89.9966 345.705 88.9372C345.998 87.8779 346.74 86.9596 347.777 86.373C348.289 86.0971 348.859 85.9163 349.452 85.8414C350.046 85.7666 350.65 85.7992 351.229 85.9375C351.807 86.0757 352.348 86.3167 352.819 86.6457C353.29 86.9748 353.68 87.3851 353.967 87.852Z" fill="#263238"/>
<path d="M385.563 92.5326L376.918 89.8508C377.086 89.3424 377.369 88.8698 377.749 88.4619C378.13 88.054 378.601 87.7195 379.133 87.479C379.664 87.2385 380.246 87.097 380.842 87.0633C381.437 87.0296 382.034 87.1043 382.596 87.2829C383.756 87.6526 384.711 88.4039 385.263 89.3812C385.815 90.3585 385.923 91.4868 385.563 92.5326Z" fill="#263238"/>
<path d="M362.084 101.699C361.96 101.699 361.837 101.677 361.722 101.635C361.608 101.592 361.504 101.529 361.417 101.451C361.33 101.372 361.262 101.279 361.216 101.176C361.17 101.074 361.148 100.964 361.15 100.854C361.15 99.5051 364.154 98.6274 366.865 98.6274C369.575 98.6274 371.315 99.5051 371.315 100.854C371.258 101.031 371.138 101.186 370.973 101.297C370.808 101.407 370.607 101.467 370.4 101.467C370.193 101.467 369.991 101.407 369.826 101.297C369.661 101.186 369.541 101.031 369.484 100.854C369.484 100.692 368.55 100.285 366.92 100.285C365.607 100.26 364.301 100.459 363.073 100.87C363.073 100.983 363.048 101.095 362.997 101.199C362.947 101.303 362.873 101.397 362.781 101.474C362.688 101.552 362.578 101.612 362.459 101.651C362.339 101.689 362.211 101.706 362.084 101.699Z" fill="#455A64"/>
<path d="M340.159 100.984H340.049L319.114 99.3588C318.136 98.4985 316.971 97.8238 315.689 97.376L340.269 99.3913C340.516 99.4198 340.74 99.5326 340.894 99.7057C341.048 99.8788 341.119 100.098 341.093 100.318C341.05 100.508 340.933 100.68 340.763 100.801C340.592 100.923 340.378 100.988 340.159 100.984Z" fill="#455A64"/>
<path d="M254.203 120.358C261.053 112.231 265.724 106.104 271.969 99.2288C275.523 95.2794 277.794 92.4514 281.127 88.4045C283.472 85.609 284.79 83.2523 287.465 82.3909C290.354 81.3404 292.957 79.7558 295.102 77.7426C296.421 76.4482 297.644 75.0802 298.765 73.6469C302.691 68.958 307.354 64.7929 312.612 61.2785C318.107 57.6053 324.243 54.7773 329.902 51.283C333.272 49.1864 336.88 45.7083 332.778 42.4577C331.519 41.5173 330.014 40.8744 328.4 40.5886C318.418 38.6708 309.736 41.7101 299.974 43.9205C295.734 44.8596 291.587 46.1044 287.574 47.6424C285.601 48.3349 283.75 49.2764 282.08 50.4378C279.744 52.5275 277.83 54.9574 276.42 57.6216C272.153 64.3828 262.995 70.4288 256.584 75.776C249.093 82.0333 242.39 87.7706 233.836 94.6618C226.144 100.887 218.616 106.608 211.564 113.401C205.722 119.009 207.901 123.397 208.67 124.925C213.432 133.604 218.762 136.724 225.154 142.104C236.144 151.417 274.149 178.218 286.732 187.075C289.435 188.96 291.559 191.42 292.904 194.227L295.322 199.184C309.682 201.524 319.261 182.395 307.374 159.364C305.405 155.64 302.398 152.424 298.637 150.019C283.618 140.316 254.203 120.358 254.203 120.358Z" fill="#FFA8A7"/>
<path d="M254.203 120.357C249.632 125.347 243.541 129.065 236.656 131.068C236.656 131.068 245.814 133.148 258.36 123.153L254.203 120.357Z" fill="#F28F8F"/>
<path d="M440.4 238.759L438.055 236.972C437.705 236.767 437.305 236.638 436.888 236.596C436.472 236.553 436.049 236.599 435.656 236.728L410.215 242.871C408.934 243.251 407.76 243.871 406.774 244.69C405.787 245.509 405.012 246.508 404.501 247.617L386.185 294.474C385.965 294.856 385.878 295.288 385.937 295.714C385.996 296.14 386.197 296.54 386.515 296.863L388.933 298.716C389.284 298.931 389.69 299.068 390.114 299.113C390.539 299.158 390.969 299.111 391.369 298.976L416.846 292.833C418.127 292.454 419.301 291.833 420.288 291.014C421.274 290.195 422.049 289.196 422.56 288.087C426.223 278.871 437.213 250.445 440.876 241.23C441.315 240.076 441.096 239.198 440.4 238.759Z" fill="#455A64"/>
<path d="M388.586 296.278L406.901 249.421C407.411 248.312 408.185 247.315 409.172 246.498C410.159 245.682 411.334 245.065 412.616 244.692L438.038 238.548C440.401 237.979 441.701 239.182 440.859 241.23C437.196 250.445 426.206 278.871 422.543 288.087C422.032 289.196 421.257 290.195 420.27 291.014C419.284 291.833 418.11 292.453 416.829 292.833L391.406 299.041C389.062 299.529 387.798 298.326 388.586 296.278Z" fill="#BA68C8"/>
<path d="M409.849 245.992C408.527 246.881 407.501 248.072 406.882 249.438L388.566 296.278C388.356 296.65 388.269 297.067 388.315 297.481C388.36 297.895 388.536 298.289 388.823 298.619L386.551 296.896C386.226 296.576 386.018 296.177 385.956 295.75C385.894 295.323 385.98 294.889 386.203 294.507L404.519 247.65C405.098 246.376 406.038 245.256 407.248 244.399L409.849 245.992Z" fill="#37474F"/>
<path d="M433.424 260.116C431.592 264.878 425.237 268.063 414.723 270.274C404.21 272.484 398.404 282.382 400.071 285.389C401.738 288.396 418.735 291.207 425.53 290.346C432.325 289.485 439.138 280.773 441.208 278.075C443.278 275.377 445.659 256.556 443.479 253.972C441.3 251.388 436.702 251.794 436.702 251.794L433.424 260.116Z" fill="#F28F8F"/>
</svg>
