<svg xmlns="http://www.w3.org/2000/svg" viewBox="0 0 500 500"><g id="freepik--background-complete--inject-9"><path d="M338.57,416.28,145.42,447.75a17.05,17.05,0,0,0,17,11.87c4.51-.29,9.12-2.41,13.38-.91,4,1.39,6.23,5.41,8.64,8.85a46.92,46.92,0,0,0,23,17.25c15,5.17,31.52,2.36,47.16-.51l40.53-7.42c10.74-2,21.64-4,31.46-8.76s18.6-12.75,21.86-23.18S348.07,421.66,338.57,416.28Z" style="fill:#f5f5f5"></path><path d="M344.93,46.34c-1-5.65-7.5-9.74-13-9.86s-9.13,2.52-12.26,7.25v.16A19.56,19.56,0,0,0,311,29a17.79,17.79,0,0,0-18.37-.19,19.83,19.83,0,0,0-9.26,16.73c-4.91-1.19-10.19,2.93-11.18,8.13A13.24,13.24,0,0,0,278.46,67c4.37,2.61,9.91,2.56,14.62.63a14.55,14.55,0,0,0,13.22,8.68,14.84,14.84,0,0,0,13-9.18c3.66,1.86,7.94,3,11.8,1.62s6.78-6.16,5.19-10.1C341.78,58.34,346,52,344.93,46.34Z" style="fill:#f5f5f5"></path><path d="M476.61,175.62c-1-5.47-7.27-9.44-12.58-9.56s-8.84,2.44-11.89,7v.15a19,19,0,0,0-8.42-14.45,17.26,17.26,0,0,0-17.81-.18,19.21,19.21,0,0,0-9,16.22c-4.76-1.16-9.88,2.83-10.83,7.88a12.82,12.82,0,0,0,6.07,12.9c4.24,2.53,9.61,2.47,14.17.61a14.1,14.1,0,0,0,12.81,8.41,14.39,14.39,0,0,0,12.62-8.9c3.54,1.81,7.7,2.94,11.44,1.57s6.57-6,5-9.79C473.56,187.26,477.61,181.09,476.61,175.62Z" style="fill:#f5f5f5"></path><path d="M463.14,295.56c-.74-4.06-5.39-7-9.32-7.08s-6.54,1.81-8.8,5.21v.11a14.06,14.06,0,0,0-6.24-10.7A12.78,12.78,0,0,0,425.6,283,14.24,14.24,0,0,0,419,295c-3.52-.86-7.31,2.1-8,5.83a9.49,9.49,0,0,0,4.49,9.56,11.91,11.91,0,0,0,10.5.45,10.43,10.43,0,0,0,9.48,6.23,10.65,10.65,0,0,0,9.34-6.59c2.63,1.33,5.7,2.17,8.47,1.16s4.87-4.42,3.73-7.25C460.88,304.17,463.88,299.61,463.14,295.56Z" style="fill:#f5f5f5"></path><path d="M83,324c-.74-4.05-5.38-7-9.31-7.08s-6.55,1.81-8.8,5.21v.11a14.07,14.07,0,0,0-6.23-10.7,12.8,12.8,0,0,0-13.19-.14,14.26,14.26,0,0,0-6.65,12c-3.52-.86-7.31,2.1-8,5.84a9.51,9.51,0,0,0,4.5,9.55,11.89,11.89,0,0,0,10.49.45,10.44,10.44,0,0,0,9.49,6.23,10.65,10.65,0,0,0,9.34-6.59c2.62,1.34,5.7,2.17,8.47,1.16s4.86-4.42,3.72-7.24C80.77,332.63,83.78,328.06,83,324Z" style="fill:#f5f5f5"></path><path d="M176.34,42.21c-1-5.57-7.4-9.6-12.8-9.72s-9,2.48-12.1,7.15v.16a19.32,19.32,0,0,0-8.57-14.71,17.56,17.56,0,0,0-18.13-.19,19.56,19.56,0,0,0-9.13,16.51c-4.84-1.18-10.05,2.88-11,8a13.06,13.06,0,0,0,6.17,13.13c4.32,2.57,9.78,2.51,14.43.62a14.36,14.36,0,0,0,13,8.56,14.65,14.65,0,0,0,12.83-9.06c3.61,1.84,7.84,3,11.64,1.6s6.69-6.08,5.12-10C173.23,54.05,177.36,47.78,176.34,42.21Z" style="fill:#f5f5f5"></path><path d="M453.45,38.72l1.41,2.87a1.09,1.09,0,0,0,.81.58l3.16.46a1.08,1.08,0,0,1,.6,1.83l-2.29,2.23a1.06,1.06,0,0,0-.31,1l.54,3.15a1.07,1.07,0,0,1-1.55,1.13L453,50.43a1.1,1.1,0,0,0-1,0l-2.83,1.49a1.07,1.07,0,0,1-1.55-1.13l.54-3.15a1.08,1.08,0,0,0-.31-1l-2.29-2.23a1.07,1.07,0,0,1,.59-1.83l3.17-.46a1.05,1.05,0,0,0,.8-.58l1.42-2.87A1.07,1.07,0,0,1,453.45,38.72Z" style="fill:#e0e0e0"></path><path d="M43.18,205.76l1.46,3a1.11,1.11,0,0,0,.84.6l3.27.48a1.11,1.11,0,0,1,.62,1.89L47,214a1.11,1.11,0,0,0-.32,1l.56,3.26a1.11,1.11,0,0,1-1.61,1.17l-2.93-1.54a1.1,1.1,0,0,0-1,0l-2.93,1.54a1.11,1.11,0,0,1-1.61-1.17l.56-3.26a1.08,1.08,0,0,0-.31-1L35,211.7a1.11,1.11,0,0,1,.61-1.89l3.27-.48a1.08,1.08,0,0,0,.84-.6l1.46-3A1.11,1.11,0,0,1,43.18,205.76Z" style="fill:#e0e0e0"></path><path d="M47.2,57.1l2.18,4.41a1.66,1.66,0,0,0,1.24.9l4.86.7a1.65,1.65,0,0,1,.91,2.81l-3.52,3.43a1.64,1.64,0,0,0-.47,1.46l.83,4.84a1.64,1.64,0,0,1-2.39,1.73L46.49,75.1a1.6,1.6,0,0,0-1.53,0l-4.35,2.28a1.64,1.64,0,0,1-2.39-1.73l.84-4.84a1.65,1.65,0,0,0-.48-1.46l-3.52-3.43A1.65,1.65,0,0,1,36,63.11l4.87-.7a1.68,1.68,0,0,0,1.24-.9l2.17-4.41A1.65,1.65,0,0,1,47.2,57.1Z" style="fill:#e0e0e0"></path><path d="M75.21,382.18l1.35,2.73a1,1,0,0,0,.77.56l3,.44a1,1,0,0,1,.56,1.73l-2.18,2.13a1,1,0,0,0-.29.9l.51,3a1,1,0,0,1-1.47,1.07l-2.7-1.41a1,1,0,0,0-1,0l-2.69,1.41a1,1,0,0,1-1.48-1.07l.52-3a1,1,0,0,0-.3-.9l-2.18-2.13a1,1,0,0,1,.57-1.73l3-.44a1,1,0,0,0,.77-.56l1.35-2.73A1,1,0,0,1,75.21,382.18Z" style="fill:#e0e0e0"></path><path d="M384.09,229.11l1.35,2.73a1,1,0,0,0,.77.56l3,.44a1,1,0,0,1,.57,1.73l-2.18,2.13a1,1,0,0,0-.3.9l.52,3a1,1,0,0,1-1.48,1.07l-2.69-1.41a1,1,0,0,0-1,0l-2.7,1.41a1,1,0,0,1-1.47-1.07l.51-3a1,1,0,0,0-.29-.9l-2.18-2.13a1,1,0,0,1,.56-1.73l3-.44a1,1,0,0,0,.77-.56l1.35-2.73A1,1,0,0,1,384.09,229.11Z" style="fill:#e0e0e0"></path><path d="M446.49,350.77l1.35,2.73a1,1,0,0,0,.76.56l3,.44a1,1,0,0,1,.57,1.74L450,358.36a1,1,0,0,0-.29.9l.51,3a1,1,0,0,1-1.48,1.08l-2.69-1.42a1,1,0,0,0-.95,0l-2.69,1.42a1,1,0,0,1-1.48-1.08l.51-3a1,1,0,0,0-.29-.9L439,356.24a1,1,0,0,1,.57-1.74l3-.44a1,1,0,0,0,.76-.56l1.35-2.73A1,1,0,0,1,446.49,350.77Z" style="fill:#e0e0e0"></path><path d="M122.93,233.56a5.59,5.59,0,0,0-2.25-2.56,5.44,5.44,0,0,0-3.22-.89,4.47,4.47,0,0,0-3.12,1.61,4.55,4.55,0,0,0-.91,1.92,4.39,4.39,0,0,0-1.65-1,4.5,4.5,0,0,0-3.5.31,5.48,5.48,0,0,0-2.24,2.47,5.7,5.7,0,0,0-.54,3.37,6.87,6.87,0,0,0,2,3.84,9.87,9.87,0,0,0,4.11,2.1c2.49.66,5.73,1.44,5.73,1.44s1.84-2.44,3.59-4.32a9.94,9.94,0,0,0,2.35-4A6.89,6.89,0,0,0,122.93,233.56Z" style="fill:#e0e0e0"></path></g><g id="freepik--Floor--inject-9"><path d="M469.05,414.76c0,.15-99.81.26-222.9.26s-222.91-.11-222.91-.26,99.78-.26,222.91-.26S469.05,414.62,469.05,414.76Z"></path></g><g id="freepik--Stars--inject-9"><path d="M453.42,141l1.38,2.79a1,1,0,0,0,.79.57l3.08.45a1,1,0,0,1,.57,1.77L457,148.78a1,1,0,0,0-.29.92l.52,3.07a1,1,0,0,1-1.51,1.1L453,152.42a1,1,0,0,0-1,0l-2.75,1.45a1,1,0,0,1-1.52-1.1l.53-3.07a1,1,0,0,0-.3-.92l-2.23-2.18a1,1,0,0,1,.58-1.77l3.08-.45a1.06,1.06,0,0,0,.79-.57l1.37-2.79A1,1,0,0,1,453.42,141Z" style="fill:#7E57C2"></path><path d="M175.07,58.43l1,2a.76.76,0,0,0,.56.41l2.19.32a.74.74,0,0,1,.41,1.26L177.62,64a.74.74,0,0,0-.21.65l.38,2.18a.74.74,0,0,1-1.08.78l-2-1a.76.76,0,0,0-.69,0l-2,1a.74.74,0,0,1-1.07-.78l.37-2.18a.74.74,0,0,0-.21-.65l-1.58-1.55a.74.74,0,0,1,.41-1.26l2.19-.32a.73.73,0,0,0,.55-.41l1-2A.74.74,0,0,1,175.07,58.43Z" style="fill:#7E57C2"></path><path d="M293.19,45.5l1,2a.76.76,0,0,0,.56.41l2.19.31a.74.74,0,0,1,.41,1.27L295.74,51a.76.76,0,0,0-.21.66l.38,2.18a.75.75,0,0,1-1.08.78l-2-1a.76.76,0,0,0-.69,0l-2,1a.74.74,0,0,1-1.07-.78l.37-2.18a.74.74,0,0,0-.21-.66l-1.58-1.54a.74.74,0,0,1,.41-1.27l2.19-.31a.73.73,0,0,0,.55-.41l1-2A.74.74,0,0,1,293.19,45.5Z" style="fill:#7E57C2"></path><path d="M403.32,386.92l1.24,2.51a1,1,0,0,0,.7.51l2.77.4a.93.93,0,0,1,.51,1.59l-2,1.95a1,1,0,0,0-.27.83l.48,2.75a.94.94,0,0,1-1.36,1l-2.47-1.3a1,1,0,0,0-.87,0l-2.47,1.3a.94.94,0,0,1-1.36-1l.47-2.75a.93.93,0,0,0-.27-.83l-2-1.95a.94.94,0,0,1,.52-1.59l2.77-.4a1,1,0,0,0,.7-.51l1.24-2.51A.93.93,0,0,1,403.32,386.92Z" style="fill:#7E57C2"></path></g><g id="freepik--Moon--inject-9"><path d="M211.88,31.86h-.11a28.76,28.76,0,1,1-30,45.48,35.2,35.2,0,1,0,30.13-45.49Z" style="fill:#7E57C2"></path><g style="opacity:0.6000000000000001"><path d="M211.88,31.86h-.11a28.76,28.76,0,1,1-30,45.48,35.2,35.2,0,1,0,30.13-45.49Z" style="fill:#fff"></path></g></g><g id="freepik--Clouds--inject-9"><path d="M257.77,137.56c.14,0,.26,9.58.26,21.4s-.12,21.4-.26,21.4-.26-9.58-.26-21.4S257.63,137.56,257.77,137.56Z"></path><path d="M258.69,177.33l1.2,2.44a.91.91,0,0,0,.68.49l2.69.39a.92.92,0,0,1,.51,1.56l-1.95,1.89a.93.93,0,0,0-.26.81l.46,2.67a.91.91,0,0,1-1.32,1l-2.41-1.26a.89.89,0,0,0-.84,0L255,188.54a.91.91,0,0,1-1.32-1l.46-2.67a.9.9,0,0,0-.26-.81L252,182.21a.91.91,0,0,1,.5-1.56l2.69-.39a.91.91,0,0,0,.68-.49l1.21-2.44A.91.91,0,0,1,258.69,177.33Z" style="fill:#7E57C2"></path><path d="M323.34,108.89c-1.82-7-10.62-11.56-17.81-11.28s-11.74,3.85-15.47,10l0,.19a23.86,23.86,0,0,0-47.44,4.87c-6.53-1.11-13.11,4.44-14,11s3.34,13.2,9.29,16.11,13.19,2.41,19.21-.35a18.85,18.85,0,0,0,34.31-2.68c4.95,2,10.66,3.15,15.6,1.1s8.37-8.21,6-13C320.2,124.1,325.16,115.84,323.34,108.89Z" style="fill:#fff"></path><path d="M323.34,108.89s.13.46.31,1.39a13.59,13.59,0,0,1-.12,4.15,14.31,14.31,0,0,1-2.78,6.07,11.66,11.66,0,0,1-7.69,4.5l.11-.21a8.4,8.4,0,0,1,.19,6.72,11.77,11.77,0,0,1-4.88,5.82,14.7,14.7,0,0,1-8.2,1.78,28.16,28.16,0,0,1-8.88-2.17l.27-.12a19.15,19.15,0,0,1-5.65,8.06A18.92,18.92,0,0,1,257,139.55l.32.1a25.42,25.42,0,0,1-9.06,2.29,20.89,20.89,0,0,1-9.54-1.56,17.46,17.46,0,0,1-7.62-6.35,15.4,15.4,0,0,1-2.7-9.76,13.36,13.36,0,0,1,4.81-9,11.87,11.87,0,0,1,9.52-2.85l-.3.27a24.81,24.81,0,0,1,7.25-18.87,23.09,23.09,0,0,1,8.31-5.26,24.81,24.81,0,0,1,9.35-1.5A23.24,23.24,0,0,1,280,91.14a25.54,25.54,0,0,1,3.28,2.73,25,25,0,0,1,7,13.9l-.38,0v-.25l0-.06a23.39,23.39,0,0,1,6.09-6.94,16.23,16.23,0,0,1,7.67-2.95,18.63,18.63,0,0,1,7.15.46,20.73,20.73,0,0,1,5.57,2.3,16,16,0,0,1,5.9,5.8,11.13,11.13,0,0,1,.86,2c.14.46.2.71.2.71l-.26-.7a11.21,11.21,0,0,0-.89-2,16.17,16.17,0,0,0-5.91-5.67,20.68,20.68,0,0,0-5.53-2.23,18.37,18.37,0,0,0-7.05-.41,15.85,15.85,0,0,0-7.51,2.92,23.18,23.18,0,0,0-6,6.87l0-.12,0,.19-.38,0A23.67,23.67,0,0,0,276,89.42a24,24,0,0,0-8.68-1.89A23.46,23.46,0,0,0,250,94.18a24.34,24.34,0,0,0-7.09,18.47l0,.33-.32-.06a11.34,11.34,0,0,0-9.09,2.75,12.85,12.85,0,0,0-4.63,8.65,14.91,14.91,0,0,0,2.61,9.42,17,17,0,0,0,7.4,6.17,20.46,20.46,0,0,0,9.3,1.53,25.15,25.15,0,0,0,8.88-2.24l.21-.1.11.21a18.46,18.46,0,0,0,28.35,5.23,18.82,18.82,0,0,0,5.56-7.86l.07-.2.2.08a27.26,27.26,0,0,0,8.74,2.16,14.38,14.38,0,0,0,8-1.69,11.56,11.56,0,0,0,4.77-5.63,8.16,8.16,0,0,0-.15-6.48l-.09-.18.2,0a11.49,11.49,0,0,0,7.56-4.35,14.34,14.34,0,0,0,2.79-6A13.09,13.09,0,0,0,323.34,108.89Z" style="fill:#263238"></path><path d="M130.34,150.93c.14,0,.26,9.58.26,21.4s-.12,21.4-.26,21.4-.26-9.58-.26-21.4S130.2,150.93,130.34,150.93Z"></path><path d="M85.48,159.86c.15,0,.26,27.08.26,60.48s-.11,60.49-.26,60.49-.26-27.08-.26-60.49S85.34,159.86,85.48,159.86Z"></path><path d="M175.84,109.67c-2.7-10.36-15.82-17.21-26.52-16.8s-17.5,5.74-23,14.9l0,.28A35.53,35.53,0,0,0,71.67,83.16a36.3,36.3,0,0,0-16,32.15c-9.71-1.66-19.51,6.61-20.8,16.38s5,19.66,13.84,24,19.65,3.59,28.6-.52a28.08,28.08,0,0,0,51.11-4c7.37,3,15.87,4.7,23.23,1.64s12.46-12.23,8.89-19.35C171.16,132.33,178.55,120,175.84,109.67Z" style="fill:#f5f5f5"></path><path d="M175.84,109.67s.18.7.44,2.08a19.78,19.78,0,0,1-.19,6.17,21.56,21.56,0,0,1-4.14,9,19.12,19.12,0,0,1-4.69,4.24,15.94,15.94,0,0,1-6.73,2.42l.11-.21a12.5,12.5,0,0,1,.27,10,17.58,17.58,0,0,1-7.25,8.62,21.86,21.86,0,0,1-12.15,2.63,41.49,41.49,0,0,1-13.2-3.23l.27-.12a28.34,28.34,0,0,1-8.4,12A28.81,28.81,0,0,1,106,169.75a28,28,0,0,1-16.3-2.64,28.68,28.68,0,0,1-12.62-11.83l.32.1a38.2,38.2,0,0,1-13.45,3.4,31.09,31.09,0,0,1-14.15-2.32,26.06,26.06,0,0,1-11.3-9.41,22.75,22.75,0,0,1-4-14.45,19.71,19.71,0,0,1,7.12-13.32,17.54,17.54,0,0,1,14.07-4.23l-.3.27a36.79,36.79,0,0,1,10.76-28A34.39,34.39,0,0,1,78.48,79.5a37,37,0,0,1,13.87-2.22,36.12,36.12,0,0,1,13.14,2.89,37,37,0,0,1,5.69,3.16,39.11,39.11,0,0,1,4.87,4.06A37,37,0,0,1,126.49,108l-.37,0,0-.28v-.06l0-.06a34.67,34.67,0,0,1,9-10.32A24.07,24.07,0,0,1,146.54,93a27.63,27.63,0,0,1,10.62.67,31,31,0,0,1,8.29,3.41,23.84,23.84,0,0,1,8.79,8.61,15,15,0,0,1,1.28,3c.22.69.32,1,.32,1s-.13-.35-.37-1a16.56,16.56,0,0,0-1.32-2.92,24,24,0,0,0-8.8-8.48,31.12,31.12,0,0,0-8.25-3.35,27.6,27.6,0,0,0-10.53-.62,23.84,23.84,0,0,0-11.22,4.37,34.43,34.43,0,0,0-8.91,10.24l0-.12,0,.29-.37,0a36.71,36.71,0,0,0-10.37-20.39,38.19,38.19,0,0,0-4.82-4,36,36,0,0,0-5.62-3.11,35.63,35.63,0,0,0-13-2.83A36.36,36.36,0,0,0,78.64,80,33.62,33.62,0,0,0,66.5,87.68a36.33,36.33,0,0,0-10.6,27.61l0,.33-.32-.06A17,17,0,0,0,42,119.68a19.18,19.18,0,0,0-6.93,13,22.26,22.26,0,0,0,3.9,14.12A25.54,25.54,0,0,0,50,156a30.58,30.58,0,0,0,13.92,2.28,37.66,37.66,0,0,0,13.27-3.34l.21-.1.11.21a28.35,28.35,0,0,0,12.4,11.64,27.51,27.51,0,0,0,16,2.61A28.69,28.69,0,0,0,128.2,151.1l.07-.2.2.08a41.06,41.06,0,0,0,13.06,3.22,21.36,21.36,0,0,0,11.95-2.55,17.15,17.15,0,0,0,7.13-8.42,12.22,12.22,0,0,0-.22-9.71l-.09-.18.2,0a15.59,15.59,0,0,0,6.63-2.35,18.87,18.87,0,0,0,4.65-4.17,21.36,21.36,0,0,0,4.16-8.91,20.39,20.39,0,0,0,.27-6.13c-.11-.69-.22-1.21-.28-1.56Z" style="fill:#263238"></path><path d="M87,279.52l2.18,4.42a1.66,1.66,0,0,0,1.24.9l4.87.71a1.65,1.65,0,0,1,.92,2.81l-3.53,3.43a1.63,1.63,0,0,0-.47,1.46l.83,4.86a1.64,1.64,0,0,1-2.39,1.73l-4.36-2.29a1.67,1.67,0,0,0-1.54,0l-4.35,2.29A1.64,1.64,0,0,1,78,298.11l.83-4.86a1.66,1.66,0,0,0-.48-1.46l-3.52-3.43a1.65,1.65,0,0,1,.91-2.81l4.87-.71a1.66,1.66,0,0,0,1.24-.9L84,279.52A1.65,1.65,0,0,1,87,279.52Z" style="fill:#7E57C2"></path><path d="M131.16,191.72l1.2,2.43a.9.9,0,0,0,.68.5l2.69.39a.91.91,0,0,1,.51,1.55l-2,1.9a.92.92,0,0,0-.26.8l.46,2.68a.91.91,0,0,1-1.32,1l-2.41-1.27a.89.89,0,0,0-.84,0l-2.41,1.27a.91.91,0,0,1-1.32-1l.46-2.68a.89.89,0,0,0-.26-.8l-1.94-1.9A.91.91,0,0,1,125,195l2.69-.39a.9.9,0,0,0,.68-.5l1.21-2.43A.91.91,0,0,1,131.16,191.72Z" style="fill:#7E57C2"></path><path d="M422,114.44c.15,0,.26,29.92.26,66.83s-.11,66.84-.26,66.84-.26-29.92-.26-66.84S421.84,114.44,422,114.44Z"></path><path d="M423.46,250.51l2.18,4.42a1.66,1.66,0,0,0,1.24.9l4.87.71a1.65,1.65,0,0,1,.92,2.81l-3.53,3.43a1.63,1.63,0,0,0-.47,1.46l.83,4.86a1.64,1.64,0,0,1-2.39,1.73l-4.36-2.29a1.65,1.65,0,0,0-1.53,0l-4.36,2.29a1.64,1.64,0,0,1-2.39-1.73l.83-4.86a1.68,1.68,0,0,0-.47-1.46l-3.53-3.43a1.65,1.65,0,0,1,.91-2.81l4.88-.71a1.68,1.68,0,0,0,1.24-.9l2.18-4.42A1.65,1.65,0,0,1,423.46,250.51Z" style="fill:#7E57C2"></path><path d="M335.09,75c2.35-9,13.72-14.92,23-14.56s15.16,5,20,12.91l0,.25a30.81,30.81,0,0,1,61.26,6.29c8.42-1.44,16.91,5.73,18,14.2s-4.32,17-12,20.79-17,3.11-24.79-.45a24.34,24.34,0,0,1-44.3-3.46c-6.39,2.63-13.76,4.08-20.14,1.42s-10.8-10.6-7.71-16.77C339.16,94.65,332.75,84,335.09,75Z" style="fill:#f5f5f5"></path><path d="M335.09,75a3.86,3.86,0,0,1-.07.46c0,.3-.15.75-.24,1.35a17.83,17.83,0,0,0,.24,5.32,18.52,18.52,0,0,0,3.61,7.71,16.28,16.28,0,0,0,4,3.61,13.44,13.44,0,0,0,5.74,2l.2,0-.09.18a10.57,10.57,0,0,0-.19,8.4,14.82,14.82,0,0,0,6.17,7.29,18.58,18.58,0,0,0,10.35,2.21,35.61,35.61,0,0,0,11.31-2.8l.2-.08.07.2a24.87,24.87,0,0,0,19.29,15.75,23.82,23.82,0,0,0,13.87-2.26,24.49,24.49,0,0,0,10.73-10.08l.11-.2.21.09a32.54,32.54,0,0,0,11.49,2.9,26.55,26.55,0,0,0,12.05-2,22.1,22.1,0,0,0,9.58-8,19.28,19.28,0,0,0,3.38-12.22,16.62,16.62,0,0,0-6-11.21,14.73,14.73,0,0,0-11.8-3.56l-.32.06,0-.33A31.47,31.47,0,0,0,429.85,56a29.29,29.29,0,0,0-10.51-6.69,31.66,31.66,0,0,0-11.86-1.91,31,31,0,0,0-11.23,2.45,31.41,31.41,0,0,0-4.87,2.69A32.66,32.66,0,0,0,387.21,56a31.78,31.78,0,0,0-9,17.65l-.37,0,0-.24,0,.11a29.88,29.88,0,0,0-7.72-8.87,20.61,20.61,0,0,0-9.72-3.78,23.73,23.73,0,0,0-9.11.53,27,27,0,0,0-7.15,2.89,20.82,20.82,0,0,0-7.63,7.35,14.38,14.38,0,0,0-1.15,2.53c-.21.6-.33.9-.33.9s.09-.31.28-.91a12.82,12.82,0,0,1,1.11-2.57,20.63,20.63,0,0,1,7.61-7.48,27.85,27.85,0,0,1,7.19-3,24.25,24.25,0,0,1,9.22-.58,20.88,20.88,0,0,1,9.88,3.81,29.87,29.87,0,0,1,7.84,9l0,0v.06l0,.25-.37,0a32.14,32.14,0,0,1,9.06-17.91,33.65,33.65,0,0,1,4.22-3.52,32.37,32.37,0,0,1,4.94-2.74,31.47,31.47,0,0,1,11.39-2.51,32.2,32.2,0,0,1,12,1.93,29.57,29.57,0,0,1,10.7,6.79,31.93,31.93,0,0,1,9.34,24.29l-.3-.27a15.27,15.27,0,0,1,12.23,3.67,17.18,17.18,0,0,1,6.18,11.57,19.79,19.79,0,0,1-3.47,12.55,22.55,22.55,0,0,1-9.81,8.17,26.79,26.79,0,0,1-12.28,2,32.91,32.91,0,0,1-11.67-3l.33-.1a25,25,0,0,1-11,10.27,24.28,24.28,0,0,1-14.15,2.29,25,25,0,0,1-12.32-5.69A24.71,24.71,0,0,1,376,111.05l.28.12a36,36,0,0,1-11.45,2.8,18.9,18.9,0,0,1-10.55-2.29A15.15,15.15,0,0,1,348,104.2a10.83,10.83,0,0,1,.24-8.63l.11.2a13.88,13.88,0,0,1-5.85-2.1A16.33,16.33,0,0,1,338.46,90a18.56,18.56,0,0,1-3.59-7.82,17.15,17.15,0,0,1-.16-5.35C334.94,75.62,335.09,75,335.09,75Z" style="fill:#263238"></path><path d="M377.94,113c.14,0,.26,13.38.26,29.88s-.12,29.89-.26,29.89-.26-13.38-.26-29.89S377.8,113,377.94,113Z"></path><path d="M378.86,169.79l1.2,2.43a.9.9,0,0,0,.68.5l2.69.39a.91.91,0,0,1,.51,1.55l-1.95,1.9a.92.92,0,0,0-.26.8l.46,2.68a.91.91,0,0,1-1.32,1l-2.41-1.26a.89.89,0,0,0-.84,0L375.21,181a.91.91,0,0,1-1.32-1l.46-2.68a.89.89,0,0,0-.26-.8l-1.94-1.9a.91.91,0,0,1,.5-1.55l2.69-.39a.88.88,0,0,0,.68-.5l1.21-2.43A.91.91,0,0,1,378.86,169.79Z" style="fill:#7E57C2"></path></g><g id="freepik--Character--inject-9"><path d="M347.45,389.73c-2.77-9.7-7.44-31.59-8.06-36.57-2.1-16.82-2.65-39.32-9.84-49.92-8-11.76-23-13.06-27.11-13.59s-45.36,1.13-45.36,1.13-20.74,23.5-26,37.23-6.78,76.3-6.78,76.3l2.35,19,97.93,27.38s18.18-7.48,22.88-25.43S349.83,398.1,347.45,389.73Z" style="fill:#7E57C2"></path><path d="M224,387.17c-16.22-9.42-48.3-.08-57.48,8.48-3.54-4.16-7.21-8.41-12-11s-11.1-3.17-15.55,0c-4,2.88-5.65,8-6.54,12.9a76.89,76.89,0,0,0-.41,25.37c1.18,7.84,4.55,16.56,12.06,19.11,4.28,1.45,9,.52,13.23-1.07s8.2-3.82,12.53-5.08c12.77-3.73,49.45,12,65.86,5Z" style="fill:#7E57C2"></path><path d="M150.81,439.45a6,6,0,0,0,1.82-1.6,14.25,14.25,0,0,0,2.14-6.25c.84-5.6.5-13.49-.28-22.11-.2-2.16-.42-4.27-.64-6.3s-.4-4-.75-5.83A18.39,18.39,0,0,0,149,388.5a10.17,10.17,0,0,0-5.69-3.18,11,11,0,0,0-2.45,0,2.74,2.74,0,0,1,.63-.15,7.17,7.17,0,0,1,1.84,0,10,10,0,0,1,5.93,3.13,18.35,18.35,0,0,1,4.28,9c.37,1.86.54,3.83.79,5.86s.45,4.15.65,6.31c.78,8.64,1.07,16.56.12,22.22a14,14,0,0,1-2.34,6.32,5.2,5.2,0,0,1-1.39,1.22A3.43,3.43,0,0,1,150.81,439.45Z"></path><g style="opacity:0.30000000000000004"><path d="M185.6,415.6c1.76-6.64,2.53-13.69.94-20.38a10.84,10.84,0,0,0-2.3-4.93,4.87,4.87,0,0,0-5-1.54,2.17,2.17,0,0,0-1,.68,3,3,0,0,0-.08,2.63l6.93,24.74c.35-.7.7-1.4,1-2.1"></path></g><path d="M336.12,167.47a28,28,0,0,1,2.36-9.12c.5-1.12,1.62-2.41,2.71-1.84.71.37.85,1.32.85,2.13a16,16,0,0,1-1.71,7.05,11.38,11.38,0,0,1,8.18-1.63c.9.17,1.91.58,2.13,1.46.3,1.15-.93,2.08-2,2.65q-4.7,2.54-9.41,5.05" style="fill:#ffbf9d"></path><g style="opacity:0.2"><path d="M350.64,165.52c-.22-.88-1.23-1.29-2.13-1.46a11.38,11.38,0,0,0-8.18,1.63,16,16,0,0,0,1.71-7.05c0-.81-.14-1.76-.85-2.13-1.09-.57-2.21.72-2.71,1.84a28,28,0,0,0-2.36,9.12l3.13,5.75q4.71-2.52,9.41-5.05C349.71,167.6,350.94,166.67,350.64,165.52Z"></path></g><path d="M345.13,173.07c-15.86-18.73-43.38-26-55.35-24.55-.71.09-44.49-3.11-55.15,57.48,0,0-6.46,25.36-6.79,28.3,0,.26-.12.67-.24,1.21-4.53,19.75,4.46,45.85,27.69,54.14l19,4.63c13.63,2.76,36.34,0,47.61-8.48,13.67-10.31,30.48-45.74,33.08-57.9C357.37,216.91,361,191.8,345.13,173.07Z" style="fill:#ffbf9d"></path><path d="M342.12,245c.62-.08,24.71-2.58,17.79,19.27s-26.81,8.61-26.65,8S342.12,245,342.12,245Z" style="fill:#ffbf9d"></path><path d="M343.08,265.41c.09,0,.23.29.64.67a3,3,0,0,0,2.13.72c1.95-.08,4.29-2.38,5.31-5.33a10.13,10.13,0,0,0,.5-4.36,3.54,3.54,0,0,0-1.46-2.89,1.54,1.54,0,0,0-1.95.25c-.36.39-.36.76-.46.76s-.27-.39.08-1a1.93,1.93,0,0,1,1-.83,2.3,2.3,0,0,1,1.72.09,4.25,4.25,0,0,1,2.19,3.5,10.25,10.25,0,0,1-.46,4.91c-1.16,3.28-3.84,5.85-6.44,5.78a3.21,3.21,0,0,1-2.49-1.26C343,265.82,343,265.42,343.08,265.41Z" style="fill:#ff9a6c"></path><path d="M244.37,219.3c.33.84,4.88-.35,9.86,1.67s7.62,6,8.41,5.58c.37-.16.23-1.49-.9-3.29a13.65,13.65,0,0,0-6.43-5.21,13.12,13.12,0,0,0-8.15-.57C245.16,218,244.2,218.92,244.37,219.3Z" style="fill:#263238"></path><path d="M295.33,226.11c.46.77,4.77-1.13,10,.07s8.48,4.68,9.19,4.17c.35-.22,0-1.51-1.41-3.1a13.67,13.67,0,0,0-7.18-4.13,13.14,13.14,0,0,0-8.13.74C295.91,224.73,295.1,225.76,295.33,226.11Z" style="fill:#263238"></path><path d="M305.39,207.38c.44,1.42,4.54,1.4,9.09,2.62s8.18,3.09,9.24,2.06c.48-.51.12-1.82-1.24-3.31a14.56,14.56,0,0,0-14.42-3.68C306.15,205.73,305.21,206.71,305.39,207.38Z" style="fill:#263238"></path><path d="M252.89,194.16c.44,1.41,4.54,1.39,9.1,2.62s8.17,3.08,9.23,2.05c.49-.51.12-1.82-1.23-3.31a14.59,14.59,0,0,0-14.43-3.68C253.66,192.51,252.71,193.48,252.89,194.16Z" style="fill:#263238"></path><path d="M274.18,244.85c0,.26-1.06.54-2.68,0a5.69,5.69,0,0,1-2.45-1.8,5.62,5.62,0,0,1-1.18-3.66,4.8,4.8,0,0,1,1.76-3.54,4.37,4.37,0,0,1,3.05-1,6.82,6.82,0,0,1,1.8.56c.35.14.59.2.63.34s-.17.37-.67.47-1.19,0-1.75.11a3.33,3.33,0,0,0-2.74,3.13,4.43,4.43,0,0,0,.66,2.46,5.89,5.89,0,0,0,1.57,1.61C273.29,244.27,274.21,244.55,274.18,244.85Z" style="fill:#263238"></path><path d="M289.38,249.42a3,3,0,0,1,1.64,1.73,5.31,5.31,0,0,1,0,3.28,9.24,9.24,0,0,1-2.34,4,11.6,11.6,0,0,1-10.73,3.2,9.16,9.16,0,0,1-4.13-2,5.32,5.32,0,0,1-1.76-2.77,3,3,0,0,1,.42-2.34c.91-1.31,2.5-1.93,3.93-2.56s2.81-1.13,4-1.49,2.66-.66,4.2-1S287.9,248.82,289.38,249.42Z" style="fill:#ff9a6c"></path><g style="opacity:0.6000000000000001"><path d="M296.9,243.8a3.26,3.26,0,0,0-3,2.77,4.78,4.78,0,0,0,1.49,4,9.59,9.59,0,0,0,4.53,2.24,16.17,16.17,0,0,0,5.41.41c1.6-.15,3.23-.62,3.9-2.55a4.36,4.36,0,0,0-.13-3c-1-2.45-3.28-3-5.61-3.55-2-.45-4.71-.93-6.56-.32" style="fill:#7E57C2"></path></g><g style="opacity:0.6000000000000001"><path d="M250.12,236.34A3.27,3.27,0,0,0,254,235a4.75,4.75,0,0,0,.21-4.3,9.49,9.49,0,0,0-3.27-3.84,16.42,16.42,0,0,0-4.82-2.51c-1.53-.48-3.21-.69-4.59.82a4.4,4.4,0,0,0-1.08,2.84c0,2.65,1.82,4.08,3.77,5.47,1.68,1.21,4,2.71,5.91,2.88" style="fill:#7E57C2"></path></g><path d="M320.94,177.41a2.67,2.67,0,0,1,0,1.1,12.41,12.41,0,0,1-.84,3.05,14.91,14.91,0,0,1-2.69,4.24,14.37,14.37,0,0,1-5.5,3.79,14.57,14.57,0,0,1-8.1.62,14.89,14.89,0,0,1-8.14-4.59,12.26,12.26,0,0,1-2.58-4.49,8.87,8.87,0,0,1,0-5.49,7.53,7.53,0,0,1,3.67-4.42,6.4,6.4,0,0,1,6,.22,5.42,5.42,0,0,1,2.18,2.29,5.74,5.74,0,0,1,.5,3.06,7.37,7.37,0,0,1-2.85,5,13.7,13.7,0,0,1-10,2.53,15.8,15.8,0,0,1-8.52-3.8,14.63,14.63,0,0,1-2.76-3.28,14.87,14.87,0,0,1-1.51-3.64,15.93,15.93,0,0,1-.49-3.52,15.58,15.58,0,0,1,.28-3.15,14.77,14.77,0,0,1,1.72-4.71,14.47,14.47,0,0,1,1-1.53c.34-.39.62-.74.88-1,.54-.49.83-.73.87-.69a29.84,29.84,0,0,0-2.23,3.49,15,15,0,0,0-1.4,4.57,15.84,15.84,0,0,0-.15,3,16.24,16.24,0,0,0,.56,3.27,13.79,13.79,0,0,0,1.48,3.3,13.35,13.35,0,0,0,2.58,2.93,14.56,14.56,0,0,0,7.84,3.35,13.57,13.57,0,0,0,4.61-.28,10.85,10.85,0,0,0,4.29-2,5.92,5.92,0,0,0,2.27-4,3.83,3.83,0,0,0-1.92-3.84,4.85,4.85,0,0,0-4.5-.18,6,6,0,0,0-2.92,3.52,7.36,7.36,0,0,0,0,4.57,11.13,11.13,0,0,0,2.24,4,14,14,0,0,0,14.78,3.89,14,14,0,0,0,5.25-3.36,15.63,15.63,0,0,0,2.77-3.89A38.91,38.91,0,0,0,320.94,177.41Z" style="fill:#263238"></path><path d="M255.29,289.65l-1.7,5.22c5,7.21,53.16-2.24,53.16-2.24C309.06,289.72,255.29,289.65,255.29,289.65Z" style="fill:#ffbf9d"></path><path d="M255.29,289.65s13.23,3.77,25.8,1.69a30.94,30.94,0,0,1-18.7,2.87,24.66,24.66,0,0,1-7.55-2.75l.45-1.81" style="fill:#ff9a6c"></path><polygon points="331.52 239.4 332.99 240.21 331.52 241.01 330.71 242.48 329.91 241.01 328.43 240.21 329.91 239.4 330.71 237.93 331.52 239.4" style="fill:#fff"></polygon><polygon points="325.52 245.94 328.43 247.53 325.52 249.12 323.93 252.04 322.33 249.12 319.42 247.53 322.33 245.94 323.93 243.02 325.52 245.94" style="fill:#fff"></polygon><path d="M277.1,261.48a9.16,9.16,0,0,1,1.67.24,11.79,11.79,0,0,0,4.44-.26,9.39,9.39,0,0,0,2.77-1.21,13.78,13.78,0,0,0,2.59-2.35,9.06,9.06,0,0,0,1.77-3.35,7,7,0,0,0-.08-3.94,2.81,2.81,0,0,0-1.07-1.48,2.48,2.48,0,0,0-1.71-.35,17.3,17.3,0,0,0-3.7,1.18l-6.37,2.41c-3.64,1.34-5.93,2.1-6,2s2.12-1.14,5.7-2.66l6.31-2.61a16.63,16.63,0,0,1,3.93-1.3,3.5,3.5,0,0,1,2.39.49,3.88,3.88,0,0,1,1.48,2,7.92,7.92,0,0,1,.08,4.57,9.64,9.64,0,0,1-2,3.69,13.06,13.06,0,0,1-2.85,2.47,10.27,10.27,0,0,1-3.07,1.2,10.64,10.64,0,0,1-4.69-.07A3.71,3.71,0,0,1,277.1,261.48Z" style="fill:#263238"></path><path d="M297.12,233.76a5,5,0,0,0,3,6.28,4.78,4.78,0,0,0,6.29-2.68,5,5,0,0,0-3-6.28A4.77,4.77,0,0,0,297.12,233.76Z" style="fill:#263238"></path><path d="M304.64,233.76a.81.81,0,0,0-.4.8.72.72,0,0,0,.86.59.76.76,0,0,0,.5-.93.79.79,0,0,0-1-.46" style="fill:#fff"></path><path d="M207.92,216.1a83.89,83.89,0,0,1-3.8-66.37c1.51-4.07,3.95-8.52,8.22-9.3,4.76-.87,8.89,3.34,11.35,7.51,5.51,9.31,7.73,20.33,7.51,31.14s-2.77,21.46-6.29,31.68c-1.27,3.67-2.88,7.58-6.23,9.55" style="fill:#f5f5f5"></path><g style="opacity:0.30000000000000004"><path d="M219.31,155.29c-.59-1.67-1.48-3.54-3.21-3.91-2.3-.48-4,2-5,4.15A71,71,0,0,0,212.74,215l3.09.89A79.43,79.43,0,0,0,219.31,155.29Z"></path></g><path d="M198.44,216.53a52.16,52.16,0,0,0-8.05-9.87c-3.2-2.81-7.26-4.87-11.51-4.85-6.16,0-11.45,4.32-15.61,8.86-15.13,16.49-22.5,39.19-22.81,61.56-.12,9.08.94,18.48,5.44,26.37a9.44,9.44,0,0,0,4.23,4.37c2.23.93,4.8.29,7-.74,5.5-2.6,9.64-7.5,12.44-12.9s4.37-11.33,5.93-17.21L188.77,222" style="fill:#ebebeb"></path><g style="opacity:0.30000000000000004"><path d="M182,222.89l-8.21-3.68a37.69,37.69,0,0,0-11.81,13.31,89.38,89.38,0,0,0-5.88,16c-2.71,9.29-5.18,18.69-6.29,28.31a20,20,0,0,0,0,6,7.66,7.66,0,0,0,3.07,5c2.53,1.67,6.05,1.08,8.54-.65s4.15-4.4,5.65-7C176.88,262.79,182.68,242.86,182,222.89Z"></path></g><path d="M199.35,216.42c-1.46.3-21.71,5.89-30.89,22.17-7.23,12.83-4.67,28-.12,34.61s20.73,23.91,33.45,23.19c0,0,26.27-.8,34.94-10.19s20.55-32.86,10.94-52.82S218.19,212.58,199.35,216.42Z" style="fill:#ebebeb"></path><path d="M182.48,408.79A183,183,0,0,1,180,375.25L163,363.35a13.83,13.83,0,0,0-7.07,7.43A33.91,33.91,0,0,0,153.65,381c-1.49,14.19-.55,28.56,1.63,42.65.6,3.85,1.47,8,4.44,10.53,3.46,2.94,8.69,2.62,12.91,1a17.55,17.55,0,0,0,9.22-7.63C184.86,421.89,183.55,415.07,182.48,408.79Z" style="fill:#ebebeb"></path><path d="M228.3,376.09a5.71,5.71,0,0,0-4.05-3.36l-22,18.41a41.36,41.36,0,0,0-10.67,15.53,108.25,108.25,0,0,0-5.29,18.24c-1.2,5.41-2.29,11.23-.22,16.37a14.8,14.8,0,0,0,12.42,9,15.36,15.36,0,0,0,13.7-7c2.78-4.4,3.15-9.83,3.84-15a98.89,98.89,0,0,1,5.63-22.08c3.09-8.11,7.31-16.09,7.53-24.76A12,12,0,0,0,228.3,376.09Z" style="fill:#ebebeb"></path><path d="M239.72,331.93c-.61-13.39-6.2-30.56-9.93-43.23l-30.29.23c-11.28,12.28-8.25,4-16.26,18.94,0,0-1.09.52-3.88,3.53-8.93,9.67-17.6,30.88-17.11,43.23.43,10.83,4.41,21.25,11.73,28.33,7.47,7.22,17.68,11.28,27.8,10.11,12.31-1.43,23.44-10.51,29.9-22.17S240.33,345.32,239.72,331.93Z" style="fill:#ebebeb"></path><path d="M165.68,335.31a21.53,21.53,0,0,1-9.55-3c-.64-.38-1.44-.8-2.08-.41a2,2,0,0,0-.68,1q-1.37,3.44-2.53,6.94a4,4,0,0,0-.18,3,3.87,3.87,0,0,0,2.24,1.63c4,1.54,5.58,2.43,9.84,2.64Z" style="fill:#7E57C2"></path><path d="M173.42,319.55a2.3,2.3,0,0,1-.21.43l-.66,1.18c-.3.5-.65,1.13-1.05,1.87s-.86,1.56-1.33,2.5a74.34,74.34,0,0,0-5.91,15.25A51.29,51.29,0,0,0,162.63,357a43.66,43.66,0,0,0,.61,4.93c.09.53.17,1,.23,1.33a1.35,1.35,0,0,1,0,.48,2.54,2.54,0,0,1-.14-.45L163,362a35.77,35.77,0,0,1-.78-4.94,48.65,48.65,0,0,1,1.49-16.37,68.45,68.45,0,0,1,6.1-15.29c.49-.93,1-1.76,1.4-2.48s.8-1.34,1.12-1.83l.75-1.13C173.3,319.67,173.4,319.54,173.42,319.55Z"></path><path d="M158.08,339.36a4,4,0,0,0-2.55,0c-.52.17-1.09.62-1,1.16a.85.85,0,0,0,.64.61,2.24,2.24,0,0,0,.93,0,20.86,20.86,0,0,0,5.23-1.23.35.35,0,0,0,.22-.15c.07-.13,0-.29-.14-.4a7.54,7.54,0,0,0-3.53-2.62,1.26,1.26,0,0,0-1.39.33,1.19,1.19,0,0,0,.4,1.43,11.53,11.53,0,0,1,1.28,1" style="fill:#f5f5f5"></path><path d="M194.43,285.92c-2.83-2.32-6.6-3.15-10.25-3.4-11.78-.83-23.23,3.58-34.9,5.44-4.49.72-9.27,1.15-12.93,3.86a11.76,11.76,0,0,0-4.66,10.55,10.71,10.71,0,0,0,7.23,8.84c4,1.23,8.27-.11,12.22-1.44l39.93-13.47,6.3-.59C198.86,292.37,197.26,288.25,194.43,285.92Z" style="fill:#ebebeb"></path><path d="M194.43,285.92a7.8,7.8,0,0,1,2,2.06,9.79,9.79,0,0,1,1.43,3.14,7.35,7.35,0,0,1-.33,4.64l0,.08h-.07l-6.3.62h0l-25,8.5-15.57,5.28a26.14,26.14,0,0,1-8.69,1.72,10.8,10.8,0,0,1-4.48-1.07,11,11,0,0,1-3.63-2.95,10.9,10.9,0,0,1-2.38-7.62,12.22,12.22,0,0,1,3.1-7.14,14,14,0,0,1,6.46-3.86,49.43,49.43,0,0,1,7.06-1.39c4.61-.67,8.93-1.7,13-2.62s7.83-1.77,11.33-2.3c7-1.1,12.83-.89,16.67.16a15,15,0,0,1,4.18,1.8,7.93,7.93,0,0,1,1.26,1l-.33-.22a11.44,11.44,0,0,0-1-.65,15.42,15.42,0,0,0-4.17-1.69c-3.81-1-9.62-1.14-16.57,0-3.48.55-7.25,1.4-11.29,2.36s-8.36,2-13,2.67a49.57,49.57,0,0,0-7,1.4,13.5,13.5,0,0,0-6.23,3.72,11.66,11.66,0,0,0-3,6.84,10.18,10.18,0,0,0,10,11.08,25.37,25.37,0,0,0,8.52-1.68L166,304.51l25-8.37h0l6.31-.56-.11.08a7.21,7.21,0,0,0,.37-4.5,9.87,9.87,0,0,0-1.34-3.1,11.44,11.44,0,0,0-1.33-1.63l-.39-.37Z" style="fill:#263238"></path><path d="M143.43,310c-.08-.06.61-.92,1.18-2.56a10.09,10.09,0,0,0-3.87-11.84,27.9,27.9,0,0,0-2.47-1.36,2,2,0,0,1,.76.16,8.43,8.43,0,0,1,1.91.89,10,10,0,0,1,4,12.28,8.52,8.52,0,0,1-1,1.85C143.65,309.86,143.46,310.06,143.43,310Z"></path><path d="M194.08,239.25a2.49,2.49,0,1,1-3.18-1.51A2.48,2.48,0,0,1,194.08,239.25Z" style="fill:#263238"></path><path d="M206.62,234.82a2.49,2.49,0,1,1-3.17-1.51A2.48,2.48,0,0,1,206.62,234.82Z" style="fill:#263238"></path><path d="M212.42,273.09a3.78,3.78,0,0,1-.46-.83c-.27-.55-.63-1.35-1.07-2.35-.87-2-2-4.78-3.15-7.9s-2.07-6-2.69-8.07c-.31-1.05-.54-1.9-.69-2.49a3,3,0,0,1-.18-.93,27.68,27.68,0,0,1,1.22,3.3c.71,2.06,1.69,4.9,2.83,8s2.22,5.92,3,7.94A26.08,26.08,0,0,1,212.42,273.09Z"></path><path d="M225.74,215.68l-.29,0-.83-.11c-.73-.11-1.82-.23-3.22-.38a67.92,67.92,0,0,0-11.88-.11,62.48,62.48,0,0,0-17.13,3.85,46.94,46.94,0,0,0-17.81,11.75,40.69,40.69,0,0,0-6.42,9.06,35.81,35.81,0,0,0-3.32,9.78,38,38,0,0,0,.86,17.4,32.3,32.3,0,0,0,2.62,6.21c.49.86,1,1.64,1.47,2.35s1,1.31,1.44,1.83l1.26,1.37c.38.39.74.68,1,.93l.62.57c.14.13.21.2.2.21l-.23-.17-.65-.53c-.29-.24-.66-.52-1.05-.89l-1.31-1.35c-.47-.52-.93-1.16-1.48-1.83s-1-1.48-1.53-2.34a33,33,0,0,1-2.72-6.25,38,38,0,0,1-1-17.59,36.33,36.33,0,0,1,3.33-9.93,41.24,41.24,0,0,1,6.5-9.19,47,47,0,0,1,18-11.84,62,62,0,0,1,17.28-3.77,64.42,64.42,0,0,1,11.92.28c1.4.18,2.49.34,3.21.48l.83.16A.8.8,0,0,1,225.74,215.68Z"></path><path d="M196.57,246.27c-.45.33-.94.8-.83,1.35s.54.71.94.9a34.87,34.87,0,0,0,5.67,2.21,3.21,3.21,0,0,0,2,.13,3.07,3.07,0,0,0,1.19-.93,18.22,18.22,0,0,0,3.55-6.15,1.14,1.14,0,0,0-1.25-1.48C204.05,242.94,199.32,244.25,196.57,246.27Z" style="fill:#7E57C2"></path><path d="M212.08,389.61a6.59,6.59,0,0,1-.68.34c-.45.21-1.11.52-2,.85a37.28,37.28,0,0,1-7.73,2.05,33.61,33.61,0,0,1-11.84-.27,28,28,0,0,1-6.64-2.3,36,36,0,0,1-6.35-4.08A33.94,33.94,0,0,1,167.61,375a55.51,55.51,0,0,1-4.33-11,34.15,34.15,0,0,1-1.14-7.91c0-.95,0-1.68,0-2.18a4.07,4.07,0,0,1,.07-.75c.06,0,0,1,.1,2.92a37.74,37.74,0,0,0,1.29,7.83A57.83,57.83,0,0,0,168,374.81a33.69,33.69,0,0,0,9.13,11,30.81,30.81,0,0,0,12.76,6.32,33.7,33.7,0,0,0,11.69.37,39.61,39.61,0,0,0,7.71-1.87C211.11,390,212.05,389.55,212.08,389.61Z"></path><path d="M188.78,363c.08,0-.33,1.65-.76,4.31a54.81,54.81,0,0,0,.63,20.89c.59,2.63,1.11,4.22,1,4.25a5.76,5.76,0,0,1-.45-1.09c-.26-.71-.59-1.76-.93-3.07a48.43,48.43,0,0,1-1.48-10.49,47.85,47.85,0,0,1,.84-10.56c.27-1.33.52-2.4.74-3.12A4.94,4.94,0,0,1,188.78,363Z"></path><path d="M170.91,217.42a41.85,41.85,0,0,1,6.06,2.66,41.77,41.77,0,0,1,5.84,3.12,42.21,42.21,0,0,1-6.07-2.66A41.27,41.27,0,0,1,170.91,217.42Z"></path><path d="M231.1,286.81s-.19.23-.59.56a16.36,16.36,0,0,1-1.8,1.3,26.35,26.35,0,0,1-13.89,4.13,17.82,17.82,0,0,1-2.22-.11c-.52-.06-.81-.11-.8-.15s1.16,0,3-.11a31.66,31.66,0,0,0,7.1-1.22,30.92,30.92,0,0,0,6.61-2.85C230.12,287.43,231.05,286.74,231.1,286.81Z"></path><path d="M229.22,409.47c-7.53-28.62,4-43.07,9.5-59.44" style="fill:#7E57C2"></path><path d="M238.72,350a4.11,4.11,0,0,1-.16.61c-.15.44-.34,1-.56,1.71-.51,1.47-1.32,3.59-2.38,6.17-2.08,5.16-5.35,12.2-7.23,20.49A62.53,62.53,0,0,0,227,390.86a69,69,0,0,0,.62,9.73c.21,1.37.4,2.61.56,3.72l.6,2.77c.14.72.26,1.31.35,1.77a2.36,2.36,0,0,1,.09.62,2.89,2.89,0,0,1-.19-.6q-.18-.67-.45-1.74c-.19-.78-.42-1.7-.68-2.77s-.41-2.35-.64-3.71a65.65,65.65,0,0,1-.74-9.8,61.18,61.18,0,0,1,1.36-12c1.89-8.36,5.23-15.39,7.4-20.51,1.11-2.56,2-4.65,2.53-6.1.26-.69.48-1.24.65-1.68A2.3,2.3,0,0,1,238.72,350Z" style="fill:#263238"></path><path d="M222.79,302.78a31,31,0,0,0-5.31-3.25c.11-1.23.14-2.48.17-3.72,0-1.5,0-3.16-1-4.3a3.35,3.35,0,0,0-3.23-1,3.9,3.9,0,0,0-2.62,2.2c-.45,1-.24,2.05-.6,3.09a2.45,2.45,0,0,1-.83,1,42.83,42.83,0,0,1-6-2.45A46,46,0,0,0,193.27,291c-1.7-.31-4-.52-5.06,1.46a3.84,3.84,0,0,0,.25,3.75c1,1.75,2.18,2.07,3.89,3a9.46,9.46,0,0,0-3.13.59,3.49,3.49,0,0,0-2.22,2.31,3.86,3.86,0,0,0,1.05,3.59,9.85,9.85,0,0,0,3,1.74,4.37,4.37,0,0,0-3.83,5c.41,2.41,3.86,4,6.26,3.48a6.68,6.68,0,0,0-2,1.91,4,4,0,0,0-.64,3.37,4.19,4.19,0,0,0,2.12,2.82,5.68,5.68,0,0,0,4,.23c.9-.25,3.2.26,4.13.26s5.11,3.19,5.65,3.86c3.58,4.44,5.72,6.7,13.08,8.35l10.5-27.94C223,304.24,225.56,304.72,222.79,302.78Z" style="fill:#ffbf9d"></path><path d="M199.57,308c0,.15-2.13-.37-4.76-.49s-4.77.19-4.79,0a11.38,11.38,0,0,1,4.81-.56A11.21,11.21,0,0,1,199.57,308Z" style="fill:#ff9a6c"></path><path d="M199.53,314.46c0,.17-1.6.25-3.47.77a31.38,31.38,0,0,0-3.28,1.32c0-.05.22-.38.78-.75a7.67,7.67,0,0,1,2.36-1.07A7.19,7.19,0,0,1,199.53,314.46Z" style="fill:#ff9a6c"></path><path d="M191.72,299.26a9.79,9.79,0,0,1,5,.45,11.75,11.75,0,0,1,4.42,2.4c-.09.16-2-1.05-4.57-1.9A45.47,45.47,0,0,0,191.72,299.26Z" style="fill:#ff9a6c"></path><path d="M200.08,318.38a4.12,4.12,0,0,1-.86-2.76,4.21,4.21,0,0,1,.69-2.82c.14.06-.22,1.27-.17,2.8S200.22,318.32,200.08,318.38Z" style="fill:#ff9a6c"></path><path d="M200.44,304.11a3.06,3.06,0,0,1,.12-2.1c.34-1.14.95-1.91,1.07-1.83a8.09,8.09,0,0,1-.57,2C200.74,303.22,200.59,304.12,200.44,304.11Z" style="fill:#ff9a6c"></path><path d="M199.57,310.28c-.14,0-.41-.72-.39-1.68s.33-1.7.47-1.66.07.77,0,1.67S199.71,310.25,199.57,310.28Z" style="fill:#ff9a6c"></path><path d="M318.64,340.73c-11.57,11-43.23,18.19-60.78,15.56s-47.35-22.08-47.35-22.08L221.84,302s35.54,12.93,36.45,12.78c0,0,46.22-21.8,58.27-14.82" style="fill:#7E57C2"></path><path d="M316.56,299.91s-.36-.14-1-.44a13.7,13.7,0,0,0-3.18-.73,29.08,29.08,0,0,0-5.27,0,62.8,62.8,0,0,0-7.05,1.1c-10.47,2.27-25,7.42-41.63,15.07l-.05,0h0l-.63-.11-.54-.16-1.07-.34-2.13-.7-4.33-1.49L240.69,309l-18.94-6.81.33-.16c-2.73,7.76-5.55,15.81-8.44,24.06-1,2.81-2,5.6-2.88,8.21l-.11-.31c6.86,4.4,13.76,8.35,20.54,11.88a129.51,129.51,0,0,0,20.18,8.63,46.62,46.62,0,0,0,10,1.94,74.67,74.67,0,0,0,9.58,0,110,110,0,0,0,17-2.42,102.17,102.17,0,0,0,13.58-3.9l1.44-.51,1.36-.56c.89-.37,1.76-.71,2.57-1.07l2.3-1.1,1.07-.51,1-.55a34.67,34.67,0,0,0,3.32-2,22.79,22.79,0,0,0,2.31-1.64l1.35-1.1.47-.37s-.14.14-.44.4l-1.32,1.15A21.57,21.57,0,0,1,314.6,344a34.4,34.4,0,0,1-3.31,2l-1,.56-1.07.53L307,348.2c-.82.36-1.68.71-2.57,1.09l-1.36.57-1.44.52a102.27,102.27,0,0,1-13.6,4,111.43,111.43,0,0,1-17,2.49,75.49,75.49,0,0,1-9.64,0A47.59,47.59,0,0,1,251.23,355,130.11,130.11,0,0,1,231,346.32c-6.8-3.54-13.71-7.48-20.59-11.89l-.17-.11.07-.19c.91-2.61,1.89-5.4,2.88-8.22,2.89-8.24,5.72-16.29,8.45-24.05l.08-.24.24.09c13,4.73,25.34,9.17,36.36,13l-.08-.13c16.71-7.61,31.24-12.71,41.77-14.91a62.17,62.17,0,0,1,7.09-1.06,29.55,29.55,0,0,1,5.3,0,13.69,13.69,0,0,1,3.19.8Z" style="fill:#263238"></path><g style="opacity:0.30000000000000004"><path d="M272.33,331.2a30.38,30.38,0,0,0-5.74-9.91c-2.38-3-4.95-5.92-6.82-9.28l1,32.86c3.32,1.93,7.91.47,10.18-2.63S273.43,334.89,272.33,331.2Z"></path></g><g style="opacity:0.30000000000000004"><path d="M238.05,351.92c12.11,7.37,25.62,9.46,39.73,8.08A66.58,66.58,0,0,0,316,343c-9.38,4.27-18.81,8.56-28.72,11.4s-26.28,3.26-34.79.73L238.72,350Z"></path></g><path d="M177.27,421.61c0,.1-1.23.05-3.17.38A20.81,20.81,0,0,0,167,424.6a14.12,14.12,0,0,0-5.42,5.21,7.83,7.83,0,0,0-.77,3,2.05,2.05,0,0,1-.12-.87,5.85,5.85,0,0,1,.56-2.32,13.51,13.51,0,0,1,5.49-5.5,19,19,0,0,1,7.36-2.53,16.64,16.64,0,0,1,2.36-.11A2.9,2.9,0,0,1,177.27,421.61Z"></path><path d="M270.75,329.33a31.35,31.35,0,0,0-4.32-7.66,193.74,193.74,0,0,0-21.86-26.22c-2.69-2.67-5.6-5.33-9.2-6.53s-8.09-.59-10.4,2.42l1.6,11.14c6.52,9.26,19.73,28.85,26.26,38.11,1.16,1.65,2.43,3.39,4.32,4.13,2.19.87,4.69.15,6.83-.85,2.75-1.29,5.38-3.18,6.67-5.93A11.59,11.59,0,0,0,270.75,329.33Z" style="fill:#ebebeb"></path><path d="M266.14,325.87a26.55,26.55,0,0,0-3.14.56A10.89,10.89,0,0,0,255.08,338a24,24,0,0,0,.62,3.12,2.31,2.31,0,0,1-.4-.77,9.57,9.57,0,0,1-.58-2.31,10.78,10.78,0,0,1,8.19-11.95,9.42,9.42,0,0,1,2.36-.29A2.57,2.57,0,0,1,266.14,325.87Z"></path><path d="M350.57,411.82c-.15,10.11-8,32.65-31.7,41.42-9.48,3.51-50,8.06-60,9.75-8.74,1.48-17.83.29-26.45,2.38-6.18,1.49-12,4.64-18.28,5.27-10.15,1-20.16-5-25.84-13.43s-7.5-19-7.14-29.23c.21-6.2,1.64-13.13,6.81-16.55,4.33-2.86,10.22-2.35,14.87-.06s8.35,6.12,11.94,9.86c6.45-9.58,22.49-16.87,35-21.79,10.74-4.24,37.26-10.76,45.52-2.68" style="fill:#7E57C2"></path><path d="M295.28,396.76l-.33-.26a7.41,7.41,0,0,0-1-.73,13.72,13.72,0,0,0-4.33-1.87c-4-1.1-10.23-1.21-17.9,0a111,111,0,0,0-12.57,2.69c-2.26.62-4.59,1.33-7,2.17s-4.8,1.86-7.3,2.9a135.44,135.44,0,0,0-15.48,7.56,63,63,0,0,0-7.72,5.21,32.6,32.6,0,0,0-6.73,7l-.16.22-.19-.19a69,69,0,0,0-7.39-7,21.46,21.46,0,0,0-9.4-4.46,13,13,0,0,0-10.29,2.08,12.55,12.55,0,0,0-3.52,4.22,20.62,20.62,0,0,0-1.87,5.32,48.07,48.07,0,0,0-.72,11.6,56.24,56.24,0,0,0,1.73,11.8A41.22,41.22,0,0,0,188,456.16a32.37,32.37,0,0,0,8.42,9,29.9,29.9,0,0,0,8.18,4.15,24.14,24.14,0,0,0,8.95,1.1c6.05-.42,11.5-3.23,17.16-4.84s11.59-1.77,17.22-1.95c2.82-.09,5.62-.2,8.35-.52s5.44-.83,8.11-1.18c10.71-1.47,20.9-2.77,30.4-4.18,4.75-.7,9.33-1.44,13.71-2.24,2.19-.41,4.34-.84,6.41-1.34a30.19,30.19,0,0,0,5.92-1.94,46.5,46.5,0,0,0,14.2-9.08c.63-.6,1.28-1.15,1.85-1.77l1.66-1.82a20,20,0,0,0,1.53-1.83l1.42-1.81c.82-1.26,1.69-2.42,2.37-3.63s1.39-2.33,1.91-3.49c.28-.56.56-1.12.82-1.66s.46-1.09.69-1.62a44.87,44.87,0,0,0,2.93-10c.09-.6.17-1.12.23-1.57s.06-.84.09-1.15c0-.61.08-.93.08-.93s0,.32,0,.94q0,.47-.06,1.14c-.06.46-.13,1-.2,1.58a43.93,43.93,0,0,1-2.86,10.12c-.22.53-.43,1.08-.67,1.63s-.54,1.1-.81,1.67c-.52,1.17-1.22,2.3-1.91,3.52s-1.55,2.39-2.36,3.66c-.47.6-.94,1.2-1.42,1.83a20.16,20.16,0,0,1-1.53,1.84c-.54.61-1.1,1.22-1.66,1.84s-1.23,1.18-1.85,1.78a49.17,49.17,0,0,1-4.12,3.46,48.5,48.5,0,0,1-10.16,5.73,30.55,30.55,0,0,1-6,2c-2.08.51-4.23.94-6.42,1.35q-6.59,1.23-13.73,2.27c-9.5,1.44-19.69,2.76-30.39,4.24-2.68.35-5.36.84-8.12,1.19s-5.57.43-8.4.53c-5.64.18-11.46.28-17.09,1.94-2.81.81-5.57,1.89-8.4,2.86a34.87,34.87,0,0,1-8.86,2,24.36,24.36,0,0,1-9.15-1.12,30.42,30.42,0,0,1-8.33-4.22,32.84,32.84,0,0,1-8.55-9.16,41.32,41.32,0,0,1-4.84-11.31,56.72,56.72,0,0,1-1.74-11.91,48.18,48.18,0,0,1,.74-11.72,20.33,20.33,0,0,1,1.93-5.45,12.81,12.81,0,0,1,3.65-4.38,12.05,12.05,0,0,1,5.16-2.22,16,16,0,0,1,5.52.06,22,22,0,0,1,9.6,4.56,70.07,70.07,0,0,1,7.43,7l-.35,0a33.28,33.28,0,0,1,6.83-7.07,62.94,62.94,0,0,1,7.78-5.22,134.39,134.39,0,0,1,15.55-7.55c2.5-1,4.92-2,7.32-2.88s4.74-1.54,7-2.15a109.8,109.8,0,0,1,12.62-2.65c7.7-1.12,13.94-1,18,.18a13.75,13.75,0,0,1,4.34,1.94,7.53,7.53,0,0,1,1,.76Z" style="fill:#263238"></path><path d="M211,469.23a24.71,24.71,0,0,0,.82-2.37,17.32,17.32,0,0,0,.12-6.77,92.41,92.41,0,0,0-2.34-9.89c-1-3.68-2.33-7.7-3.88-11.84s-3.21-8-4.84-11.48a30.2,30.2,0,0,0-5.32-8.56,12.31,12.31,0,0,0-5.76-3.43,14.25,14.25,0,0,0-2.48-.31,2.36,2.36,0,0,1,.65-.07,9.45,9.45,0,0,1,1.88.18,12.14,12.14,0,0,1,6,3.37c2.12,2.06,3.86,5.15,5.49,8.62s3.35,7.34,4.9,11.5,2.83,8.19,3.85,11.89a85.7,85.7,0,0,1,2.25,10,17.11,17.11,0,0,1-.29,6.88,10.54,10.54,0,0,1-.69,1.75A3.09,3.09,0,0,1,211,469.23Z" style="fill:#263238"></path><path d="M221.69,438.12c-.15,0-1-3-2.4-6.7s-2.65-6.59-2.51-6.66a7.86,7.86,0,0,1,1,1.82c.56,1.17,1.28,2.81,2,4.66s1.2,3.57,1.52,4.82A7.66,7.66,0,0,1,221.69,438.12Z" style="fill:#263238"></path><path d="M287.62,392.76a20.24,20.24,0,0,1,17.52-1.83" style="fill:#7E57C2"></path><path d="M305.14,390.93c0,.08-1-.25-2.6-.56a22.37,22.37,0,0,0-6.34-.27,22,22,0,0,0-6.15,1.58c-1.5.63-2.38,1.16-2.43,1.08a8.74,8.74,0,0,1,2.28-1.42A19.13,19.13,0,0,1,302.62,390,8.45,8.45,0,0,1,305.14,390.93Z" style="fill:#263238"></path><g style="opacity:0.30000000000000004"><path d="M210.73,416.82a112.8,112.8,0,0,1,33.68-22A84.22,84.22,0,0,1,284,388.57c3,.29,6.62,1.19,7.64,4.07-28.13-.4-60.59,10-76.8,28.59-1-1.14-2.86-2.84-3.84-4"></path></g><path d="M182.84,306.23a3.47,3.47,0,0,0-4,0,3.86,3.86,0,0,0-1.43,3.82,4.41,4.41,0,0,0,2.71,3.13,3.43,3.43,0,0,0,3.12-.22,3.61,3.61,0,0,0,1.27-3.52c-.19-1.3-1-2.09-1.65-3.23" style="fill:#ffbf9d"></path><path d="M186.28,302.8a3.45,3.45,0,0,0-4,0,3.87,3.87,0,0,0-1.43,3.82,4.4,4.4,0,0,0,2.7,3.13,3.45,3.45,0,0,0,3.13-.22,3.61,3.61,0,0,0,1.27-3.52c-.2-1.3-1-2.08-1.65-3.22" style="fill:#ffbf9d"></path><path d="M179.26,312.05a2.94,2.94,0,0,0-3.44,0,3.28,3.28,0,0,0-1.22,3.27,3.74,3.74,0,0,0,2.31,2.68,3,3,0,0,0,2.68-.19,3.08,3.08,0,0,0,1.09-3,7.81,7.81,0,0,0-1.42-2.76" style="fill:#ffbf9d"></path></g><g id="freepik--Hearts--inject-9"><path d="M186.1,151.79a5.7,5.7,0,0,0-2.26-2.55,5.44,5.44,0,0,0-3.22-.89,4.37,4.37,0,0,0-4,3.52,4.61,4.61,0,0,0-1.66-1,4.51,4.51,0,0,0-3.49.31,5.39,5.39,0,0,0-2.24,2.48,5.71,5.71,0,0,0-.55,3.37,7,7,0,0,0,2,3.84,9.72,9.72,0,0,0,4.12,2.09c2.48.66,5.73,1.45,5.73,1.45s1.84-2.44,3.58-4.33a9.71,9.71,0,0,0,2.36-4A6.9,6.9,0,0,0,186.1,151.79Z" style="fill:#7E57C2"></path><g style="opacity:0.7000000000000001"><path d="M186.1,151.79a5.7,5.7,0,0,0-2.26-2.55,5.44,5.44,0,0,0-3.22-.89,4.37,4.37,0,0,0-4,3.52,4.61,4.61,0,0,0-1.66-1,4.51,4.51,0,0,0-3.49.31,5.39,5.39,0,0,0-2.24,2.48,5.71,5.71,0,0,0-.55,3.37,7,7,0,0,0,2,3.84,9.72,9.72,0,0,0,4.12,2.09c2.48.66,5.73,1.45,5.73,1.45s1.84-2.44,3.58-4.33a9.71,9.71,0,0,0,2.36-4A6.9,6.9,0,0,0,186.1,151.79Z" style="fill:#fff"></path></g><path d="M118.56,342.51A5.7,5.7,0,0,0,116.3,340a5.44,5.44,0,0,0-3.22-.89,4.49,4.49,0,0,0-3.12,1.61,4.42,4.42,0,0,0-.9,1.92,4.35,4.35,0,0,0-1.66-1,4.43,4.43,0,0,0-3.49.31,5.45,5.45,0,0,0-2.25,2.47,5.78,5.78,0,0,0-.54,3.37,7,7,0,0,0,2,3.84,9.72,9.72,0,0,0,4.12,2.09c2.48.67,5.72,1.45,5.72,1.45s1.85-2.44,3.59-4.32a9.84,9.84,0,0,0,2.36-4A6.93,6.93,0,0,0,118.56,342.51Z" style="fill:#7E57C2"></path><g style="opacity:0.7000000000000001"><path d="M118.56,342.51A5.7,5.7,0,0,0,116.3,340a5.44,5.44,0,0,0-3.22-.89,4.49,4.49,0,0,0-3.12,1.61,4.42,4.42,0,0,0-.9,1.92,4.35,4.35,0,0,0-1.66-1,4.43,4.43,0,0,0-3.49.31,5.45,5.45,0,0,0-2.25,2.47,5.78,5.78,0,0,0-.54,3.37,7,7,0,0,0,2,3.84,9.72,9.72,0,0,0,4.12,2.09c2.48.67,5.72,1.45,5.72,1.45s1.85-2.44,3.59-4.32a9.84,9.84,0,0,0,2.36-4A6.93,6.93,0,0,0,118.56,342.51Z" style="fill:#fff"></path></g><path d="M388.25,342.07a10.49,10.49,0,0,0-.3-6.34,10.14,10.14,0,0,0-3.64-5.05,8.34,8.34,0,0,0-6.4-1.3,8.18,8.18,0,0,0-3.56,1.73,8.23,8.23,0,0,0-1.24-3.38,8.33,8.33,0,0,0-5.44-3.62,10.08,10.08,0,0,0-6.14,1,10.52,10.52,0,0,0-4.71,4.26,12.83,12.83,0,0,0-1.57,7.92,18.19,18.19,0,0,0,3.54,7.84c2.84,3.86,6.63,8.79,6.63,8.79s5.53-1.4,10.26-2.11a18.18,18.18,0,0,0,8.05-3A12.85,12.85,0,0,0,388.25,342.07Z" style="fill:#7E57C2"></path><g style="opacity:0.7000000000000001"><path d="M388.25,342.07a10.49,10.49,0,0,0-.3-6.34,10.14,10.14,0,0,0-3.64-5.05,8.34,8.34,0,0,0-6.4-1.3,8.18,8.18,0,0,0-3.56,1.73,8.23,8.23,0,0,0-1.24-3.38,8.33,8.33,0,0,0-5.44-3.62,10.08,10.08,0,0,0-6.14,1,10.52,10.52,0,0,0-4.71,4.26,12.83,12.83,0,0,0-1.57,7.92,18.19,18.19,0,0,0,3.54,7.84c2.84,3.86,6.63,8.79,6.63,8.79s5.53-1.4,10.26-2.11a18.18,18.18,0,0,0,8.05-3A12.85,12.85,0,0,0,388.25,342.07Z" style="fill:#fff"></path></g></g></svg>