<svg xmlns="http://www.w3.org/2000/svg" viewBox="0 0 500 500"><g id="freepik--background-complete--inject-12"><path d="M424.49,349.65c6.11-3.15,13.3-3.56,20.07-2.44,3.65.6,7.44,1.69,9.92,4.43s2.95,7.55.1,9.9c-1.69,1.4-4.05,1.61-6.25,1.58-5.31-.06-11.19-1-15.43,2.2-2.42,1.82-4,4.85-6.92,5.75s-6-.8-7.53-3.35a11.67,11.67,0,0,1-.85-8.62A13.17,13.17,0,0,1,424.49,349.65Z" style="fill:#ebebeb"></path><path d="M410.5,322.65c3.74,5.33,11,3.56,14.36.31s4.78-8,6.08-12.47c3-10.28,5.94-21.06,3.74-31.53a17.52,17.52,0,0,0-4-8.57c-2.2-2.32-5.58-3.7-8.67-2.89-3.66,1-5.93,4.55-7.58,8A75.21,75.21,0,0,0,407,307.72c0,5.19.59,10.64,3.52,14.93" style="fill:#ebebeb"></path><path d="M400.25,330.3c4.05-4.81,4.82-11.83,3-17.86s-5.88-11.15-10.58-15.34a57.1,57.1,0,0,0-18.93-11.17,20.35,20.35,0,0,0-8.52-1.45,9,9,0,0,0-7.15,4.33c-2,3.8-.08,8.41,2,12.17a143.08,143.08,0,0,0,12.44,18.94c3.72,4.81,8,9.55,13.68,11.72s11.58,1.92,14.59-2" style="fill:#ebebeb"></path><path d="M410.25,403.09a12.08,12.08,0,0,0,.34-2.43c.17-1.76.38-4,.64-6.61a97.29,97.29,0,0,1,1.49-9.7,74.79,74.79,0,0,1,3.52-11.45,42.35,42.35,0,0,1,5.85-10.36,22,22,0,0,1,7.39-6.14,20.71,20.71,0,0,1,6.22-1.94,11.67,11.67,0,0,0,2.42-.35,11.12,11.12,0,0,0-2.46,0,18.85,18.85,0,0,0-6.49,1.68,21.81,21.81,0,0,0-7.79,6.2,41.24,41.24,0,0,0-6.06,10.57,69,69,0,0,0-3.5,11.63,80.85,80.85,0,0,0-1.29,9.83c-.21,2.8-.29,5.08-.33,6.65A11,11,0,0,0,410.25,403.09Z" style="fill:#e0e0e0"></path><path d="M410.71,398a5.5,5.5,0,0,0,.06-1.13c0-.84,0-1.91,0-3.21,0-2.79,0-6.83.14-11.82.25-10,1.11-20.7,2.77-35.83,1.57-14.23,3.68-30.79,5.9-41.55.48-2.45,1-4.65,1.41-6.58s.8-3.6,1.16-4.95.55-2.31.75-3.13a4.13,4.13,0,0,0,.19-1.11,5.65,5.65,0,0,0-.39,1.06c-.24.81-.55,1.83-.93,3.08s-.84,3-1.32,4.92-1,4.12-1.56,6.56a366.68,366.68,0,0,0-6.21,38.56c-1.66,15.16-2.41,29-2.47,39-.06,5,0,9.05.17,11.84.08,1.3.15,2.37.2,3.21A4.07,4.07,0,0,0,410.71,398Z" style="fill:#e0e0e0"></path><path d="M410.77,371.37a21.1,21.1,0,0,0,0-3.36c-.13-2.16-.42-5.28-1-9.1a117.38,117.38,0,0,0-3-13.25A107.93,107.93,0,0,0,401.22,330c-4.6-10.91-10.85-19.83-16.28-25.35a41.3,41.3,0,0,0-3.83-3.56c-.59-.5-1.11-1-1.64-1.39l-1.49-1a21.75,21.75,0,0,0-2.82-1.81c-.16.22,4,2.67,9.27,8.27a87.92,87.92,0,0,1,15.87,25.26,122.89,122.89,0,0,1,5.57,15.54A133.41,133.41,0,0,1,409,359c.7,3.79,1.1,6.87,1.34,9A21.62,21.62,0,0,0,410.77,371.37Z" style="fill:#e0e0e0"></path><polygon points="385.04 418.34 390.47 454.89 432.51 454.89 437.33 418.34 385.04 418.34" style="fill:#e0e0e0"></polygon><rect x="380.5" y="403.93" width="62.43" height="14.41" style="fill:#e0e0e0"></rect><path d="M436.18,430.29a1.42,1.42,0,0,1-.21.33l-.69.93-2.66,3.5-.12.16-.12-.16-6.55-9.3h.38l-6.45,9.37-.2.29-.23-.27-7.65-9.34h.44l-.42.54-6.84,8.8-.23.29-.21-.31L398,425.76h.38l-8,9.29-.14.17-.11-.19-2.49-4.29-.64-1.14a1.7,1.7,0,0,1-.19-.41,3,3,0,0,1,.27.37l.7,1.1c.64,1,1.51,2.43,2.61,4.21l-.24,0c2-2.45,4.69-5.64,7.81-9.41l.2-.23.18.25,6.51,9.33-.44,0,6.83-8.81.42-.54.22-.28.22.28,7.63,9.35-.43,0c2.35-3.37,4.54-6.51,6.51-9.32l.19-.28.19.28,6.41,9.39h-.23c1.17-1.44,2.1-2.58,2.77-3.42.31-.35.55-.64.75-.88S436.17,430.28,436.18,430.29Z" style="fill:#fff"></path><path d="M438,418.1c0,.16-11.76.29-26.27.29s-26.28-.13-26.28-.29,11.76-.29,26.28-.29S438,417.94,438,418.1Z" style="fill:#fafafa"></path><polygon points="79.68 339.62 72.96 397.1 110.09 419.62 122.69 419.62 148.03 397.1 146.8 340.2 79.68 339.62" style="fill:#ebebeb"></polygon><g style="opacity:0.6000000000000001"><path d="M131.61,374.23c-1.52-3.06-5.55-4.36-8.82-3.36a11.43,11.43,0,0,0-6.91,7,11.49,11.49,0,0,0-7-7c-3.27-1-7.3.3-8.82,3.36a7.94,7.94,0,0,0-.37,5.54,16.79,16.79,0,0,0,2.52,5,38.39,38.39,0,0,0,13.62,11.91h0a38.32,38.32,0,0,0,13.6-11.91,16.79,16.79,0,0,0,2.52-5A7.94,7.94,0,0,0,131.61,374.23Z" style="fill:#fff"></path></g><path d="M115.22,419.37c-.08,0,.1-14.7.41-32.84s.61-32.84.68-32.84-.1,14.71-.41,32.85S115.29,419.37,115.22,419.37Z" style="fill:#e0e0e0"></path><path d="M116,379.64a2.32,2.32,0,0,1-1.33.2,2.4,2.4,0,0,1-1.3-.3,4.86,4.86,0,0,1,1.31,0A5.93,5.93,0,0,1,116,379.64Z" style="fill:#e0e0e0"></path><path d="M120,368.58a5.36,5.36,0,0,1-1.9,1.32,5.06,5.06,0,0,1-2.23.62c0-.08,1-.33,2.11-.87S119.91,368.51,120,368.58Z" style="fill:#e0e0e0"></path><path d="M118.3,372a2.26,2.26,0,0,1-1.06.06c-.59,0-1-.14-1-.22a2.29,2.29,0,0,1,1.07-.06C117.84,371.81,118.3,371.91,118.3,372Z" style="fill:#e0e0e0"></path><path d="M61.29,450.45a43.15,43.15,0,0,0,25.17,4.25c8.75-1.06,17.42-5.7,21.61-13.46,2.08-3.85,3-8.22,3.71-12.53a26.83,26.83,0,0,0-.51-10.25,13.29,13.29,0,0,0-2.65-5.47A46.37,46.37,0,0,0,89,397.87a52,52,0,0,0-37.75,2.06c-5.9,2.79-10.67,7-13.13,13.62a17.36,17.36,0,0,0-.75,7.93,27.21,27.21,0,0,0,4,11.41C44.6,438.07,49.12,444.25,61.29,450.45Z" style="fill:#ebebeb"></path><g style="opacity:0.6000000000000001"><path d="M98.22,427.78c-1.12-7.52-6.54-13.73-12.61-18.3-6.31-4.75-13.8-8.3-21.7-8.56-7.24-.24-14.78,2.65-19.21,8.29l0,0a16.29,16.29,0,0,0-3.59,13.93c1.17,4.74,4,8.92,7.07,12.7a42.64,42.64,0,0,0,20.38,13.34c8,2.55,17.43,1.45,23.58-4.22A19.75,19.75,0,0,0,98.22,427.78Z" style="fill:#fff"></path></g><path d="M85.41,427.62c-.86-2.75-4.12-5.74-7-6.1a16,16,0,0,0-8.71,1.33,9.67,9.67,0,0,0-5.35,6.74,9,9,0,0,0,3.33,8.28,11.79,11.79,0,0,0,16.14-2.08A9.27,9.27,0,0,0,85.41,427.62Z" style="fill:#ebebeb"></path><path d="M59.46,428.37a3.31,3.31,0,0,1-.92,2.94,6.27,6.27,0,0,1-2.81,1.49c-2.34.66-5,.63-6.94-1a4.42,4.42,0,0,1-1.46-2.48c-.59-3,2.25-4.95,4.89-5a11.87,11.87,0,0,1,4.65,1.07,4.23,4.23,0,0,1,2.53,2.74Z" style="fill:#ebebeb"></path><path d="M68.82,416.19a2.94,2.94,0,0,1-2.68.54,5.57,5.57,0,0,1-2.37-1.55,6.53,6.53,0,0,1-2.17-5.83,3.92,3.92,0,0,1,1.3-2.21c2.12-1.76,4.82-.37,6,1.66a10.4,10.4,0,0,1,1.17,4.07A3.75,3.75,0,0,1,69,416Z" style="fill:#ebebeb"></path><path d="M60,418.93a5.56,5.56,0,0,0-2.65-5.55,12.93,12.93,0,0,0-4.63-1.78h0a3.3,3.3,0,0,0-2.91,1.3,4,4,0,0,0-.73,1.74,5.27,5.27,0,0,0,1.15,4,8.76,8.76,0,0,0,3.46,2.54c1.75.77,3.91,1.13,5.41-.51A3.64,3.64,0,0,0,60,418.93Z" style="fill:#ebebeb"></path><path d="M112.06,426.25a2.59,2.59,0,0,1,0-.57,13.72,13.72,0,0,0,0-1.59,21.44,21.44,0,0,0-1-5.74,31.55,31.55,0,0,0-3.64-7.83,36.74,36.74,0,0,0-6.76-8.12,26.24,26.24,0,0,0-9.16-5.14A37.09,37.09,0,0,0,83,395.57c-2.47-.22-4.48-.26-5.87-.3l-1.59,0a2.05,2.05,0,0,1-.56-.06,2.05,2.05,0,0,1,.56-.06l1.6-.05c1.38,0,3.4-.05,5.89.13a35.74,35.74,0,0,1,8.61,1.59,26.27,26.27,0,0,1,9.37,5.21,36.64,36.64,0,0,1,6.83,8.27,30.61,30.61,0,0,1,3.58,8,20.26,20.26,0,0,1,.8,5.85,10.07,10.07,0,0,1-.11,1.6A2.11,2.11,0,0,1,112.06,426.25Z" style="fill:#e0e0e0"></path><path d="M78.66,400.85l.17,0,.5.1c.43.11,1.09.21,1.9.47a29.79,29.79,0,0,1,6.62,2.82c.65.39,1.34.8,2,1.27s1.4,1,2.08,1.55a31.29,31.29,0,0,1,10.41,15.36,39.36,39.36,0,0,1,1.72,12.94,24.35,24.35,0,0,1-2.53,10.33,16.73,16.73,0,0,1-2.33,3.39,17.25,17.25,0,0,1-2.28,2.1,14.74,14.74,0,0,1-1.65,1.07l-.44.24-.16.08a.68.68,0,0,1,.14-.1l.44-.27a16.92,16.92,0,0,0,1.6-1.11A16.15,16.15,0,0,0,99.11,449a17.14,17.14,0,0,0,2.28-3.38,24.48,24.48,0,0,0,2.45-10.25,39.66,39.66,0,0,0-1.73-12.85,30.63,30.63,0,0,0-6.23-11.31,30.08,30.08,0,0,0-4.07-4c-.67-.59-1.39-1.06-2-1.55s-1.36-.88-2-1.28a30.55,30.55,0,0,0-6.55-2.88c-.8-.28-1.46-.4-1.88-.52l-.5-.13Z" style="fill:#e0e0e0"></path><path d="M111.78,421.52a6.07,6.07,0,0,1-1,1.17,17.43,17.43,0,0,1-2.77,2.37,15.77,15.77,0,0,1-3.24,1.7,6,6,0,0,1-1.45.43,13.1,13.1,0,0,1,1.38-.61,19.47,19.47,0,0,0,3.15-1.75A38.16,38.16,0,0,0,111.78,421.52Z" style="fill:#e0e0e0"></path><path d="M168.32,449.78A43.15,43.15,0,0,1,143.15,454c-8.76-1.07-17.42-5.7-21.61-13.46-2.08-3.86-3-8.22-3.71-12.54a26.76,26.76,0,0,1,.5-10.24,13.48,13.48,0,0,1,2.65-5.47c5-6.7,11-13.09,18.8-16.22,12.81-3.1,27.27-2.21,38.62,3.15,5.9,2.79,10.67,7,13.14,13.63a17.34,17.34,0,0,1,.74,7.93,27.11,27.11,0,0,1-4,11.4C185,437.41,180.49,443.59,168.32,449.78Z" style="fill:#ebebeb"></path><g style="opacity:0.6000000000000001"><path d="M131.39,427.11c1.12-7.52,6.53-13.72,12.6-18.29,6.31-4.76,13.81-8.31,21.71-8.57,7.23-.24,14.78,2.65,19.21,8.3l0,0a16.28,16.28,0,0,1,3.6,13.93c-1.18,4.74-4,8.93-7.07,12.7A42.71,42.71,0,0,1,161,448.49c-8,2.54-17.43,1.45-23.59-4.22A19.8,19.8,0,0,1,131.39,427.11Z" style="fill:#fff"></path></g><path d="M144.2,427c.86-2.74,4.12-5.74,7-6.09a16,16,0,0,1,8.72,1.32,9.72,9.72,0,0,1,5.35,6.74,9,9,0,0,1-3.34,8.29,11.32,11.32,0,0,1-8.84,2.13,11.48,11.48,0,0,1-7.29-4.22A9.23,9.23,0,0,1,144.2,427Z" style="fill:#ebebeb"></path><path d="M170.14,427.7a3.31,3.31,0,0,0,.92,2.94,6.31,6.31,0,0,0,2.82,1.49c2.34.66,5,.64,6.93-1a4.45,4.45,0,0,0,1.47-2.48c.58-3.06-2.26-4.95-4.89-5a11.83,11.83,0,0,0-4.65,1.07,4.23,4.23,0,0,0-2.53,2.74C170.19,427.52,170.16,427.61,170.14,427.7Z" style="fill:#ebebeb"></path><path d="M160.79,415.52a2.94,2.94,0,0,0,2.68.55,5.69,5.69,0,0,0,2.37-1.55,6.57,6.57,0,0,0,2.17-5.84,3.89,3.89,0,0,0-1.31-2.2c-2.12-1.77-4.81-.37-6,1.65a10.44,10.44,0,0,0-1.17,4.08,3.75,3.75,0,0,0,1,3.14A1.54,1.54,0,0,0,160.79,415.52Z" style="fill:#ebebeb"></path><path d="M169.66,418.26a5.54,5.54,0,0,1,2.65-5.55,13,13,0,0,1,4.63-1.78h0a3.35,3.35,0,0,1,2.91,1.31,4.09,4.09,0,0,1,.73,1.73,5.34,5.34,0,0,1-1.16,4,8.8,8.8,0,0,1-3.45,2.53c-1.76.77-3.91,1.13-5.42-.5A3.75,3.75,0,0,1,169.66,418.26Z" style="fill:#ebebeb"></path><path d="M117.54,424.16a1.48,1.48,0,0,1,0-.5c0-.32,0-.8.07-1.42a29.22,29.22,0,0,1,.9-5.15,30.6,30.6,0,0,1,2.94-7.18,28.28,28.28,0,0,1,6-7.38,29.78,29.78,0,0,1,4-2.9,34.39,34.39,0,0,1,4.09-2.09,37.65,37.65,0,0,1,7.41-2.29,38.51,38.51,0,0,1,5.18-.7,15.38,15.38,0,0,1,1.91,0,11.58,11.58,0,0,1-1.89.25,47.79,47.79,0,0,0-5.12.86,40.06,40.06,0,0,0-7.29,2.38,35.87,35.87,0,0,0-4,2.09,30.38,30.38,0,0,0-3.91,2.85,28.89,28.89,0,0,0-5.92,7.21,31.66,31.66,0,0,0-3,7,32.52,32.52,0,0,0-1.06,5.07A18,18,0,0,1,117.54,424.16Z" style="fill:#e0e0e0"></path><path d="M151,400.19l-.16.05-.47.12-.76.2a10.42,10.42,0,0,0-1,.29,30.65,30.65,0,0,0-6.25,2.68c-.64.33-1.26.77-1.92,1.18s-1.31.92-2,1.42-1.36,1.06-2,1.69c-.32.31-.67.61-1,.94l-1,1a30.83,30.83,0,0,0-3.61,4.73,29,29,0,0,0-4.24,11.95,30.64,30.64,0,0,0-.18,5.94c0,.47.07.94.11,1.4s.12.91.18,1.36c.1.89.33,1.74.48,2.57s.41,1.61.65,2.36.47,1.46.76,2.12a30.64,30.64,0,0,0,3.16,6c.21.34.42.63.61.88l.47.63.28.39.09.14-.11-.12-.31-.38c-.13-.17-.29-.38-.48-.61a10.42,10.42,0,0,1-.64-.87,29,29,0,0,1-3.25-6c-.3-.65-.51-1.38-.78-2.13s-.45-1.54-.67-2.37-.39-1.68-.5-2.58c-.06-.45-.14-.91-.19-1.37s-.08-.94-.12-1.41a29.66,29.66,0,0,1,4.45-18.06,31.81,31.81,0,0,1,3.65-4.76l1-1c.33-.33.68-.63,1-.94.65-.63,1.36-1.15,2-1.7s1.34-1,2-1.41,1.3-.84,1.95-1.17a29.62,29.62,0,0,1,6.31-2.61,7.94,7.94,0,0,1,1-.27l.77-.17.47-.1Z" style="fill:#e0e0e0"></path><path d="M117.82,420.85a14.65,14.65,0,0,1,1.12,1,21.29,21.29,0,0,0,2.86,2.26,22.05,22.05,0,0,0,3.22,1.73,13.69,13.69,0,0,1,1.4.61,6.27,6.27,0,0,1-1.47-.43,17,17,0,0,1-3.3-1.67A17.53,17.53,0,0,1,118.8,422,6.5,6.5,0,0,1,117.82,420.85Z" style="fill:#e0e0e0"></path><path d="M143.85,371.17c2.09-3.62,6.08-6.77,5.72-10.94-.38-4.42-6.69-9.5-10.24-12.16l5.06-9.22c11.54,1.57,23.46,9.27,29.35,19.33a32,32,0,0,1,4.62,16.41,23.74,23.74,0,0,1-6,15.77,19.35,19.35,0,0,1-5.57,4.19c-7,3.46-16.81,2.1-22.06-3.65a13.91,13.91,0,0,1-3.5-7.18A20.87,20.87,0,0,1,143.85,371.17Z" style="fill:#ebebeb"></path><path d="M166,394.86s0,.05-.15.11-.27.14-.48.23a13,13,0,0,1-2,.66,27.87,27.87,0,0,1-3.21.64,17,17,0,0,1-4.35-.11,22.25,22.25,0,0,1-10.31-4.46,16,16,0,0,1-2.38-2.29,12.91,12.91,0,0,1-1.81-2.94,16.87,16.87,0,0,1-1.05-3.41,17.79,17.79,0,0,1-.23-3.66A16,16,0,0,1,142,372.7a13.16,13.16,0,0,1,.91-1.49c.34-.46.68-.92,1.06-1.34.74-.84,1.53-1.59,2.26-2.34a15.6,15.6,0,0,0,1.94-2.35,7,7,0,0,0,1.05-2.59,8.66,8.66,0,0,0-.71-5,13.33,13.33,0,0,0-2.36-3.53,25.7,25.7,0,0,0-2.34-2.24l-1.57-1.33a3.67,3.67,0,0,1-.54-.48,3.45,3.45,0,0,1,.61.4c.38.27.94.68,1.64,1.24a24.37,24.37,0,0,1,2.43,2.2,13.14,13.14,0,0,1,2.49,3.58,9,9,0,0,1,.81,5.22,7.53,7.53,0,0,1-1.1,2.78,16.19,16.19,0,0,1-2,2.43c-.73.77-1.51,1.52-2.23,2.34-.37.41-.69.86-1,1.3a14.87,14.87,0,0,0-.87,1.44,15.7,15.7,0,0,0-1.84,6.69,17.33,17.33,0,0,0,.23,3.54,16.3,16.3,0,0,0,1,3.29,12.37,12.37,0,0,0,1.72,2.82,16.05,16.05,0,0,0,2.29,2.23A22.22,22.22,0,0,0,155.9,396a17,17,0,0,0,4.25.19,30.53,30.53,0,0,0,3.2-.54,15.71,15.71,0,0,0,2-.55C165.77,395,166,394.84,166,394.86Z" style="fill:#e0e0e0"></path><g style="opacity:0.6000000000000001"><path d="M147.23,377.1c2.48-4.39,8.21-5,9.78-4.23a8.76,8.76,0,0,1,7,4.82,8.54,8.54,0,0,1-.54,8.85,10.79,10.79,0,0,1-15.57.65C145.46,384.51,145.44,380.27,147.23,377.1Z" style="fill:#fff"></path></g><path d="M149.4,367.72a3.68,3.68,0,0,1,.38-.14,11.37,11.37,0,0,1,1.12-.33,15.76,15.76,0,0,1,4.24-.46,17.84,17.84,0,0,1,3,.31,17.58,17.58,0,0,1,3.26,1,16.22,16.22,0,0,1,9.92,11.29,17,17,0,0,1,.46,6.31,16,16,0,0,1-1,4.16,10.11,10.11,0,0,1-.47,1.06,2.87,2.87,0,0,1-.19.36,2,2,0,0,1,.14-.39c.09-.25.27-.59.42-1.07a17,17,0,0,0,.91-4.14,20,20,0,0,0,0-2.92,18.63,18.63,0,0,0-.56-3.31,16.2,16.2,0,0,0-9.77-11.12,18.51,18.51,0,0,0-3.21-1,17.49,17.49,0,0,0-2.9-.34,16.38,16.38,0,0,0-4.22.37,11.18,11.18,0,0,0-1.12.28Z" style="fill:#e0e0e0"></path><path d="M170.36,378c0-.08.56-.31,1.09-.84s.78-1.12.86-1.09a1.79,1.79,0,0,1-.66,1.28A1.83,1.83,0,0,1,170.36,378Z" style="fill:#e0e0e0"></path><path d="M168.87,375.43c-.05-.07.66-.53,1.32-1.31s1-1.53,1.09-1.5a4.24,4.24,0,0,1-2.41,2.81Z" style="fill:#e0e0e0"></path><path d="M153.52,369.63a2.18,2.18,0,0,1,.25-1.62,2.26,2.26,0,0,1,1.09-1.22c0,.07-.47.56-.84,1.34S153.6,369.63,153.52,369.63Z" style="fill:#e0e0e0"></path><path d="M151,369.77a1.48,1.48,0,0,1-.08-1.33c.22-.75.77-1.12.81-1.06s-.35.48-.55,1.14A12.08,12.08,0,0,0,151,369.77Z" style="fill:#e0e0e0"></path><path d="M157.05,343a2.25,2.25,0,0,1,.34.13c.21.09.55.21,1,.42a20.32,20.32,0,0,1,3.28,2,21.55,21.55,0,0,1,4.1,4,21.17,21.17,0,0,1,4.72,12.94,21.92,21.92,0,0,1-1.79,9.32c-.18.42-.36.72-.46.94a2.21,2.21,0,0,1-.18.32,1.59,1.59,0,0,1,.13-.34c.09-.23.25-.54.41-1a23.34,23.34,0,0,0,1.12-3.65,22.15,22.15,0,0,0,.52-5.63,22,22,0,0,0-8.69-16.75,22.7,22.7,0,0,0-3.21-2.07c-.39-.22-.72-.36-.93-.47A1.34,1.34,0,0,1,157.05,343Z" style="fill:#e0e0e0"></path><path d="M66.6,268.31A14.22,14.22,0,0,1,74,265.25a15.34,15.34,0,0,1,15.18,8.43l-18.06,21a18.2,18.2,0,0,1-9.33-12.14A15,15,0,0,1,66.6,268.31Z" style="fill:#ebebeb"></path><path d="M69.12,276.26a4.69,4.69,0,0,1,1.34-2,8.4,8.4,0,0,1,11-1,4.86,4.86,0,0,1,1.7,1.75c-.07.07-.67-.66-1.91-1.42a8.59,8.59,0,0,0-10.47,1C69.65,275.49,69.2,276.31,69.12,276.26Z" style="fill:#e0e0e0"></path><path d="M169.35,274.49a14.22,14.22,0,0,0-7.14-3.55,15.33,15.33,0,0,0-15.71,7.39l16.61,22.19A18.13,18.13,0,0,0,173.23,289,14.94,14.94,0,0,0,169.35,274.49Z" style="fill:#ebebeb"></path><path d="M115.45,264.8S88.56,262.58,74.71,285c-9.16,14.85-9.38,30.87-6.7,38.55,0,0,11,29.76,45.07,29.92,0,0,44.72,0,51.05-37.92C169.8,281.69,136.13,264.49,115.45,264.8Z" style="fill:#ebebeb"></path><path d="M139.9,318.63l-.08-.09a31.75,31.75,0,0,0-15.62-10.16l-1.7-.49a31.49,31.49,0,0,0-10.26-1.21,41.47,41.47,0,0,0-12.92,2.53c-6,2.31-11.39,6.61-14.06,12.45s-2.18,13.26,2,18.12a27.57,27.57,0,0,0,14,8.16,55.19,55.19,0,0,0,17.84,1.48,30.48,30.48,0,0,0,19.39-9.09,18,18,0,0,0,4.73-10.59A14.46,14.46,0,0,0,139.9,318.63Z" style="fill:#f5f5f5"></path><path d="M123.9,303.43a2.19,2.19,0,0,0,2.11,2.2,2.09,2.09,0,0,0,2.25-2,2.19,2.19,0,0,0-2.11-2.2A2.09,2.09,0,0,0,123.9,303.43Z" style="fill:#e0e0e0"></path><path d="M96.4,304.29a2.18,2.18,0,0,0,2.1,2.2,2.09,2.09,0,0,0,2.25-2,2.18,2.18,0,0,0-2.1-2.2A2.08,2.08,0,0,0,96.4,304.29Z" style="fill:#e0e0e0"></path><path d="M122.61,315.11c0,3.41-4.12,6.17-9.2,6.17s-9.21-2.76-9.21-6.17,4.12-6.17,9.21-6.17S122.61,311.7,122.61,315.11Z" style="fill:#e0e0e0"></path><path d="M114.36,317.29a4.84,4.84,0,0,1-.08,1c-.06.62-.11,1.51-.14,2.62a18.48,18.48,0,0,1-.41,3.93,8.34,8.34,0,0,1-.89,2.2,5.06,5.06,0,0,1-4.31,2.54,7.21,7.21,0,0,1-2.36-.32,10,10,0,0,1-3.45-2,21.21,21.21,0,0,1-1.89-1.85,3.64,3.64,0,0,1-.61-.76s.3.19.76.61,1.12,1,2,1.7a10.34,10.34,0,0,0,3.34,1.8,5.75,5.75,0,0,0,4.43-.37,5.93,5.93,0,0,0,2.49-3.69,21.65,21.65,0,0,0,.52-3.82,19.16,19.16,0,0,1,.32-2.63A2.42,2.42,0,0,1,114.36,317.29Z" style="fill:#e0e0e0"></path><path d="M126.43,325.06a2.72,2.72,0,0,1-.5.66,18.43,18.43,0,0,1-1.58,1.63,9.74,9.74,0,0,1-2.86,1.84,5.93,5.93,0,0,1-4.19.16,4.67,4.67,0,0,1-1.84-1.25,6.52,6.52,0,0,1-1.1-1.74,8.5,8.5,0,0,1-.64-3.34,16.38,16.38,0,0,1,.12-2.27c.07-.53.13-.82.17-.81a2.84,2.84,0,0,1,0,.83c0,.53,0,1.3,0,2.23a9.27,9.27,0,0,0,.72,3.16,4.9,4.9,0,0,0,2.66,2.67,5.58,5.58,0,0,0,3.81-.12,10.15,10.15,0,0,0,2.79-1.66C125.54,325.85,126.36,325,126.43,325.06Z" style="fill:#e0e0e0"></path><path d="M117,332.25c.05.05-.25.4-.88.79a6.31,6.31,0,0,1-2.72.88,6.4,6.4,0,0,1-2.84-.4c-.68-.28-1-.58-1-.64s.45.09,1.12.26a8.27,8.27,0,0,0,2.67.22,8,8,0,0,0,2.59-.67C116.56,332.41,116.94,332.18,117,332.25Z" style="fill:#e0e0e0"></path><path d="M113.12,310.83c0,.19-.45.4-1.2.62a20.77,20.77,0,0,0-2.74.91,7.17,7.17,0,0,0-2.23,1.56c-.5.51-.76.93-1,.88s-.26-.61.13-1.42a5,5,0,0,1,2.47-2.29,7.43,7.43,0,0,1,3.19-.62C112.61,310.5,113.11,310.64,113.12,310.83Z" style="fill:#fff"></path><path d="M99.71,297.52c0,.39-.53.67-1.19,1s-1.5.57-2.41.94-1.72.74-2.39,1-1.21.4-1.51.15-.27-.86.2-1.62a5.58,5.58,0,0,1,2.65-2.11,5.66,5.66,0,0,1,3.38-.33C99.3,296.72,99.76,297.15,99.71,297.52Z" style="fill:#e0e0e0"></path><path d="M133.32,298c-.29.27-.87.13-1.62-.14s-1.67-.65-2.72-1-2-.61-2.77-.85-1.3-.49-1.37-.87.42-.83,1.35-1.1a6.79,6.79,0,0,1,6.73,2.28C133.5,297.05,133.6,297.71,133.32,298Z" style="fill:#e0e0e0"></path><path d="M166.31,282.25c-.09,0-.48-.81-1.5-1.86a8.83,8.83,0,0,0-4.9-2.61,8.93,8.93,0,0,0-5.47.93c-1.3.68-1.94,1.37-2,1.29a4.87,4.87,0,0,1,1.81-1.63,8.43,8.43,0,0,1,10.87,1.76A4.8,4.8,0,0,1,166.31,282.25Z" style="fill:#e0e0e0"></path><path d="M162.72,296.59c-.1,0-.42-1.18-1.14-3-.37-.94-.84-2-1.44-3.2a38,38,0,0,0-2.18-3.69,38.68,38.68,0,0,0-2.62-3.4c-.87-1-1.69-1.86-2.41-2.55a32.53,32.53,0,0,1-2.34-2.26,2.61,2.61,0,0,1,.75.46c.46.33,1.1.84,1.86,1.51a30.83,30.83,0,0,1,2.52,2.5,34.58,34.58,0,0,1,2.7,3.42,32.11,32.11,0,0,1,2.18,3.78,28.83,28.83,0,0,1,1.35,3.29,21.88,21.88,0,0,1,.64,2.31A2.94,2.94,0,0,1,162.72,296.59Z" style="fill:#e0e0e0"></path><path d="M72.23,291.33a2.67,2.67,0,0,1,.15-.87c.07-.28.16-.62.28-1s.25-.83.44-1.3a30.34,30.34,0,0,1,1.45-3.28,30.23,30.23,0,0,1,5.12-7.11,29.74,29.74,0,0,1,2.65-2.41c.39-.33.77-.6,1.09-.84s.62-.43.86-.58a2.82,2.82,0,0,1,.78-.42c0,.08-1,.8-2.48,2.14-.76.66-1.62,1.5-2.53,2.46a40.13,40.13,0,0,0-2.74,3.35A36.55,36.55,0,0,0,75,285.12c-.63,1.17-1.15,2.25-1.54,3.18C72.68,290.16,72.32,291.36,72.23,291.33Z" style="fill:#e0e0e0"></path><path d="M150.57,340.26a5.13,5.13,0,0,1-.58.54c-.4.34-1,.88-1.76,1.47a47.38,47.38,0,0,1-7.08,4.55,59,59,0,0,1-11.59,4.63,67.39,67.39,0,0,1-7.22,1.56,56.27,56.27,0,0,1-7.91.65,48.5,48.5,0,0,1-7.91-.6,56.32,56.32,0,0,1-7.22-1.57A58.27,58.27,0,0,1,93,349.3c-1-.43-1.88-.82-2.75-1.26-.44-.22-.86-.43-1.27-.65s-.82-.42-1.2-.65a33.92,33.92,0,0,1-6.82-4.94l-.52-.47c-.16-.16-.29-.32-.42-.46l-.65-.71a3.68,3.68,0,0,1-.51-.62,5.48,5.48,0,0,1,.59.54l.69.68c.13.13.27.28.43.43l.54.45A36.27,36.27,0,0,0,88,346.39c.38.23.78.44,1.2.64l1.26.63c.87.42,1.8.79,2.75,1.22A62.35,62.35,0,0,0,99.44,351a55.79,55.79,0,0,0,7.16,1.53,47.62,47.62,0,0,0,7.83.58,55.28,55.28,0,0,0,7.83-.63,66.88,66.88,0,0,0,7.16-1.52A61,61,0,0,0,141,346.47a51.54,51.54,0,0,0,7.13-4.38c.82-.56,1.4-1.07,1.82-1.37A3.46,3.46,0,0,1,150.57,340.26Z" style="fill:#e0e0e0"></path><path d="M113.26,349.57a.82.82,0,0,1-.05-.26c0-.18,0-.44-.08-.77,0-.66-.1-1.63-.12-2.82-.05-2.39,0-5.68.08-9.32s.25-6.93.38-9.31c.07-1.19.13-2.15.18-2.82,0-.3,0-.56.07-.76a1.14,1.14,0,0,1,0-.27.8.8,0,0,1,0,.27c0,.21,0,.46,0,.77,0,.71-.05,1.66-.09,2.82-.08,2.42-.18,5.69-.3,9.31s-.16,6.92-.16,9.31c0,1.19,0,2.15,0,2.82A10,10,0,0,1,113.26,349.57Z" style="fill:#e0e0e0"></path><path d="M71.26,291.66a.89.89,0,0,1-.27-.13c-.18-.11-.45-.24-.76-.46a13.51,13.51,0,0,1-2.48-2.1A15.18,15.18,0,0,1,65,285a15,15,0,0,1-1.39-5.73,14.6,14.6,0,0,1,1-5.81,14.88,14.88,0,0,1,2.44-4.16A13.7,13.7,0,0,1,69.46,267a7.55,7.55,0,0,1,.73-.5l.26-.16s-.33.26-.92.74a15,15,0,0,0-2.26,2.3,15.62,15.62,0,0,0-2.36,4.12,15.08,15.08,0,0,0-1,5.71,14.9,14.9,0,0,0,1.36,5.63,15.31,15.31,0,0,0,5,6.11C70.91,291.42,71.28,291.64,71.26,291.66Z" style="fill:#e0e0e0"></path><path d="M166.72,272.57s.09,0,.26.12a3.87,3.87,0,0,1,.68.45,7.66,7.66,0,0,1,1.91,2.31,13.49,13.49,0,0,1,1.44,4.21,12.91,12.91,0,0,1-.22,5.43,17.53,17.53,0,0,1-2.14,5,23.88,23.88,0,0,1-2.79,3.46c-.86.92-1.59,1.64-2.08,2.14l-.58.58a1.32,1.32,0,0,1-.21.19s0-.09.17-.23.3-.35.54-.61l2-2.2a25.62,25.62,0,0,0,2.71-3.47,17.85,17.85,0,0,0,2.09-4.94,12.73,12.73,0,0,0,.23-5.32,13.65,13.65,0,0,0-1.35-4.16,7.92,7.92,0,0,0-1.81-2.32C167.06,272.77,166.7,272.6,166.72,272.57Z" style="fill:#e0e0e0"></path><path d="M113.88,268a1.83,1.83,0,0,1,0,.38c0,.29,0,.65-.06,1.11-.06,1-.14,2.38-.24,4.08-.19,3.45-.39,8.21-.47,13.47s0,10,.11,13.48c0,1.7.1,3.09.13,4.08q0,.69,0,1.11a2.29,2.29,0,0,1,0,.39,1.65,1.65,0,0,1-.05-.38c0-.28,0-.65-.08-1.11-.07-1-.14-2.36-.22-4.08-.15-3.45-.25-8.22-.18-13.49s.31-10,.55-13.48c.12-1.72.23-3.11.32-4.07l.12-1.11A1.52,1.52,0,0,1,113.88,268Z" style="fill:#e0e0e0"></path><path d="M81.06,371.77c-2.44-3.4-6.57-6.6-6.21-10.77.38-4.42,6.69-9.51,10.24-12.16L80,339.62c-11.54,1.57-23.46,9.27-29.35,19.32a32.07,32.07,0,0,0-4.62,16.42,23.74,23.74,0,0,0,6,15.77,19.35,19.35,0,0,0,5.57,4.19c7,3.46,16.81,2.1,22.06-3.66,1.75-1.91,3.78-5,4.12-7.55A17.91,17.91,0,0,0,81.06,371.77Z" style="fill:#ebebeb"></path><path d="M82.75,350.8a4.73,4.73,0,0,1-.52.47l-1.52,1.27a30.18,30.18,0,0,0-2.27,2.16,13.76,13.76,0,0,0-2.35,3.35,9.19,9.19,0,0,0-.94,4.77A6.81,6.81,0,0,0,76,365.4a11.72,11.72,0,0,0,1.73,2.33,32.64,32.64,0,0,1,4.24,4.84A16.19,16.19,0,0,1,83.62,386a14,14,0,0,1-1.36,3c-.26.48-.6.91-.89,1.35s-.65.83-1,1.21A17.45,17.45,0,0,1,71,396.94l-.56.13-.56.07-1.07.15c-.7,0-1.36.08-2,.09l-1.72-.07-1.43-.17-.61-.08-.52-.11-.83-.18a4.51,4.51,0,0,1-.67-.18,2.8,2.8,0,0,1,.7.07l.82.12.53.09.61.05,1.42.13h1.7c.61,0,1.25-.07,1.94-.12l1-.17.55-.08.55-.13a17.34,17.34,0,0,0,9.09-5.3c.33-.37.64-.78,1-1.18s.6-.84.85-1.31a14,14,0,0,0,1.31-2.92,15.64,15.64,0,0,0,.59-6.67,15.42,15.42,0,0,0-2.23-6.31,33.21,33.21,0,0,0-4.15-4.79,11.65,11.65,0,0,1-1.79-2.45,7.23,7.23,0,0,1-.84-2.76,9.51,9.51,0,0,1,1-5,13.52,13.52,0,0,1,2.48-3.39,25.91,25.91,0,0,1,2.35-2.1c.68-.54,1.22-.94,1.59-1.2A2.34,2.34,0,0,1,82.75,350.8Z" style="fill:#e0e0e0"></path><g style="opacity:0.6000000000000001"><path d="M77.19,377.87c-2.48-4.39-8.21-4.95-9.78-4.23a8.75,8.75,0,0,0-7,4.82,8.52,8.52,0,0,0,.54,8.84A10,10,0,0,0,69.47,391a10.15,10.15,0,0,0,7-3C79,385.28,79,381,77.19,377.87Z" style="fill:#fff"></path></g><path d="M75,368.49a1.87,1.87,0,0,1-.4-.09c-.26,0-.63-.19-1.12-.28a16.93,16.93,0,0,0-4.22-.36,18.55,18.55,0,0,0-2.9.33,19.49,19.49,0,0,0-3.21,1,16.15,16.15,0,0,0-9.77,11.12,18.63,18.63,0,0,0-.56,3.31,20,20,0,0,0,0,2.92,17,17,0,0,0,.91,4.14c.15.48.33.82.42,1.07a2.43,2.43,0,0,1,.14.38,1.52,1.52,0,0,1-.19-.35,9.54,9.54,0,0,1-.47-1.07,15.79,15.79,0,0,1-1-4.15,17.76,17.76,0,0,1-.08-3,18.94,18.94,0,0,1,.54-3.35,16.92,16.92,0,0,1,3.58-6.87,17.11,17.11,0,0,1,6.34-4.43,18.32,18.32,0,0,1,3.26-1,17.84,17.84,0,0,1,3-.31,15.76,15.76,0,0,1,4.24.46,11.37,11.37,0,0,1,1.12.33A2,2,0,0,1,75,368.49Z" style="fill:#e0e0e0"></path><path d="M54.06,378.74a1.83,1.83,0,0,1-1.29-.65,1.79,1.79,0,0,1-.66-1.28c.08,0,.31.56.85,1.08S54.08,378.66,54.06,378.74Z" style="fill:#e0e0e0"></path><path d="M55.55,376.2A3.29,3.29,0,0,1,54,375.07a3.38,3.38,0,0,1-.89-1.68c.08,0,.43.73,1.1,1.5S55.6,376.13,55.55,376.2Z" style="fill:#e0e0e0"></path><path d="M70.9,370.39c-.08,0-.13-.71-.5-1.49s-.89-1.28-.84-1.34a2.26,2.26,0,0,1,1.09,1.22A2.21,2.21,0,0,1,70.9,370.39Z" style="fill:#e0e0e0"></path><path d="M73.43,370.54a12.08,12.08,0,0,0-.18-1.25,11.36,11.36,0,0,0-.55-1.14c0-.07.59.31.81,1.06A1.5,1.5,0,0,1,73.43,370.54Z" style="fill:#e0e0e0"></path><path d="M69.06,343.38l-.3.22-.9.62c-.79.53-1.91,1.32-3.22,2.38a37.42,37.42,0,0,0-4.32,4.07,28.46,28.46,0,0,0-4.12,5.94A22.32,22.32,0,0,0,54,363.47a19.56,19.56,0,0,0,0,5.89A17.64,17.64,0,0,0,55,373.21c.36.87.61,1.33.59,1.34a1.25,1.25,0,0,1-.2-.32c-.13-.22-.29-.55-.49-1a16.58,16.58,0,0,1-1.16-3.85,19.3,19.3,0,0,1-.07-6A22.22,22.22,0,0,1,56,356.49a27.87,27.87,0,0,1,4.18-6,36.24,36.24,0,0,1,4.38-4.05,39,39,0,0,1,3.29-2.32q.6-.39.93-.57A1.58,1.58,0,0,1,69.06,343.38Z" style="fill:#e0e0e0"></path><rect x="49.88" y="54.6" width="86.93" height="90.61" style="fill:#e0e0e0"></rect><rect x="44" y="54.6" width="86.93" height="90.61" style="fill:#ebebeb"></rect><rect x="55.68" y="66.78" width="63.56" height="66.25" style="fill:#fff"></rect><path d="M55.68,133.48a12.79,12.79,0,0,1-1.59,1.8c-1,1.06-2.45,2.51-4.05,4.08s-3.06,3-4.14,4a11.46,11.46,0,0,1-1.82,1.55,11.92,11.92,0,0,1,1.58-1.79c1-1.07,2.46-2.52,4.06-4.1s3.07-3,4.15-4A11.77,11.77,0,0,1,55.68,133.48Z" style="fill:#e0e0e0"></path><path d="M119.24,133.31a12.79,12.79,0,0,1,1.8,1.59c1.06,1,2.51,2.45,4.09,4s3,3.07,4,4.14a11.46,11.46,0,0,1,1.55,1.82,11.23,11.23,0,0,1-1.79-1.58c-1.07-1-2.52-2.45-4.1-4.06s-3-3.07-4-4.15A11.23,11.23,0,0,1,119.24,133.31Z" style="fill:#e0e0e0"></path><path d="M119.06,67a12.79,12.79,0,0,1,1.59-1.8c1-1.07,2.45-2.51,4-4.09s3.07-3,4.15-4a11.18,11.18,0,0,1,1.81-1.55,11.78,11.78,0,0,1-1.58,1.79c-1,1.07-2.45,2.52-4.06,4.09s-3.07,3-4.15,4A11,11,0,0,1,119.06,67Z" style="fill:#e0e0e0"></path><path d="M55.51,67.12a11.44,11.44,0,0,1-1.8-1.59c-1.07-1-2.51-2.45-4.09-4s-3-3.07-4-4.15a12.89,12.89,0,0,1-1.56-1.81,11.51,11.51,0,0,1,1.8,1.58c1.06,1,2.51,2.45,4.09,4s3,3.08,4,4.15A12.31,12.31,0,0,1,55.51,67.12Z" style="fill:#e0e0e0"></path><path d="M119.06,133s0-.12,0-.32,0-.53,0-.93c0-.82,0-2,0-3.57,0-3.13,0-7.7-.06-13.5,0-11.6-.06-28.14-.1-47.94l.2.21L55.69,67h0l.24-.24c0,24.32,0,47.07,0,66.26l-.21-.21,45.91.11,12.88.05,3.41,0h.88l.3,0h-1.14l-3.36,0-12.84.06-46,.1h-.2V133c0-19.19,0-41.94,0-66.26v-.24h.25l63.37,0h.21v.2c0,19.86-.08,36.44-.1,48.07,0,5.79,0,10.33-.06,13.46,0,1.53,0,2.71,0,3.53,0,.39,0,.68,0,.9S119.06,133,119.06,133Z" style="fill:#e0e0e0"></path><rect x="93.96" y="97.29" width="1.58" height="13.33" transform="matrix(0.52, -0.86, 0.86, 0.52, -43.18, 131.52)" style="fill:#e0e0e0"></rect><path d="M89.4,98.39a2,2,0,0,1,.69,2.76h0a2,2,0,0,1-2.77.69l-.6-.36A2,2,0,0,1,86,98.71h0A2,2,0,0,1,88.8,98Z" style="fill:#ebebeb"></path><path d="M83.91,84.16A11.37,11.37,0,1,1,68.31,88,11.37,11.37,0,0,1,83.91,84.16Z" style="fill:#ebebeb"></path><path d="M84.31,84.42l-.4-.26a11.59,11.59,0,0,0-4.45-1.54c-1.61,6.68-6,13-10.74,17.79a11.41,11.41,0,0,0,3.46,3.23c.2.12.41.24.61.34C78.43,99,83.25,92,84.31,84.42Z" style="fill:#fafafa"></path><path d="M100.1,107.18a4.39,4.39,0,1,0,6-1.49A4.39,4.39,0,0,0,100.1,107.18Zm6.36,3.83a3,3,0,1,1-1-4.17A3,3,0,0,1,106.46,111Z" style="fill:#e0e0e0"></path><path d="M75.66,92.65c.12-.19,1.68.14,1.68.14s.88-1.31,1.07-1.3.38,1.64.38,1.64a6.86,6.86,0,0,1,1.57.61c0,.16-1.44.87-1.44.87s.08,1.61-.1,1.68-1.27-1.1-1.27-1.1a7.26,7.26,0,0,1-1.63.43c-.17-.09.65-1.55.65-1.55S75.55,92.85,75.66,92.65Z" style="fill:#e0e0e0"></path><path d="M78.6,86.61c.07-.22,1.67-.23,1.67-.23s.57-1.47.76-1.5.73,1.52.73,1.52a7.35,7.35,0,0,1,1.66.25c.07.15-1.22,1.17-1.22,1.17s.43,1.55.27,1.66-1.48-.8-1.48-.8a6.76,6.76,0,0,1-1.5.77c-.18-.06.3-1.66.3-1.66S78.53,86.82,78.6,86.61Z" style="fill:#e0e0e0"></path><path d="M71.51,98.13c-.16.16.58,1.58.58,1.58s-1,1.19-1,1.37S72.8,101,72.8,101s.85,1.35,1,1.34.46-1.62.46-1.62,1.57-.35,1.59-.54-1.4-.93-1.4-.93a6.88,6.88,0,0,0,0-1.69c-.13-.13-1.32,1-1.32,1S71.67,98,71.51,98.13Z" style="fill:#e0e0e0"></path><polygon points="457.63 44.59 457.63 171.18 294.12 171.18 288.23 45.47 457.63 44.59" style="fill:#e0e0e0"></polygon><rect x="307.05" y="26.5" width="125.86" height="163.51" transform="translate(261.73 478.24) rotate(-90)" style="fill:#fff"></rect><path d="M452.36,171.81H287.6V44.7H452.36Zm-163.51-1.25H451.11V46H288.85Z" style="fill:#e0e0e0"></path><rect x="305.94" y="58.26" width="128.09" height="96.36" style="fill:#fff"></rect><path d="M434,58.26h-.62l-1.8,0-7,0-26.27.07-92.42.15.29-.29c0,28.9,0,61.71,0,96.35h0l-.32-.33,128.09.06-.27.27c.06-29.12.11-53.18.14-70,0-8.4.05-15,.07-19.49,0-2.23,0-3.95,0-5.13s0-1.77,0-1.77,0,.57,0,1.72,0,2.86,0,5.08c0,4.48,0,11,.07,19.42,0,16.83.08,41,.14,70.14v.26H434l-128.09.06h-.33v-.32h0c0-34.64,0-67.45,0-96.35V58h.3l92.61.15,26.2.08,6.92,0,1.77,0C433.84,58.24,434,58.26,434,58.26Z" style="fill:#e0e0e0"></path><path d="M288.23,45a16.37,16.37,0,0,1,2.76,1.7c1.66,1.12,3.93,2.7,6.39,4.51s4.63,3.54,6.16,4.82a15.35,15.35,0,0,1,2.4,2.2,17.26,17.26,0,0,1-2.68-1.84L297,51.77l-6.27-4.67A15.47,15.47,0,0,1,288.23,45Z" style="fill:#e0e0e0"></path><path d="M451.74,45.32c.1.15-3.77,3.16-8.66,6.73s-8.94,6.35-9.05,6.21,3.77-3.16,8.66-6.73S451.63,45.18,451.74,45.32Z" style="fill:#e0e0e0"></path><line x1="451.74" y1="171.18" x2="433.38" y2="154.62" style="fill:#fff"></line><path d="M433.38,154.62c.12-.14,4.33,3.46,9.4,8s9.08,8.39,9,8.52-4.33-3.46-9.4-8S433.26,154.75,433.38,154.62Z" style="fill:#e0e0e0"></path><path d="M288.23,171.18c-.12-.13,3.7-3.78,8.54-8.15s8.86-7.8,9-7.67-3.71,3.78-8.55,8.15S288.35,171.32,288.23,171.18Z" style="fill:#e0e0e0"></path><path d="M364.89,110.33a26.55,26.55,0,0,1-.1-4c.09-1.59,0-3.21,0-4.8-.06-5.66-3.83-9.14-9.39-9.07-2.48,0-5.2,1.45-7.19,2.81-9.87,6.76-6.23,21.61,0,29.3a27.26,27.26,0,0,0,7.24,6.12c3.43,1.9,9.11,2,11.48-1.3a9.07,9.07,0,0,0,.9-9A34.22,34.22,0,0,1,364.89,110.33Z" style="fill:#ebebeb"></path><path d="M366.93,88c-1,3.07-3.73,5-6.14,4.18s-3.56-3.88-2.58-7,3.73-5,6.14-4.18S367.91,84.92,366.93,88Z" style="fill:#ebebeb"></path><path d="M355.65,87.45c0,2.26-1.49,4.07-3.26,4s-3.18-1.87-3.15-4.13,1.49-4.08,3.26-4.05S355.68,85.19,355.65,87.45Z" style="fill:#ebebeb"></path><path d="M347.78,89.21c.88,1.82.44,3.86-1,4.55s-3.3-.23-4.18-2.05-.44-3.86,1-4.55S346.89,87.39,347.78,89.21Z" style="fill:#ebebeb"></path><path d="M342.05,93.92c1.5,1.13,2,3,1.12,4.18s-2.82,1.21-4.32.08-2-3-1.12-4.17S340.54,92.79,342.05,93.92Z" style="fill:#ebebeb"></path><path d="M339.37,100.07c1.55.47,2.52,1.84,2.15,3.06S339.6,105,338,104.49s-2.53-1.84-2.16-3.06S337.81,99.6,339.37,100.07Z" style="fill:#ebebeb"></path><path d="M381,110.33a24.18,24.18,0,0,0,.1-4c-.08-1.59,0-3.21,0-4.8.06-5.66,3.84-9.14,9.39-9.07,2.48,0,5.21,1.45,7.2,2.81,9.87,6.76,6.23,21.61,0,29.3a27.26,27.26,0,0,1-7.24,6.12c-3.44,1.9-9.12,2-11.49-1.3a9.09,9.09,0,0,1-.9-9A34.22,34.22,0,0,0,381,110.33Z" style="fill:#ebebeb"></path><path d="M378.93,88c1,3.07,3.72,5,6.13,4.18s3.57-3.88,2.59-7-3.73-5-6.14-4.18S378,84.92,378.93,88Z" style="fill:#ebebeb"></path><path d="M390.21,87.45c0,2.26,1.49,4.07,3.26,4s3.18-1.87,3.15-4.13-1.49-4.08-3.26-4.05S390.18,85.19,390.21,87.45Z" style="fill:#ebebeb"></path><path d="M398.08,89.21c-.88,1.82-.44,3.86,1,4.55s3.3-.23,4.18-2.05.45-3.86-1-4.55S399,87.39,398.08,89.21Z" style="fill:#ebebeb"></path><path d="M403.81,93.92c-1.5,1.13-2,3-1.12,4.18s2.82,1.21,4.32.08,2-3,1.12-4.17S405.31,92.79,403.81,93.92Z" style="fill:#ebebeb"></path><path d="M406.49,100.07c-1.56.47-2.52,1.84-2.16,3.06s1.93,1.82,3.49,1.36,2.52-1.84,2.16-3.06S408.05,99.6,406.49,100.07Z" style="fill:#ebebeb"></path></g><g id="freepik--Table--inject-12"><path d="M476.51,455.07c0,.14-101,.26-225.5.26s-225.52-.12-225.52-.26,101-.26,225.52-.26S476.51,454.92,476.51,455.07Z" style="fill:#263238"></path></g><g id="freepik--Characters--inject-12"><path d="M265.11,197.19s-76.24,9.73-76.52,10.56,3.62,32.16,3.62,32.16,44.34,42.77,45.46,43.23,15.05-7.39,15.05-7.39Z" style="fill:#ffbe9d"></path><path d="M286.12,174.57c-.29-6.27,2.05-12.33,4-18.29s3.62-12.4,1.94-18.46c-2.12-7.61-9-12.9-12.64-19.89s-4-15.27-4.61-23.18-2-16.28-7.23-22.24c-6.63-7.53-24-8.89-32.18-3.08-1.27,45-11.92,90.48-2.3,134.42a119.71,119.71,0,0,0,63.24-15.1C290.21,187.49,286.42,180.85,286.12,174.57Z" style="fill:#e0e0e0"></path><path d="M190.27,207.26,184.09,93.91a9.63,9.63,0,0,1,8.33-10L243.1,69.55c16.3-2.19,27.74,17.63,29.24,34,1.67,18.19,3,40.47,1.21,54.13-3.56,27.47-24.42,31.55-24.42,31.55l.3,15.66-10.05,34.69Z" style="fill:#ffbe9d"></path><path d="M265.28,127.32A3.51,3.51,0,0,1,262,131a3.36,3.36,0,0,1-3.7-3.06,3.51,3.51,0,0,1,3.27-3.64A3.35,3.35,0,0,1,265.28,127.32Z" style="fill:#263238"></path><path d="M267.84,115.29c-.43.47-3.14-1.42-6.91-1.3s-6.49,2.08-6.91,1.63c-.21-.2.21-1,1.39-2a9.73,9.73,0,0,1,5.52-1.87,9.28,9.28,0,0,1,5.51,1.61C267.63,114.27,268.05,115.08,267.84,115.29Z" style="fill:#263238"></path><path d="M230.4,127.32a3.51,3.51,0,0,1-3.28,3.64,3.37,3.37,0,0,1-3.71-3.06,3.51,3.51,0,0,1,3.28-3.64A3.36,3.36,0,0,1,230.4,127.32Z" style="fill:#263238"></path><path d="M230.76,117.05c-.42.47-3.14-1.42-6.91-1.3s-6.49,2.08-6.91,1.63c-.21-.2.21-1,1.39-1.95a9.68,9.68,0,0,1,5.52-1.87,9.21,9.21,0,0,1,5.51,1.61C230.55,116,231,116.84,230.76,117.05Z" style="fill:#263238"></path><path d="M245.25,144.65c0-.21,2.31-.68,6.1-1.28,1-.12,1.87-.34,2-1a4.87,4.87,0,0,0-.72-2.84c-1-2.31-2-4.73-3.06-7.26-4.26-10.34-7.37-18.85-7-19s4.21,8.07,8.46,18.41q1.54,3.83,2.94,7.3c.4,1.09,1.06,2.31.61,3.77a2.39,2.39,0,0,1-1.55,1.45,6.26,6.26,0,0,1-1.63.28C247.64,144.78,245.27,144.87,245.25,144.65Z" style="fill:#263238"></path><path d="M249.13,189.24a69.61,69.61,0,0,1-36.91-8.73s9.75,19.23,37.05,15.89Z" style="fill:#eb996e"></path><path d="M245,153.64a9.32,9.32,0,0,0-7.76-3.84,6.06,6.06,0,0,0-4.89,2.85,5.54,5.54,0,0,0,6.45,8.12,13.69,13.69,0,0,0,5.46-3.59,4.4,4.4,0,0,0,1.15-1.45,1.93,1.93,0,0,0-.2-1.91" style="fill:#eb996e"></path><path d="M234.22,147.58c.61-.05.73,4,4.32,6.85s7.94,2.23,8,2.81c.06.25-.95.82-2.79.92a10.2,10.2,0,0,1-6.66-2.11,8.89,8.89,0,0,1-3.37-5.75C233.51,148.59,233.94,147.56,234.22,147.58Z" style="fill:#263238"></path><path d="M232,101.47c-.34,1-4.12.65-8.53,1.31s-8,2-8.58,1.07c-.27-.43.32-1.42,1.74-2.45a15.06,15.06,0,0,1,13-1.82C231.29,100.19,232.13,101,232,101.47Z" style="fill:#e0e0e0"></path><path d="M266.14,102.34c-.64.88-3.27.06-6.39.11s-5.76.74-6.4-.14c-.28-.43.12-1.3,1.25-2.14a8.83,8.83,0,0,1,5.16-1.55,8.74,8.74,0,0,1,5.14,1.58C266,101,266.42,101.92,266.14,102.34Z" style="fill:#e0e0e0"></path><path d="M249.15,68.85c-4.69-11.95-14.86-13-25.75-14.23s-27.05,3.54-36.05,9.8c-7,4.89-14.92,11.06-20,18-4.83,6.62-7,14.19-10,21.83-4.66,11.89-4.37,25-5,37.78a243.59,243.59,0,0,1-7.21,47.49c-1,4-2.08,8.66.25,12.11,2.12,3.12,6.22,4.08,9.95,4.62a125.5,125.5,0,0,0,33.42.33l12.52,2.34c12.5-8.22-1.78-78.95-3.5-89.73C197.82,119.16,193.66,61.07,249.15,68.85Z" style="fill:#e0e0e0"></path><path d="M245.52,69.11c-3.55,2.5-5.17,7-5.76,11.29s-.33,8.71-1.13,13A27.2,27.2,0,0,1,223,113c-2.54,1.1-6,1.55-7.61-.73a15,15,0,0,1-9.14,14.3c-4,1.63-8.6,1.38-12.86,2.32s-8.74,3.89-9,8.25l-1.8-30.36,8.54-26.85L217.4,64.27Z" style="fill:#e0e0e0"></path><path d="M199,119.16a15.27,15.27,0,0,0,6.65-9.68,62.87,62.87,0,0,0,1.83-12.93c.37-4.92.58-10.39,1.85-16S213,69.83,216.5,66.21a17.94,17.94,0,0,1,5.73-4.12,17.63,17.63,0,0,1,6-1.47,14.18,14.18,0,0,1,8.56,2,8.09,8.09,0,0,1,1.13.83,4.33,4.33,0,0,1,.75.69,5.85,5.85,0,0,1,.57.62,20.94,20.94,0,0,0-2.55-2A14.27,14.27,0,0,0,228.23,61a17.22,17.22,0,0,0-11.39,5.55c-3.38,3.56-5.73,8.61-7,14.13s-1.49,11-1.88,15.91-.83,9.4-2,13a18.08,18.08,0,0,1-4.35,7.69A9.61,9.61,0,0,1,199,119.16Z" style="fill:#fff"></path><path d="M176.21,115.5a15.84,15.84,0,0,0,4-1,20.89,20.89,0,0,0,8.38-7.36,40.57,40.57,0,0,0,3.85-6.79,30.23,30.23,0,0,0,2.14-8.65c.38-3.14.52-6.47.88-9.92a46.51,46.51,0,0,1,.83-5.23A28.43,28.43,0,0,1,198,71.37a28.08,28.08,0,0,1,14.67-14.14,26.51,26.51,0,0,1,16.67-1.12,27.23,27.23,0,0,1,10.22,4.94,20.45,20.45,0,0,1,3,2.85l-.21-.17-.59-.55c-.25-.24-.57-.54-1-.86a17.6,17.6,0,0,0-1.4-1.11,28,28,0,0,0-10.18-4.75,26.39,26.39,0,0,0-16.4,1.22,27.67,27.67,0,0,0-14.38,13.9,28.17,28.17,0,0,0-1.7,5.09,44.8,44.8,0,0,0-.83,5.17c-.37,3.42-.52,6.76-.91,9.92a30.76,30.76,0,0,1-2.23,8.77,39.2,39.2,0,0,1-3.94,6.82,20.64,20.64,0,0,1-8.6,7.34,12.19,12.19,0,0,1-3,.76l-.81,0A.92.92,0,0,1,176.21,115.5Z" style="fill:#fff"></path><path d="M215.37,112.23a1.18,1.18,0,0,1,0,.25c0,.2,0,.45-.07.76s-.07.75-.15,1.23-.22,1-.34,1.66a17.48,17.48,0,0,1-1.75,4.34,15.18,15.18,0,0,1-4.14,4.65c-3.75,2.87-9.51,4.2-15.75,3.9a45.81,45.81,0,0,1-9.75-1.52,38.91,38.91,0,0,1-10-4l-.62-.37.72-.1A38.27,38.27,0,0,0,185,119.49l.19-.1.16.49a36.31,36.31,0,0,1-23.65-4.24l-.47-.27.51-.16a45,45,0,0,0,14-7.11,22.55,22.55,0,0,0,7.31-9.74,23.06,23.06,0,0,0,1.21-7.92c-.07-.91-.13-1.63-.17-2.14l0-.56v-.19s0,.06,0,.19,0,.32.07.55c.06.52.14,1.23.24,2.14a22.12,22.12,0,0,1-1.08,8,22.74,22.74,0,0,1-7.34,10,44.92,44.92,0,0,1-14.14,7.24l0-.44a36,36,0,0,0,23.33,4.15l1.76-.29-1.6.78-.2.1a39,39,0,0,1-11.59,3.58l.1-.48a38.5,38.5,0,0,0,9.81,4,45.63,45.63,0,0,0,9.65,1.54c6.17.33,11.84-.95,15.53-3.71a15.14,15.14,0,0,0,4.12-4.52,18.13,18.13,0,0,0,1.79-4.25c.14-.62.27-1.17.38-1.65s.14-.88.2-1.21l.11-.75A.83.83,0,0,1,215.37,112.23Z" style="fill:#fff"></path><path d="M159.23,195.26c-.14,0,1.52-15.54,3.71-34.69s4.08-34.65,4.23-34.63-1.52,15.55-3.71,34.69S159.37,195.28,159.23,195.26Z" style="fill:#fff"></path><path d="M174.72,199a2.8,2.8,0,0,1-.09-.65c0-.49-.1-1.11-.17-1.88-.13-1.63-.29-4-.44-6.92-.32-5.85-.59-13.94-.57-22.88s.34-17,.69-22.87c.18-2.93.35-5.29.49-6.92.07-.77.13-1.4.17-1.88a3.08,3.08,0,0,1,.1-.65,3,3,0,0,1,0,.66c0,.48,0,1.11-.08,1.88-.08,1.7-.19,4-.32,6.92-.26,5.85-.51,13.93-.54,22.86s.19,17,.41,22.86c.12,2.88.22,5.23.29,6.93,0,.77.05,1.4.06,1.88A3,3,0,0,1,174.72,199Z" style="fill:#fff"></path><path d="M235.74,145.9a8.47,8.47,0,0,0-3.25.33,8.63,8.63,0,0,0-2.58,2c-.06,0,0-.42.42-.95a4.49,4.49,0,0,1,4.46-1.77C235.42,145.63,235.76,145.84,235.74,145.9Z" style="fill:#eb996e"></path><path d="M233.58,143.18a15.29,15.29,0,0,1-1.5.47,6.85,6.85,0,0,0-4.51,5.47c-.15.95-.09,1.56-.17,1.57a2.86,2.86,0,0,1-.2-1.61A6.47,6.47,0,0,1,232,143.3,3,3,0,0,1,233.58,143.18Z" style="fill:#eb996e"></path><path d="M212.93,210.06s-.29-.16-.45-.7a3.87,3.87,0,0,1,.26-2.23c.29-.86.77-2,.09-2.94-.29-.5-.77-1-1.09-1.62a2.14,2.14,0,0,1-.21-1.13,3,3,0,0,1,.39-1.08,17.36,17.36,0,0,0,1.1-1.73,2.7,2.7,0,0,0,.11-1.73c-.27-1.14-.88-2.12-1-3.09a3.09,3.09,0,0,1,.3-2.24c.31-.46.63-.55.63-.53s-.24.19-.46.63a3.09,3.09,0,0,0-.11,2.06c.18.88.82,1.81,1.15,3.06a3.1,3.1,0,0,1-.12,2.05,16.3,16.3,0,0,1-1.11,1.78,1.73,1.73,0,0,0-.17,1.73c.26.56.72,1,1,1.59a2.55,2.55,0,0,1,.34,1.84,8,8,0,0,1-.49,1.48,3.92,3.92,0,0,0-.41,2.06A4.82,4.82,0,0,0,212.93,210.06Z" style="fill:#eb996e"></path><path d="M216.26,210.67s-.29-.16-.44-.7a3.78,3.78,0,0,1,.26-2.23c.29-.86.76-2,.09-2.94a17.43,17.43,0,0,1-1.09-1.62,2,2,0,0,1-.21-1.13,2.64,2.64,0,0,1,.39-1.08c.38-.65.84-1.16,1.09-1.73a2.64,2.64,0,0,0,.12-1.73c-.27-1.15-.89-2.12-1-3.1a3.06,3.06,0,0,1,.29-2.23c.31-.47.64-.55.64-.53s-.24.19-.46.63a3,3,0,0,0-.11,2.06c.18.88.81,1.81,1.14,3.06a3.1,3.1,0,0,1-.11,2,17.32,17.32,0,0,1-1.11,1.78,1.73,1.73,0,0,0-.17,1.73c.25.55.71,1,1,1.59a2.48,2.48,0,0,1,.33,1.83,7.44,7.44,0,0,1-.49,1.49,4,4,0,0,0-.4,2.06A4.3,4.3,0,0,0,216.26,210.67Z" style="fill:#eb996e"></path><path d="M271,127.11c.09.11-.36.59-1.13.7s-1.34-.22-1.28-.35.59-.07,1.21-.16S270.86,127,271,127.11Z" style="fill:#eb996e"></path><path d="M271,130.63c-.1.12-.71-.27-1.52-.55s-1.53-.4-1.53-.55.79-.28,1.7.06S271.06,130.54,271,130.63Z" style="fill:#eb996e"></path><path d="M214.1,127.77c0,.14-.8.27-1.71-.07s-1.43-1-1.33-1.07.7.28,1.51.58S214.09,127.62,214.1,127.77Z" style="fill:#eb996e"></path><path d="M214.58,129.52c0,.15-.75.14-1.6.27s-1.54.34-1.61.21.58-.59,1.53-.73S214.61,129.39,214.58,129.52Z" style="fill:#eb996e"></path><path d="M313.26,255.2l2.24-58.46s-4.49-4.5-16.63-4.05-34.18,4.5-34.18,4.5l-22.52,69.12-52.58-61.93L156.31,221,173.4,346.48l6.75,54.42s-21.14,34.62-20.69,54c25.94-.53,112.55.06,120.1-.12,0,0,64,.53,67.41.29Z" style="fill:#7E57C2"></path><path d="M116.72,298.37s20.68-72,40-77.35l9.89,19.34,7.2,83.19Z" style="fill:#7E57C2"></path><polygon points="314.26 195.56 372.62 255.31 318.77 288.86 303.88 249.15 314.26 195.56" style="fill:#7E57C2"></polygon><path d="M314.26,240.17a2,2,0,0,1,.13.49c.07.39.16.86.27,1.43.23,1.24.52,3,.85,5.26.65,4.46,1.39,10.63,2,17.47s1.15,13,1.52,17.51c.17,2.18.32,4,.42,5.31,0,.58.07,1.06.1,1.45a1.59,1.59,0,0,1,0,.5,1.73,1.73,0,0,1-.1-.49c-.06-.39-.12-.86-.2-1.44-.16-1.25-.36-3.06-.59-5.3-.43-4.55-1-10.7-1.66-17.49s-1.33-13-1.89-17.47l-.68-5.28c-.07-.58-.13-1.05-.17-1.44A1.65,1.65,0,0,1,314.26,240.17Z" style="fill:#263238"></path><path d="M301.93,257.39a4.87,4.87,0,0,1-1.2.17l-3.3.3c-2.77.26-6.6.68-10.81,1.32s-8,1.4-10.71,2l-3.23.7a5.77,5.77,0,0,1-1.2.21,4.81,4.81,0,0,1,1.15-.4c.75-.23,1.84-.53,3.2-.86,2.71-.68,6.49-1.49,10.71-2.14s8.07-1,10.87-1.17c1.39-.09,2.52-.13,3.3-.14A6.41,6.41,0,0,1,301.93,257.39Z" style="fill:#fff"></path><path d="M161.48,275.93a5.61,5.61,0,0,1,.14.66c.09.49.19,1.12.32,1.91.28,1.71.67,4.09,1.14,7,1,5.92,2.36,14.07,4,23.06s3.37,17.09,4.65,22.94c.63,2.88,1.15,5.23,1.53,6.93.17.78.3,1.4.41,1.89a3,3,0,0,1,.11.66,3,3,0,0,1-.21-.64l-.51-1.86c-.42-1.62-1-4-1.69-6.9-1.37-5.83-3.1-13.94-4.8-22.93s-3-17.16-3.91-23.09c-.43-3-.77-5.37-1-7-.09-.79-.16-1.43-.22-1.92A2.69,2.69,0,0,1,161.48,275.93Z" style="fill:#263238"></path><g style="opacity:0.30000000000000004"><path d="M332.13,397.05c-1.82-.33-3.61.63-5.21,1.57L303.9,412c-6.33,3.69-13.22,7.51-20.51,6.8-6.06-.58-11.33-4.2-16.49-7.44-20.32-12.77-64-14.84-87.77-18.26,7.34,8.81,20.14,12.8,31.16,16s22.53,5.64,32.06,12c7.46,5,13.56,12.32,22,15.34,7.12,2.54,14.94,1.67,22.44.77,11.26-1.34,23.11-2.92,32.1-9.82,6-4.58,10.08-11.09,14.08-17.46,1.36-2.17,2.77-4.46,2.95-7S334.66,397.5,332.13,397.05Z"></path></g><path d="M278.75,196.79s0,.14-.1.41l-.33,1.17L277,202.88c-1.18,4-2.88,9.64-5,16.72-4.28,14.19-10.24,33.94-17,56.28l0,.15-.15,0-12.6,2.53-3.65.73-.14,0-.1-.11c-17.07-19-32.37-36.05-43.37-48.42L182,216.16l-3.46-4a9.65,9.65,0,0,1-1.13-1.46s.1.13.3.36l.91,1c.82.93,2,2.26,3.53,4l13.07,14.56,43.49,48.31-.25-.08,3.64-.73,12.61-2.53-.2.18c6.81-22.32,12.82-42.05,17.14-56.23,2.18-7.06,3.93-12.74,5.14-16.67l1.41-4.49c.16-.49.28-.88.37-1.16S278.75,196.79,278.75,196.79Z" style="fill:#263238"></path><path d="M247.1,388.39c-3.13-9,0-19.06,4.78-27.31s11.24-15.47,15.64-23.93c5.48-10.55,7.55-22.59,12.9-33.2,8.23-16.34,23.39-27.88,38.05-38.82,7.18-5.37,14.77-10.91,23.65-12.15,9.22-1.3,18.37,2.25,26.9,6s17.16,8,23,15.17c10.17,12.53,9.06,31.45,1.32,45.62s-20.86,24.5-34.06,33.79-27.06,18.11-37.37,30.53c-5.93,7.14-10.72,15.5-18.33,20.81-6.18,4.31-13.75,6.24-21.25,6.85-8.36.68-17.13-.29-24.33-4.61s-12.45-12.46-11.63-20.81" style="fill:#e0e0e0"></path><path d="M320.1,304.71l4.87-6.18c-7.1-7.4-6.58-17.6.26-27.17,3.64-5.1,3.92-5.85,12.72-16.08s16.69-12.35,16.69-12.35A25.21,25.21,0,0,1,379,249.12c7.7,7.19,10.55,18.31,9.95,26.39A16.35,16.35,0,0,1,384,286.06c-6.62,6.39-19.19,18.5-22.64,21.72a52.19,52.19,0,0,0-6.07,6.3l-7,7.64a17.9,17.9,0,0,1-24.87,3.54h0C315.78,319.62,315.76,311.27,320.1,304.71Z" style="fill:#ffbe9d"></path><path d="M373,293.73c.29.08,10.6,4.27,3.56,12.59s-13.95-.46-13.77-.71S373,293.73,373,293.73Z" style="fill:#ffbe9d"></path><path d="M368,304.61c.06,0,.06.22.2.54a2,2,0,0,0,1.07.94c1.15.42,3.07-.35,4.38-1.82a6.2,6.2,0,0,0,1.36-2.42,2.2,2.2,0,0,0-.15-2,1,1,0,0,0-1.2-.33c-.3.14-.39.35-.45.33s-.06-.29.3-.58a1.22,1.22,0,0,1,.77-.25,1.48,1.48,0,0,1,1,.47,2.68,2.68,0,0,1,.42,2.57,6.31,6.31,0,0,1-1.46,2.75c-1.47,1.63-3.66,2.48-5.16,1.81a2.09,2.09,0,0,1-1.14-1.35C367.81,304.82,367.92,304.6,368,304.61Z" style="fill:#eb996e"></path><path d="M338.48,266.44a2.38,2.38,0,0,0,.31,3.3,2.27,2.27,0,0,0,3.25-.16,2.38,2.38,0,0,0-.31-3.3A2.28,2.28,0,0,0,338.48,266.44Z" style="fill:#263238"></path><path d="M341,261.49c0,.43,2.27.5,4.27,2.09s2.67,3.76,3.08,3.69c.19,0,.31-.65,0-1.62a6.41,6.41,0,0,0-2.23-3.25A6.19,6.19,0,0,0,342.5,261C341.51,261,341,261.29,341,261.49Z" style="fill:#263238"></path><path d="M355.23,279.83a2.37,2.37,0,0,0,.3,3.3,2.28,2.28,0,0,0,3.25-.16,2.38,2.38,0,0,0-.31-3.3A2.25,2.25,0,0,0,355.23,279.83Z" style="fill:#263238"></path><path d="M359,275.62c0,.43,2.27.5,4.27,2.09s2.67,3.76,3.08,3.69c.19,0,.31-.65,0-1.62a6.44,6.44,0,0,0-2.22-3.25,6.24,6.24,0,0,0-3.65-1.36C359.51,275.15,359,275.42,359,275.62Z" style="fill:#263238"></path><path d="M365.26,270.82c-.1.7,1.66,1.53,3.36,3s2.87,3,3.54,2.78c.31-.12.43-.75.15-1.67a6.55,6.55,0,0,0-2.09-3,6.62,6.62,0,0,0-3.34-1.52C365.93,270.27,365.33,270.49,365.26,270.82Z" style="fill:#263238"></path><path d="M346.23,254.73c-.1.7,1.66,1.53,3.36,3s2.87,3,3.54,2.78c.31-.12.42-.75.15-1.67a6.89,6.89,0,0,0-5.43-4.55C346.9,254.18,346.29,254.4,346.23,254.73Z" style="fill:#263238"></path><path d="M342.62,287.3c-.13.09,0,.52.44,1a3.6,3.6,0,0,0,4.89.14c.5-.47.63-.89.51-1s-1.37.76-2.95.7S342.87,287.1,342.62,287.3Z" style="fill:#263238"></path><path d="M325,298.53s10,8.36,13.86,8.54c0,0-5.68,3.42-16-5.78Z" style="fill:#eb996e"></path><path d="M347,275.84c-.1-.13-.69.12-1.56.62-.43.26-.94.58-1.49,1l-.86.58a4.73,4.73,0,0,0-1,.8,1.92,1.92,0,0,0-.51,1.45,2.17,2.17,0,0,0,.57,1.25,2.58,2.58,0,0,0,1,.66,3,3,0,0,0,.93.17c1.11,0,1.68-.28,1.68-.42s-.68-.21-1.57-.41a2,2,0,0,1-1.19-.71,1.22,1.22,0,0,1-.25-.62.91.91,0,0,1,.25-.6,4.69,4.69,0,0,1,.76-.62l.82-.65c.52-.42,1-.81,1.35-1.15C346.64,276.46,347.06,276,347,275.84Z" style="fill:#263238"></path><path d="M396.28,305.09c-13.39-5.68-28.51-5-43-4.24-13.49.74-27.13,1.57-40,5.63-15.93,5-30,14.77-42.58,25.74l1.05,25.24,59.11-10.8L396,306.82" style="fill:#e0e0e0"></path><path d="M343.56,249.65c11.24-10.82,21.45-12.94,32.91-5.91,7.8,4.78,13.48,9.43,16.52,19.14a42.42,42.42,0,0,1,1.1,11.25c-1.31,13-7.29,19-16.09,23.32l-2.71-2.5-3.46,3.58c-1.38-1-3.51-1.93-4.59-3.22s.21-4.9,1.27-6.2a42.76,42.76,0,0,1,5.85-5.77c3.29-2.72,5.16-4.22,6.58-7.68,0,0,4.11-6,1.09-12.17-3.28-6.75-8.22-5.67-14.79-10.78-5.67-4.41-5.64-8.13-11.52-8.73S343.56,249.65,343.56,249.65Z" style="fill:#263238"></path><path d="M371.25,246.6A10.82,10.82,0,0,1,375,235.5c.32-.24.76-.48,1.11-.26a1.07,1.07,0,0,1,.35.81,45.51,45.51,0,0,1,.3,7,4.7,4.7,0,0,1,1.71-1.72,1.69,1.69,0,0,1,2.18.49c.42.72,0,1.62-.32,2.39a12.82,12.82,0,0,0-.59,8.2" style="fill:#263238"></path><path d="M337.25,272.18v0l.2.28Z" style="fill:#eb996e"></path><path d="M337.26,272.2a11.32,11.32,0,0,0-2.66-3,4.7,4.7,0,0,0-4.12-.85A4.35,4.35,0,0,0,328,273.5a6.88,6.88,0,0,0,4.15,4.41,4.8,4.8,0,0,0,2.9.44,3.91,3.91,0,0,0,2.79-2.92A3.84,3.84,0,0,0,337.26,272.2Z" style="fill:#efac8e"></path><path d="M360.3,287.15v0l.31.15Z" style="fill:#eb996e"></path><path d="M360.31,287.17a11.4,11.4,0,0,0-3.75-1.38,4.7,4.7,0,0,0-4,1.2,4.34,4.34,0,0,0,.2,5.7,6.89,6.89,0,0,0,5.74,1.94,4.79,4.79,0,0,0,2.77-1,3.88,3.88,0,0,0,1.07-3.89A3.82,3.82,0,0,0,360.31,287.17Z" style="fill:#efac8e"></path><path d="M398.57,305.14l-.35-.08-1-.29-1.61-.49-2.23-.58a94.42,94.42,0,0,0-14.47-2.39,167.4,167.4,0,0,0-21.75-.42c-4.1.17-8.4.4-12.84.8-2.22.2-4.49.34-6.77.64s-4.61.5-6.94.9a111.88,111.88,0,0,0-25.74,6.62,98.11,98.11,0,0,0-19.05,10.42c-5.09,3.53-9,6.66-11.78,8.77-1.35,1-2.41,1.87-3.15,2.46l-.83.63-.29.2s.08-.09.26-.25l.79-.67,3.09-2.53c2.72-2.16,6.62-5.33,11.7-8.92a97.19,97.19,0,0,1,19.08-10.55,110.36,110.36,0,0,1,25.84-6.69c2.34-.4,4.67-.62,7-.9s4.56-.44,6.79-.64c4.45-.39,8.76-.61,12.86-.77a161.51,161.51,0,0,1,21.81.53,89.62,89.62,0,0,1,14.48,2.56l2.22.63,1.61.54,1,.34Z" style="fill:#263238"></path><path d="M328.18,365.34a4.18,4.18,0,0,1-.63-.36l-1.74-1.1c-.75-.49-1.68-1.08-2.79-1.71s-2.33-1.4-3.77-2.11L317,358.9c-.78-.4-1.62-.76-2.46-1.17-1.7-.83-3.57-1.55-5.53-2.36a94.38,94.38,0,0,0-26.74-6.11c-2.11-.12-4.12-.28-6-.27-.94,0-1.85,0-2.72,0l-2.51.08c-1.61,0-3.05.18-4.32.27s-2.36.21-3.24.33l-2.06.23a3.52,3.52,0,0,1-.72.05,3.49,3.49,0,0,1,.71-.15l2-.33c.89-.15,2-.31,3.25-.42s2.71-.3,4.32-.35l2.52-.11c.88,0,1.79,0,2.73,0,1.9,0,3.91.11,6,.23a90.57,90.57,0,0,1,26.88,6.14c2,.82,3.84,1.56,5.53,2.41.85.42,1.68.79,2.46,1.2l2.22,1.2c1.43.73,2.65,1.53,3.74,2.19s2,1.26,2.75,1.78l1.69,1.19A3.3,3.3,0,0,1,328.18,365.34Z" style="fill:#263238"></path><path d="M331.6,257.69s-.12.19-.4.5L330,259.55c-.54.58-1.21,1.3-1.95,2.16s-1.63,1.8-2.53,2.9c-1.87,2.16-4,4.82-6.24,7.84s-4.57,6.47-6.86,10.17-4.25,7.37-5.95,10.73-3.08,6.48-4.16,9.12c-.57,1.31-1,2.52-1.44,3.58s-.76,2-1,2.72-.48,1.27-.64,1.72a5.3,5.3,0,0,1-.26.59,2.2,2.2,0,0,1,.16-.62c.14-.46.32-1,.55-1.76s.55-1.69.95-2.76.82-2.29,1.37-3.61c1-2.66,2.42-5.78,4.07-9.19s3.66-7.06,5.94-10.79,4.66-7.14,6.92-10.18,4.44-5.66,6.34-7.8c.92-1.09,1.82-2,2.59-2.86s1.46-1.54,2-2.1l1.31-1.29A4.51,4.51,0,0,1,331.6,257.69Z" style="fill:#263238"></path><polygon points="301.26 318.95 303.51 323.5 308.53 324.23 304.89 327.77 305.75 332.78 301.26 330.42 296.76 332.78 297.62 327.77 293.99 324.23 299.01 323.5 301.26 318.95" style="fill:#fff"></polygon><polygon points="290.21 356.57 292.46 361.12 297.49 361.85 293.85 365.4 294.71 370.4 290.21 368.04 285.72 370.4 286.58 365.4 282.94 361.85 287.97 361.12 290.21 356.57" style="fill:#fff"></polygon><polygon points="356.91 317.28 357.02 321.39 360.47 323.63 356.6 325.01 355.54 328.99 353.02 325.73 348.92 325.94 351.24 322.55 349.76 318.71 353.71 319.87 356.91 317.28" style="fill:#fff"></polygon><polygon points="322.8 337.89 323.83 340.38 326.47 340.94 324.42 342.69 324.71 345.37 322.41 343.96 319.95 345.06 320.57 342.44 318.77 340.45 321.45 340.23 322.8 337.89" style="fill:#fff"></polygon><polygon points="272.19 381.14 273.22 383.62 275.86 384.18 273.81 385.93 274.1 388.61 271.8 387.21 269.34 388.31 269.96 385.69 268.16 383.69 270.84 383.47 272.19 381.14" style="fill:#fff"></polygon><polygon points="262.95 362.93 263.99 365.42 266.63 365.97 264.58 367.73 264.87 370.41 262.57 369 260.11 370.1 260.73 367.48 258.93 365.49 261.61 365.27 262.95 362.93" style="fill:#fff"></polygon><polygon points="291.42 299.7 292.46 302.18 295.09 302.74 293.05 304.49 293.33 307.17 291.04 305.77 288.58 306.87 289.2 304.25 287.39 302.25 290.08 302.03 291.42 299.7" style="fill:#fff"></polygon><polygon points="331.86 311.59 332.9 314.08 335.53 314.64 333.49 316.39 333.78 319.07 331.48 317.67 329.02 318.76 329.64 316.14 327.84 314.15 330.52 313.93 331.86 311.59" style="fill:#fff"></polygon><polygon points="344.94 341.63 345.97 344.12 348.61 344.67 346.56 346.43 346.85 349.1 344.55 347.7 342.09 348.8 342.72 346.18 340.91 344.18 343.6 343.96 344.94 341.63" style="fill:#fff"></polygon><polygon points="313.62 293.74 314.65 296.22 317.29 296.78 315.25 298.53 315.53 301.21 313.23 299.81 310.77 300.91 311.4 298.29 309.59 296.29 312.27 296.07 313.62 293.74" style="fill:#fff"></polygon><polygon points="379.85 309.81 380.89 312.29 383.52 312.85 381.48 314.6 381.77 317.28 379.47 315.88 377.01 316.98 377.63 314.36 375.83 312.36 378.51 312.14 379.85 309.81" style="fill:#fff"></polygon><polygon points="391.78 292.57 392.81 295.06 395.45 295.61 393.41 297.37 393.69 300.05 391.39 298.64 388.93 299.74 389.56 297.12 387.75 295.12 390.44 294.91 391.78 292.57" style="fill:#fff"></polygon><polygon points="278.44 337.08 279.48 339.57 282.11 340.12 280.07 341.88 280.35 344.55 278.06 343.15 275.6 344.25 276.22 341.63 274.41 339.63 277.1 339.42 278.44 337.08" style="fill:#fff"></polygon><path d="M132.33,305.25s1.88,65.87,6.51,73.08c2.43,3.79,107.33,36,107.33,36l8.23-24.45L173.83,341l-3.32-18.89Z" style="fill:#ffbe9d"></path><path d="M248.91,386.58s11.43-.35,13.45-1.27,17.47-10.11,17.47-10.11l16.09-3.62s1,2.7-1.37,6.2-12.88,8.8-12.88,8.8-10.57,9.59-9.15,12.9,12.83,9.93,12.83,9.93l34.39,4.95A14.66,14.66,0,0,1,313.3,423l-4,2s-1.47,4.78-6.44,5.33-27.4,0-27.4,0l-29.25-16-6.79-17.83Z" style="fill:#ffbe9d"></path><path d="M277.48,423.54a5,5,0,0,1,1.23,0l3.35.32c2.82.26,6.73.59,11.05.81s8.24.29,11.08.31l3.36,0a5.23,5.23,0,0,1,1.23.07,6,6,0,0,1-1.23.13c-.79.06-1.94.11-3.36.14-2.84.08-6.77.07-11.11-.15s-8.24-.6-11.06-1c-1.41-.17-2.55-.34-3.33-.47A6.45,6.45,0,0,1,277.48,423.54Z" style="fill:#eb996e"></path><path d="M319.06,414.82a8.93,8.93,0,0,1-1.36-.32c-.87-.22-2.14-.5-3.73-.76l-12.45-1.93c-4.85-.77-9.25-1.5-12.42-2.06l-3.76-.68a9,9,0,0,1-1.37-.32,6.92,6.92,0,0,1,1.4.12l3.78.52c3.19.46,7.6,1.13,12.46,1.91s9.25,1.49,12.42,2.08a30.83,30.83,0,0,1,3.72.92A5.78,5.78,0,0,1,319.06,414.82Z" style="fill:#eb996e"></path><path d="M391.36,323.13s-.37,5.73-5.49,17.69S354,376.66,354,376.66l-13.79-21.88Z" style="fill:#ffbe9d"></path><path d="M286.7,385.86s13.61-22.07,17.84-23.54,23.73-1.84,23.73-1.84l12-5.7L354,376.66s-19.12,30.71-21.51,32.18-13.44,5.42-13.44,5.42l-27.57-4.68-7.52-.83,22-27.06s0-3.21-1.52-3.09c-.92.07-7.48,6.33-11.52,7.62S286.7,385.86,286.7,385.86Z" style="fill:#ffbe9d"></path><path d="M315.23,387.57a5.26,5.26,0,0,1-.62,1.06c-.42.68-1.08,1.62-1.93,2.75a62.18,62.18,0,0,1-16.22,15c-1.19.75-2.19,1.33-2.89,1.7a5.74,5.74,0,0,1-1.11.53,5.62,5.62,0,0,1,1-.71c.67-.42,1.63-1,2.79-1.83a73.46,73.46,0,0,0,16.13-14.88c.88-1.1,1.58-2,2.05-2.64A5.66,5.66,0,0,1,315.23,387.57Z" style="fill:#eb996e"></path><path d="M323.4,393.84a3.55,3.55,0,0,1-.5.86c-.34.53-.87,1.28-1.55,2.19a80.85,80.85,0,0,1-5.68,6.82,83.35,83.35,0,0,1-6.39,6.16c-.86.74-1.57,1.33-2.08,1.71a3.15,3.15,0,0,1-.82.56A32.85,32.85,0,0,1,309,409.6c1.66-1.54,3.9-3.72,6.26-6.25s4.35-4.92,5.77-6.68A35.84,35.84,0,0,1,323.4,393.84Z" style="fill:#eb996e"></path><path d="M325.82,404.38a53,53,0,0,1-5.45,4.92,51.68,51.68,0,0,1-5.79,4.53,104.34,104.34,0,0,1,11.24-9.45Z" style="fill:#eb996e"></path><path d="M304.48,378.6a9.18,9.18,0,0,1-1.15,1c-.77.65-1.9,1.57-3.36,2.65a43.86,43.86,0,0,1-5.42,3.5,9,9,0,0,1-8,.28l-.26-.13.18-.25,2.32-3.19,9.94-13.94c1.29-1.77,2.35-3.19,3.1-4.17l.87-1.11a2.11,2.11,0,0,1,.33-.36s-.07.16-.24.43l-.8,1.16c-.74,1.08-1.74,2.52-3,4.27-2.5,3.59-5.92,8.59-9.82,14L286.91,386l-.08-.38a8,8,0,0,0,3.92.75,9.43,9.43,0,0,0,3.59-1,44.86,44.86,0,0,0,5.43-3.37c1.49-1,2.65-1.91,3.45-2.51A10.37,10.37,0,0,1,304.48,378.6Z" style="fill:#eb996e"></path></g></svg>